<svg width="80" height="40" viewBox="0 0 80 40" fill="none" xmlns="http://www.w3.org/2000/svg">
<path d="M0.355316 7.16338H4.92085V24.3888C4.92085 25.8112 5.3482 26.9387 6.20275 27.7713C7.06899 28.5924 8.22203 29.0029 9.66201 29.0029C11.2424 29.0029 12.4949 28.6155 13.4197 27.8408C14.403 27.0197 14.8948 25.84 14.8948 24.3021V7.16338H19.4602V24.6489C19.4602 27.3897 18.5003 29.5003 16.5805 30.9805C14.8362 32.3335 12.5417 33.0101 9.69707 33.0101C6.81726 33.0101 4.56962 32.3335 2.95418 30.9805C1.2217 29.5349 0.355316 27.4186 0.355316 24.6316V7.16338ZM4.35895 0.137939C5.04957 0.137939 5.635 0.380794 6.11494 0.866504C6.60658 1.35221 6.85247 1.93622 6.85247 2.61853C6.85247 3.30084 6.60658 3.88485 6.11494 4.37055C5.635 4.84469 5.04957 5.08177 4.35895 5.08177C3.66832 5.08177 3.07705 4.84469 2.58542 4.37055C2.09378 3.88485 1.84789 3.30084 1.84789 2.61853C1.84789 1.93622 2.09378 1.35221 2.58542 0.866504C3.07705 0.380794 3.66832 0.137939 4.35895 0.137939ZM15.2459 0.137939C15.9366 0.137939 16.5219 0.380794 17.0019 0.866504C17.4935 1.35221 17.7394 1.93622 17.7394 2.61853C17.7394 3.30084 17.4935 3.88485 17.0019 4.37055C16.5219 4.84469 15.9366 5.08177 15.2459 5.08177C14.5553 5.08177 13.9641 4.84469 13.4723 4.37055C12.9807 3.88485 12.7348 3.30084 12.7348 2.61853C12.7348 1.93622 12.9807 1.35221 13.4723 0.866504C13.9641 0.380794 14.5553 0.137939 15.2459 0.137939ZM33.1477 35.56C32.5974 36.9941 31.4326 38.0985 29.6532 38.8733C28.1431 39.5324 26.5101 39.8621 24.7541 39.8621V36.0284C28.1372 36.0284 29.8288 35.1899 29.8288 33.5131C29.8288 32.4029 29.3605 30.703 28.424 28.4132L22.5415 13.998H27.0895L32.217 26.8346L36.8351 13.998H41.3831L33.1477 35.56ZM42.9894 37.3468L45.7638 33.9641C47.2974 35.3519 49.0065 36.0458 50.8912 36.0458C51.898 36.0458 52.7818 35.9243 53.5428 35.6815C54.6783 35.3115 55.2461 34.7389 55.2461 33.9641C55.2461 32.8655 54.3388 32.3162 52.5243 32.3162C52.0325 32.3162 51.301 32.374 50.3293 32.4897C49.3577 32.6053 48.626 32.6631 48.1344 32.6631C45.1142 32.6631 43.6039 31.5934 43.6039 29.4539C43.6039 28.8179 43.8732 28.1935 44.4117 27.5805C44.8917 27.0254 45.4594 26.615 46.115 26.349C43.9727 24.9728 42.9016 23.0241 42.9016 20.5031C42.9016 18.4445 43.6684 16.7619 45.2018 15.4551C46.6535 14.2293 48.4387 13.6164 50.5577 13.6164C52.2434 13.6164 53.654 13.9286 54.7895 14.5531L56.5103 12.5756L59.5482 15.299L57.4585 16.8082C58.1843 17.8952 58.5472 19.1789 58.5472 20.6591C58.5472 22.7293 57.9151 24.4119 56.6508 25.7071C55.3982 26.9908 53.7301 27.6326 51.6463 27.6326C51.2015 27.6326 50.78 27.6036 50.382 27.5459L49.662 27.4417C49.428 27.4417 49.0768 27.5805 48.6085 27.8581C48.1403 28.1356 47.906 28.3785 47.906 28.5867C47.906 29.0492 48.31 29.2805 49.1177 29.2805C49.5742 29.2805 50.2415 29.1937 51.1196 29.0204C52.0092 28.8469 52.6823 28.7601 53.1388 28.7601C57.4117 28.7601 59.5482 30.4543 59.5482 33.8428C59.5482 35.8666 58.5531 37.4276 56.563 38.5263C54.9476 39.4168 53.0276 39.8621 50.8034 39.8621C47.9237 39.8621 45.319 39.0237 42.9894 37.3468ZM47.3794 20.5204C47.3794 21.5958 47.672 22.4633 48.2573 23.1224C48.8661 23.8162 49.709 24.1632 50.7859 24.1632C52.9515 24.1632 54.0344 22.9489 54.0344 20.5204C54.0344 19.5605 53.7301 18.7626 53.1213 18.1266C52.5243 17.4905 51.7458 17.1725 50.7859 17.1725C49.7791 17.1725 48.9597 17.4847 48.3276 18.1092C47.6954 18.7221 47.3794 19.5259 47.3794 20.5204ZM61.576 23.2438C61.576 20.4452 62.3661 18.167 63.9465 16.4092C65.597 14.5705 67.8213 13.6511 70.6191 13.6511C73.5457 13.6511 75.7992 14.5415 77.3795 16.3224C78.8896 18.011 79.6447 20.3181 79.6447 23.2438C79.6447 26.1465 78.8838 28.4595 77.362 30.1825C75.7582 32.0098 73.5106 32.9234 70.6191 32.9234C67.7042 32.9234 65.4449 32.0155 63.8412 30.1998C62.331 28.4768 61.576 26.1581 61.576 23.2438ZM66.1414 23.2438C66.1414 27.3376 67.634 29.3847 70.6191 29.3847C72.2112 29.3847 73.3877 28.7196 74.1486 27.3897C74.769 26.3142 75.0793 24.9322 75.0793 23.2438C75.0793 19.2079 73.5926 17.1899 70.6191 17.1899C69.0504 17.1899 67.874 17.8432 67.0896 19.15C66.4575 20.2254 66.1414 21.5901 66.1414 23.2438ZM65.4917 6.55625C66.1824 6.55625 66.7677 6.7991 67.2477 7.2848C67.7393 7.77052 67.9852 8.35453 67.9852 9.03684C67.9852 9.71913 67.7393 10.3031 67.2477 10.7889C66.7677 11.263 66.1824 11.5001 65.4917 11.5001C64.801 11.5001 64.2099 11.263 63.7181 10.7889C63.2265 10.3031 62.9808 9.71913 62.9808 9.03684C62.9808 8.35453 63.2265 7.77052 63.7181 7.2848C64.2099 6.7991 64.801 6.55625 65.4917 6.55625ZM76.3787 6.55625C77.0694 6.55625 77.6546 6.7991 78.1346 7.2848C78.6264 7.77052 78.8721 8.35453 78.8721 9.03684C78.8721 9.71913 78.6264 10.3031 78.1346 10.7889C77.6546 11.263 77.0694 11.5001 76.3787 11.5001C75.688 11.5001 75.0968 11.263 74.6052 10.7889C74.1134 10.3031 73.8677 9.71913 73.8677 9.03684C73.8677 8.35453 74.1134 7.77052 74.6052 7.2848C75.0968 6.7991 75.688 6.55625 76.3787 6.55625Z" fill="#0AAD3B"/>
</svg>
