<svg width="28" height="28" viewBox="0 0 28 28" fill="none" xmlns="http://www.w3.org/2000/svg">
<path d="M20.2528 5.99579C22.3239 5.99579 24.0028 7.67472 24.0028 9.74579V17.2439C24.0028 19.315 22.3239 20.9939 20.2528 20.9939H7.74837C5.6773 20.9939 3.99837 19.315 3.99837 17.2439V9.74579C3.99837 7.67472 5.6773 5.99579 7.74837 5.99579H20.2528ZM20.2528 7.49579H7.74837C6.50573 7.49579 5.49837 8.50315 5.49837 9.74579V17.2439C5.49837 18.4866 6.50573 19.4939 7.74837 19.4939H20.2528C21.4955 19.4939 22.5028 18.4866 22.5028 17.2439V9.74579C22.5028 8.50315 21.4955 7.49579 20.2528 7.49579ZM8.75493 15.5H15.2521C15.6663 15.5 16.0021 15.8358 16.0021 16.25C16.0021 16.6297 15.7199 16.9435 15.3539 16.9931L15.2521 17H8.75493C8.34071 17 8.00493 16.6642 8.00493 16.25C8.00493 15.8703 8.28708 15.5565 8.65316 15.5068L8.75493 15.5H15.2521H8.75493ZM8.75493 12.7449H17.2549C17.6691 12.7449 18.0049 13.0806 18.0049 13.4949C18.0049 13.8746 17.7228 14.1884 17.3567 14.238L17.2549 14.2449H8.75493C8.34071 14.2449 8.00493 13.9091 8.00493 13.4949C8.00493 13.1152 8.28708 12.8014 8.65316 12.7517L8.75493 12.7449H17.2549H8.75493ZM8.75496 10H13.25C13.6642 10 14 10.3358 14 10.75C14 11.1297 13.7178 11.4435 13.3518 11.4931L13.25 11.5H8.75496C8.34074 11.5 8.00496 11.1642 8.00496 10.75C8.00496 10.3703 8.28711 10.0565 8.65319 10.0068L8.75496 10H13.25H8.75496Z" fill="#AEAEB2"/>
</svg>
