<svg width="28" height="28" viewBox="0 0 28 28" fill="none" xmlns="http://www.w3.org/2000/svg">
<path d="M19.7542 15.9999C20.9962 15.9999 22.0031 17.0068 22.0031 18.2488V18.8242C22.0031 19.7185 21.6835 20.5833 21.1019 21.2627C19.5326 23.0962 17.1454 24.0011 14 24.0011C10.8541 24.0011 8.46813 23.0959 6.90182 21.2617C6.32206 20.5828 6.00354 19.7193 6.00354 18.8265V18.2488C6.00354 17.0068 7.0104 15.9999 8.25242 15.9999H19.7542ZM19.7542 17.4999H8.25242C7.83883 17.4999 7.50354 17.8352 7.50354 18.2488V18.8265C7.50354 19.3622 7.69465 19.8802 8.04251 20.2876C9.29582 21.7553 11.2617 22.5011 14 22.5011C16.7383 22.5011 18.7059 21.7553 19.9624 20.2873C20.3113 19.8797 20.5031 19.3608 20.5031 18.8242V18.2488C20.5031 17.8352 20.1678 17.4999 19.7542 17.4999ZM14 4.00464C16.7614 4.00464 19 6.24321 19 9.00464C19 11.7661 16.7614 14.0046 14 14.0046C11.2386 14.0046 9 11.7661 9 9.00464C9 6.24321 11.2386 4.00464 14 4.00464ZM14 5.50464C12.067 5.50464 10.5 7.07164 10.5 9.00464C10.5 10.9376 12.067 12.5046 14 12.5046C15.933 12.5046 17.5 10.9376 17.5 9.00464C17.5 7.07164 15.933 5.50464 14 5.50464Z" fill="#AEAEB2"/>
</svg>
