<svg width="28" height="28" viewBox="0 0 28 28" fill="none" xmlns="http://www.w3.org/2000/svg">
<path d="M10.75 10.25C10.75 10.8023 10.3023 11.25 9.75 11.25C9.19772 11.25 8.75 10.8023 8.75 10.25C8.75 9.69772 9.19772 9.25 9.75 9.25C10.3023 9.25 10.75 9.69772 10.75 10.25Z" fill="#1E8BF1"/>
<path d="M12.5 10.25C12.5 9.83579 12.8358 9.5 13.25 9.5H18.75C19.1642 9.5 19.5 9.83579 19.5 10.25C19.5 10.6642 19.1642 11 18.75 11H13.25C12.8358 11 12.5 10.6642 12.5 10.25Z" fill="#1E8BF1"/>
<path d="M12.5001 14C12.5001 13.5858 12.8358 13.25 13.2501 13.25H18.7499C19.1642 13.25 19.4999 13.5858 19.4999 14C19.4999 14.4142 19.1642 14.75 18.7499 14.75H13.2501C12.8358 14.75 12.5001 14.4142 12.5001 14Z" fill="#1E8BF1"/>
<path d="M13.2501 17C12.8358 17 12.5001 17.3358 12.5001 17.75C12.5001 18.1642 12.8358 18.5 13.2501 18.5H18.7499C19.1642 18.5 19.4999 18.1642 19.4999 17.75C19.4999 17.3358 19.1642 17 18.7499 17H13.2501Z" fill="#1E8BF1"/>
<path d="M9.75 15C10.3023 15 10.75 14.5523 10.75 14C10.75 13.4477 10.3023 13 9.75 13C9.19772 13 8.75 13.4477 8.75 14C8.75 14.5523 9.19772 15 9.75 15Z" fill="#1E8BF1"/>
<path d="M10.75 17.75C10.75 18.3023 10.3023 18.75 9.75 18.75C9.19772 18.75 8.75 18.3023 8.75 17.75C8.75 17.1977 9.19772 16.75 9.75 16.75C10.3023 16.75 10.75 17.1977 10.75 17.75Z" fill="#1E8BF1"/>
<path fill-rule="evenodd" clip-rule="evenodd" d="M7.25 5C6.00736 5 5 6.00736 5 7.25V20.75C5 21.9926 6.00736 23 7.25 23H20.75C21.9926 23 23 21.9926 23 20.75V7.25C23 6.00736 21.9926 5 20.75 5H7.25ZM6.5 7.25C6.5 6.83579 6.83579 6.5 7.25 6.5H20.75C21.1642 6.5 21.5 6.83579 21.5 7.25V20.75C21.5 21.1642 21.1642 21.5 20.75 21.5H7.25C6.83579 21.5 6.5 21.1642 6.5 20.75V7.25Z" fill="#1E8BF1"/>
</svg>
