<svg width="128" height="128" viewBox="0 0 128 128" fill="none" xmlns="http://www.w3.org/2000/svg">
<g clip-path="url(#clip0)">
<path d="M122.191 57.2904C120.905 53.7682 118.813 50.5963 116.08 48.0291C114.628 46.6911 113.031 45.5198 111.318 44.5373C108.61 43.1046 105.718 42.0499 102.724 41.4025C99.8111 40.5613 96.9939 39.8154 94.5734 39.1487C93.6664 38.8924 92.8083 38.4875 92.0339 37.9504C91.4959 37.5325 91.1199 36.9405 90.9704 36.2759C90.8039 35.4187 90.8724 34.5324 91.1686 33.7109C91.4647 32.8894 91.9776 32.1633 92.6529 31.6095C93.883 30.6255 95.5178 30.9826 96.6209 31.1651C98.303 31.445 99.9692 31.8132 101.613 32.2682C103.295 32.7047 104.7 33.1888 106.62 33.6491C107.565 33.8709 108.531 33.9933 109.501 34.0141C112.961 34.0776 114.969 29.9112 116.056 27.4114C116.556 26.2766 117.254 24.5068 117.945 22.4197C118.353 21.1692 118.477 19.8436 118.31 18.539C118.229 17.4336 117.835 16.374 117.175 15.4836C116.593 14.7018 115.895 14.0139 115.104 13.4441C111.224 10.7825 106.759 9.09723 102.089 8.53171C99.8509 8.21373 97.5953 8.03614 95.3352 8C91.6374 8.10198 87.9655 8.6509 84.3994 9.63481C78.5506 11.4125 73.789 16.0868 72.7653 17.3168C68.1298 22.7573 65.7505 29.7646 66.1149 36.9028C66.1149 37.3076 66.1784 37.9663 66.2816 38.7995H7.55532C2.79373 38.7995 2.79373 46.6641 7.55532 46.6641H68.5989C69.3986 48.3127 70.3952 49.8583 71.567 51.267C73.9728 54.086 76.9767 56.3334 80.36 57.8459V71.3371H77.7094H72.3209H70.6623C70.6623 66.0676 70.6623 59.9569 70.6623 59.4966C70.6623 59.4966 70.6623 59.2188 70.6623 58.8935C70.6514 58.6595 70.6275 58.4264 70.5908 58.1951C70.4915 57.7081 70.2947 57.2461 70.0125 56.837C69.7302 56.4279 69.3681 56.08 68.9481 55.8143C68.4233 55.5189 67.8357 55.3529 67.2339 55.3302H30.0142C25.2526 55.3302 25.2526 63.1948 30.0142 63.1948H63.8294V71.4244H56.4569C51.3937 71.4244 51.3858 79.2889 56.4569 79.2889C69.7576 79.2889 70.567 79.2334 83.8677 79.2334C83.9285 79.2373 83.9895 79.2373 84.0503 79.2334H85.9232H89.8912C94.2956 79.1858 96.7161 78.9159 99.0413 77.9239C101.121 77.0885 102.923 75.6828 104.239 73.8687C105.552 71.9648 106.31 69.734 106.43 67.4246C106.723 64.7032 106.148 61.9586 104.787 59.5839C104.48 59.105 104.146 58.644 103.787 58.203C103.42 57.7801 103.025 57.3824 102.605 57.0126C100.017 54.7667 93.875 53.7986 93.875 53.7986C89.3753 52.7431 87.2405 52.2987 86.1533 51.878C82.4434 50.6506 79.2469 48.2246 77.0666 44.9817C75.4884 42.5002 74.5579 39.6625 74.3604 36.7283C74.1433 34.2398 74.4268 31.7331 75.1942 29.3561C75.9616 26.979 77.1973 24.7797 78.8284 22.8879C80.0947 21.4783 81.563 20.2642 83.1852 19.285C86.722 17.2115 90.7359 16.0905 94.8353 16.0312C96.4886 15.963 98.1447 16.0294 99.7873 16.2296C100.748 16.3487 101.422 16.4836 102.287 16.6502C104.549 17.157 106.751 17.8991 108.858 18.8644C109.651 19.1447 110.335 19.67 110.81 20.3643C110.956 20.6543 111.027 20.9762 111.017 21.3007C110.983 22.1741 110.775 23.032 110.406 23.8243C109.771 25.4115 109.43 25.7131 108.818 26.0623C108.025 26.4829 106.557 25.8956 104.985 25.4512C102.133 24.6164 99.2113 24.0375 96.2558 23.7212C94.2801 23.4908 92.2778 23.7106 90.3991 24.364C88.7157 24.9824 87.1918 25.9694 85.939 27.2527C85.026 28.2079 84.2897 29.3177 83.7646 30.5303C83.4181 31.4335 83.1526 32.3656 82.971 33.3158C82.6036 36.1418 83.2412 39.007 84.7724 41.4105C85.1009 41.8811 85.47 42.3219 85.8755 42.7279C86.7085 43.489 87.6533 44.118 88.6769 44.5928C90.045 45.2404 91.4653 45.7714 92.9227 46.18C96.0019 47.2196 98.3747 47.6561 101.24 48.4576C104.922 49.4814 109.43 51.759 112.35 55.3461C113.151 56.2979 113.799 57.3689 114.27 58.5205C114.605 59.3338 114.883 60.169 115.104 61.0203C115.281 61.7744 115.419 62.5373 115.516 63.3059C115.889 66.9326 115.913 75.1225 109.961 80.8206C105.001 85.5266 98.1049 86.4392 93.6766 86.8519H84.3122H84.1772H57.5203C52.4571 86.8519 52.4492 94.7165 57.5203 94.7165H63.3135V116.723C63.3135 117.775 63.7316 118.785 64.4757 119.529C65.2199 120.273 66.2292 120.691 67.2815 120.691H84.3201C85.3725 120.691 86.3817 120.273 87.1259 119.529C87.87 118.785 88.2881 117.775 88.2881 116.723V94.772C88.6611 94.772 88.9468 94.772 89.3118 94.772C91.3934 94.8093 93.4754 94.7378 95.5495 94.5578C101.279 94.1292 109.914 92.8753 116.477 86.0821C122.921 79.4238 123.873 71.2736 124.032 67.7183C124.032 67.0358 124.032 66.3771 124.032 66.3771C123.983 63.2607 123.358 60.1801 122.191 57.2904ZM88.2246 71.3768V60.433C93.0655 61.3854 96.3431 61.0362 97.5256 63.5043C98.3192 65.2264 98.1843 68.2659 96.6685 69.8531C96.2876 70.2373 95.838 70.5469 95.3432 70.7657C94.2401 71.2974 93.0338 71.3371 89.9705 71.3609H88.7642H88.2246V71.3768ZM80.36 94.772V112.755H71.1781V94.7403H80.36V94.772Z" fill="#E00303"/>
<path d="M47.3622 94.7006C49.5318 94.7006 51.2905 92.9419 51.2905 90.7723C51.2905 88.6028 49.5318 86.844 47.3622 86.844C45.1927 86.844 43.4339 88.6028 43.4339 90.7723C43.4339 92.9419 45.1927 94.7006 47.3622 94.7006Z" fill="#E00303"/>
<path d="M46.1956 79.2969H34.8789C34.318 79.3726 33.7475 79.3275 33.2055 79.1646C32.6635 79.0017 32.1626 78.7247 31.7365 78.3523C31.3104 77.9798 30.9688 77.5206 30.7348 77.0053C30.5008 76.49 30.3797 75.9305 30.3797 75.3646C30.3797 74.7986 30.5008 74.2392 30.7348 73.7239C30.9688 73.2086 31.3104 72.7493 31.7365 72.3769C32.1626 72.0045 32.6635 71.7275 33.2055 71.5646C33.7475 71.4017 34.318 71.3566 34.8789 71.4323H46.1956C47.1473 71.5609 48.0201 72.0302 48.6521 72.7533C49.2841 73.4765 49.6324 74.4042 49.6324 75.3646C49.6324 76.325 49.2841 77.2527 48.6521 77.9759C48.0201 78.699 47.1473 79.1683 46.1956 79.2969Z" fill="#E00303"/>
<path d="M19.991 63.2424H18.5864C17.615 63.1355 16.7172 62.6739 16.0651 61.9461C15.413 61.2183 15.0524 60.2754 15.0524 59.2982C15.0524 58.321 15.413 57.3781 16.0651 56.6503C16.7172 55.9225 17.615 55.4609 18.5864 55.354H19.991C20.9624 55.4609 21.8602 55.9225 22.5123 56.6503C23.1644 57.3781 23.525 58.321 23.525 59.2982C23.525 60.2754 23.1644 61.2183 22.5123 61.9461C21.8602 62.6739 20.9624 63.1355 19.991 63.2424Z" fill="#E00303"/>
</g>
<defs>
<clipPath id="clip0">
<rect width="120" height="112.612" fill="white" transform="translate(4 8)"/>
</clipPath>
</defs>
</svg>
