<svg width="26" height="12" viewBox="0 0 26 12" fill="none" xmlns="http://www.w3.org/2000/svg">
<path d="M4.70312 11.9365H3.78711V11.0205C2.86198 10.9521 2.11914 10.6719 1.55859 10.1797C1.0026 9.6875 0.722331 9.06087 0.717773 8.2998H1.88672C1.92318 8.75553 2.10775 9.12923 2.44043 9.4209C2.77311 9.71257 3.22201 9.89258 3.78711 9.96094V6.40625L3.24023 6.25586C2.50651 6.06445 1.94141 5.75 1.54492 5.3125C1.15299 4.875 0.957031 4.33952 0.957031 3.70605C0.957031 2.95866 1.20996 2.3457 1.71582 1.86719C2.22168 1.38867 2.91211 1.10612 3.78711 1.01953V0.0625H4.70312V1.0127C5.55534 1.08561 6.24121 1.36589 6.76074 1.85352C7.28483 2.34115 7.55827 2.9541 7.58105 3.69238H6.41895C6.40527 3.26855 6.24121 2.90853 5.92676 2.6123C5.61686 2.31152 5.20898 2.13151 4.70312 2.07227V5.41504L5.28418 5.55859C6.12272 5.7819 6.74251 6.10775 7.14355 6.53613C7.54915 6.96452 7.75195 7.52279 7.75195 8.21094C7.75195 9.01758 7.48307 9.66699 6.94531 10.1592C6.41211 10.6514 5.66471 10.9362 4.70312 11.0137V11.9365ZM6.56934 8.30664C6.56934 7.85547 6.41895 7.49089 6.11816 7.21289C5.81738 6.9349 5.3457 6.72754 4.70312 6.59082V9.98145C5.29557 9.94954 5.75358 9.78776 6.07715 9.49609C6.40527 9.20443 6.56934 8.80794 6.56934 8.30664ZM2.13281 3.6377C2.13281 4.45801 2.68424 4.98438 3.78711 5.2168V2.07227C3.30859 2.09961 2.91211 2.26139 2.59766 2.55762C2.28776 2.84928 2.13281 3.20931 2.13281 3.6377ZM13.5997 11.9365H12.6837V11.0205C11.7585 10.9521 11.0157 10.6719 10.4552 10.1797C9.89917 9.6875 9.61889 9.06087 9.61434 8.2998H10.7833C10.8197 8.75553 11.0043 9.12923 11.337 9.4209C11.6697 9.71257 12.1186 9.89258 12.6837 9.96094V6.40625L12.1368 6.25586C11.4031 6.06445 10.838 5.75 10.4415 5.3125C10.0496 4.875 9.85359 4.33952 9.85359 3.70605C9.85359 2.95866 10.1065 2.3457 10.6124 1.86719C11.1182 1.38867 11.8087 1.10612 12.6837 1.01953V0.0625H13.5997V1.0127C14.4519 1.08561 15.1378 1.36589 15.6573 1.85352C16.1814 2.34115 16.4548 2.9541 16.4776 3.69238H15.3155C15.3018 3.26855 15.1378 2.90853 14.8233 2.6123C14.5134 2.31152 14.1055 2.13151 13.5997 2.07227V5.41504L14.1807 5.55859C15.0193 5.7819 15.6391 6.10775 16.0401 6.53613C16.4457 6.96452 16.6485 7.52279 16.6485 8.21094C16.6485 9.01758 16.3796 9.66699 15.8419 10.1592C15.3087 10.6514 14.5613 10.9362 13.5997 11.0137V11.9365ZM15.4659 8.30664C15.4659 7.85547 15.3155 7.49089 15.0147 7.21289C14.7139 6.9349 14.2423 6.72754 13.5997 6.59082V9.98145C14.1921 9.94954 14.6501 9.78776 14.9737 9.49609C15.3018 9.20443 15.4659 8.80794 15.4659 8.30664ZM11.0294 3.6377C11.0294 4.45801 11.5808 4.98438 12.6837 5.2168V2.07227C12.2052 2.09961 11.8087 2.26139 11.4942 2.55762C11.1843 2.84928 11.0294 3.20931 11.0294 3.6377Z" fill="#12C002"/>
<path d="M22.4963 11.9365H21.5802V11.0205C20.6551 10.9521 19.9123 10.6719 19.3517 10.1797C18.7957 9.6875 18.5155 9.06087 18.5109 8.2998H19.6798C19.7163 8.75553 19.9009 9.12923 20.2336 9.4209C20.5662 9.71257 21.0151 9.89258 21.5802 9.96094V6.40625L21.0334 6.25586C20.2996 6.06445 19.7345 5.75 19.338 5.3125C18.9461 4.875 18.7502 4.33952 18.7502 3.70605C18.7502 2.95866 19.0031 2.3457 19.5089 1.86719C20.0148 1.38867 20.7052 1.10612 21.5802 1.01953V0.0625H22.4963V1.0127C23.3485 1.08561 24.0343 1.36589 24.5539 1.85352C25.078 2.34115 25.3514 2.9541 25.3742 3.69238H24.2121C24.1984 3.26855 24.0343 2.90853 23.7199 2.6123C23.41 2.31152 23.0021 2.13151 22.4963 2.07227V5.41504L23.0773 5.55859C23.9158 5.7819 24.5356 6.10775 24.9367 6.53613C25.3423 6.96452 25.5451 7.52279 25.5451 8.21094C25.5451 9.01758 25.2762 9.66699 24.7384 10.1592C24.2052 10.6514 23.4578 10.9362 22.4963 11.0137V11.9365ZM24.3625 8.30664C24.3625 7.85547 24.2121 7.49089 23.9113 7.21289C23.6105 6.9349 23.1388 6.72754 22.4963 6.59082V9.98145C23.0887 9.94954 23.5467 9.78776 23.8703 9.49609C24.1984 9.20443 24.3625 8.80794 24.3625 8.30664ZM19.9259 3.6377C19.9259 4.45801 20.4774 4.98438 21.5802 5.2168V2.07227C21.1017 2.09961 20.7052 2.26139 20.3908 2.55762C20.0809 2.84928 19.9259 3.20931 19.9259 3.6377Z" fill="#1D1D1D" fill-opacity="0.3"/>
</svg>
