<svg width="30" height="28" viewBox="0 0 30 28" fill="none" xmlns="http://www.w3.org/2000/svg">
<path d="M7.60716 15.691C7.63233 15.7415 7.66313 15.7889 7.69895 15.8322L14.4604 22.781C14.5266 22.8477 14.605 22.9003 14.6911 22.9357C14.7771 22.9712 14.8692 22.9888 14.9619 22.9874C14.9833 22.9894 15.0043 23 15.0258 23C15.1212 23.0001 15.2157 22.9808 15.3039 22.9433C15.3921 22.9057 15.4722 22.8506 15.5396 22.7811L22.3011 15.8323C22.3314 15.7935 22.3571 15.7511 22.3778 15.7061L23.3862 14.6703C24.4198 13.6077 25.0003 12.1666 25 10.6641C24.9997 9.16165 24.4188 7.72081 23.3849 6.65857C22.351 5.59634 20.9488 4.99973 19.4869 5C18.025 5.00027 16.6231 5.59738 15.5896 6.65999L14.9999 7.26605L14.4086 6.6582C13.3745 5.59614 11.9722 4.99978 10.5102 5.00034C9.0483 5.00089 7.64644 5.5983 6.61307 6.66115C5.5797 7.724 4.99946 9.16522 5 10.6678C5.00054 12.1703 5.58181 13.6111 6.61594 14.6731L7.60716 15.691Z" fill="#F72055"/>
</svg>
