<svg width="24" height="12" viewBox="0 0 24 12" fill="none" xmlns="http://www.w3.org/2000/svg">
<path d="M5.625 6.375C5.14291 6.375 4.67164 6.51796 4.2708 6.78579C3.86995 7.05363 3.55753 7.43432 3.37304 7.87971C3.18856 8.32511 3.14029 8.81521 3.23434 9.28804C3.32839 9.76087 3.56054 10.1952 3.90143 10.5361C4.24232 10.877 4.67664 11.1091 5.14947 11.2032C5.62229 11.2972 6.11239 11.249 6.55779 11.0645C7.00318 10.88 7.38387 10.5676 7.6517 10.1667C7.91954 9.76587 8.06249 9.2946 8.06249 8.81251C8.06176 8.16626 7.80472 7.5467 7.34776 7.08974C6.8908 6.63278 6.27124 6.37573 5.625 6.375ZM5.625 9.93751C5.40249 9.93751 5.18499 9.87153 4.99998 9.74791C4.81498 9.6243 4.67078 9.44859 4.58563 9.24303C4.50049 9.03746 4.47821 8.81126 4.52162 8.59303C4.56502 8.3748 4.67217 8.17434 4.8295 8.01701C4.98684 7.85968 5.18729 7.75253 5.40552 7.70912C5.62375 7.66571 5.84995 7.68799 6.05552 7.77314C6.26108 7.85829 6.43678 8.00248 6.5604 8.18749C6.68402 8.3725 6.75 8.59 6.75 8.81251C6.75 9.11088 6.63147 9.39703 6.42049 9.608C6.20951 9.81898 5.92337 9.93751 5.625 9.93751Z" fill="white"/>
<path d="M19.125 6.375C18.6429 6.375 18.1716 6.51796 17.7708 6.78579C17.37 7.05363 17.0575 7.43432 16.873 7.87971C16.6886 8.32511 16.6403 8.81521 16.7343 9.28804C16.8284 9.76087 17.0605 10.1952 17.4014 10.5361C17.7423 10.877 18.1766 11.1091 18.6495 11.2032C19.1223 11.2972 19.6124 11.249 20.0578 11.0645C20.5032 10.88 20.8839 10.5676 21.1517 10.1667C21.4195 9.76587 21.5625 9.2946 21.5625 8.81251C21.5618 8.16626 21.3047 7.5467 20.8478 7.08974C20.3908 6.63278 19.7712 6.37573 19.125 6.375ZM19.125 9.93751C18.9025 9.93751 18.685 9.87153 18.5 9.74791C18.315 9.6243 18.1708 9.44859 18.0856 9.24303C18.0005 9.03746 17.9782 8.81126 18.0216 8.59303C18.065 8.3748 18.1722 8.17434 18.3295 8.01701C18.4868 7.85968 18.6873 7.75253 18.9055 7.70912C19.1237 7.66571 19.3499 7.68799 19.5555 7.77314C19.7611 7.85829 19.9368 8.00248 20.0604 8.18749C20.184 8.3725 20.25 8.59 20.25 8.81251C20.25 9.11088 20.1315 9.39703 19.9205 9.608C19.7095 9.81898 19.4234 9.93751 19.125 9.93751Z" fill="white"/>
<path d="M22.3781 4.36126L18 3.56251L14.2727 0.469928C13.9033 0.166489 13.4402 0.000428047 12.9622 5.75735e-06H7.47094C7.16149 -0.000727143 6.85589 0.0685217 6.57698 0.202572C6.29808 0.336622 6.05309 0.532003 5.86036 0.774099L3.47963 3.56251H1.875C1.4276 3.563 0.998666 3.74095 0.682305 4.05731C0.365945 4.37367 0.187996 4.80261 0.1875 5.25001V7.31251C0.188108 7.85933 0.405602 8.38358 0.792264 8.77024C1.17893 9.15691 1.70318 9.3744 2.25 9.37501H2.67867C2.59547 8.94107 2.60914 8.49411 2.71872 8.06607C2.8283 7.63803 3.03107 7.23947 3.31256 6.89889C3.59404 6.55831 3.94727 6.28412 4.34702 6.09589C4.74677 5.90767 5.18316 5.81007 5.625 5.81007C6.06684 5.81007 6.50323 5.90767 6.90298 6.09589C7.30273 6.28412 7.65596 6.55831 7.93744 6.89889C8.21893 7.23947 8.4217 7.63803 8.53128 8.06607C8.64086 8.49411 8.65453 8.94107 8.57133 9.37501H16.1787C16.0955 8.94107 16.1091 8.49411 16.2187 8.06607C16.3283 7.63803 16.5311 7.23947 16.8126 6.89889C17.094 6.55831 17.4473 6.28412 17.847 6.09589C18.2468 5.90767 18.6832 5.81007 19.125 5.81007C19.5668 5.81007 20.0032 5.90767 20.403 6.09589C20.8027 6.28412 21.156 6.55831 21.4374 6.89889C21.7189 7.23947 21.9217 7.63803 22.0313 8.06607C22.1409 8.49411 22.1545 8.94107 22.0713 9.37501H22.125C22.5724 9.37451 23.0013 9.19656 23.3177 8.8802C23.6341 8.56384 23.812 8.13491 23.8125 7.68751V6.02963C23.8145 5.62539 23.6705 5.23401 23.407 4.92748C23.1434 4.62095 22.7781 4.41988 22.3781 4.36126ZM8.4375 3.00001C8.4375 3.14919 8.37824 3.29226 8.27275 3.39775C8.16726 3.50324 8.02418 3.56251 7.875 3.56251H5.40211C5.34833 3.56254 5.29567 3.54715 5.25038 3.51817C5.20508 3.48918 5.16904 3.44782 5.14653 3.39898C5.12401 3.35014 5.11598 3.29588 5.12337 3.24261C5.13076 3.18934 5.15326 3.13931 5.18822 3.09844L6.82491 1.18126C6.87775 1.11948 6.94335 1.06989 7.0172 1.0359C7.09105 1.00191 7.17139 0.984335 7.25269 0.984381H7.875C8.02418 0.984381 8.16726 1.04364 8.27275 1.14913C8.37824 1.25462 8.4375 1.3977 8.4375 1.54688V3.00001ZM11.25 5.62501H10.5C10.3508 5.62501 10.2077 5.56574 10.1023 5.46025C9.99676 5.35476 9.9375 5.21169 9.9375 5.06251C9.9375 4.91332 9.99676 4.77025 10.1023 4.66476C10.2077 4.55927 10.3508 4.50001 10.5 4.50001H11.25C11.3992 4.50001 11.5423 4.55927 11.6477 4.66476C11.7532 4.77025 11.8125 4.91332 11.8125 5.06251C11.8125 5.21169 11.7532 5.35476 11.6477 5.46025C11.5423 5.56574 11.3992 5.62501 11.25 5.62501ZM15.6787 3.57629L10.3112 3.56382C10.1622 3.56347 10.0195 3.50405 9.91429 3.3986C9.80908 3.29315 9.75 3.15028 9.75 3.00132V1.54688C9.75 1.3977 9.80926 1.25462 9.91475 1.14913C10.0202 1.04364 10.1633 0.984381 10.3125 0.984381H13.0101C13.1365 0.984391 13.2592 1.02699 13.3585 1.10532L15.8535 3.07407C15.8995 3.11028 15.9331 3.15994 15.9495 3.21613C15.9659 3.27232 15.9644 3.33223 15.9452 3.38751C15.9259 3.44279 15.8899 3.49069 15.8421 3.52453C15.7944 3.55837 15.7372 3.57646 15.6787 3.57629Z" fill="white"/>
</svg>
