<svg width="11" height="14" viewBox="0 0 11 14" fill="none" xmlns="http://www.w3.org/2000/svg">
<path d="M5.50019 0C4.20047 0 2.95399 0.516309 2.03496 1.43535C1.11592 2.35438 0.599609 3.60086 0.599609 4.90058C0.599609 7.36487 4.47807 13.0565 4.92612 13.7006C4.99064 13.793 5.07652 13.8685 5.17647 13.9207C5.27641 13.9728 5.38747 14 5.50019 14C5.61291 14 5.72396 13.9728 5.82391 13.9207C5.92386 13.8685 6.00974 13.793 6.07426 13.7006C6.52231 13.0565 10.4008 7.36487 10.4008 4.90058C10.4008 3.60086 9.88446 2.35438 8.96542 1.43535C8.04638 0.516309 6.7999 0 5.50019 0ZM5.50019 12.0484C3.96001 9.68914 1.99977 6.25174 1.99977 4.90058C1.99977 3.97221 2.36857 3.08187 3.02502 2.42541C3.68148 1.76896 4.57182 1.40017 5.50019 1.40017C6.42856 1.40017 7.3189 1.76896 7.97535 2.42541C8.63181 3.08187 9.0006 3.97221 9.0006 4.90058C9.0006 6.25174 7.04037 9.68914 5.50019 12.0484ZM5.50019 2.80033C5.0848 2.80033 4.67874 2.92351 4.33335 3.15429C3.98797 3.38506 3.71877 3.71308 3.55981 4.09685C3.40085 4.48062 3.35926 4.90291 3.4403 5.31032C3.52133 5.71773 3.72136 6.09195 4.01509 6.38568C4.30881 6.6794 4.68304 6.87943 5.09045 6.96047C5.49786 7.04151 5.92015 6.99992 6.30392 6.84096C6.68769 6.68199 7.0157 6.4128 7.24648 6.06741C7.47726 5.72203 7.60044 5.31597 7.60044 4.90058C7.60044 4.34356 7.37916 3.80935 6.98529 3.41548C6.59142 3.02161 6.05721 2.80033 5.50019 2.80033ZM5.50019 5.60066C5.36173 5.60066 5.22637 5.5596 5.11124 5.48268C4.99612 5.40575 4.90638 5.29641 4.8534 5.16849C4.80041 5.04057 4.78654 4.8998 4.81356 4.764C4.84057 4.6282 4.90725 4.50345 5.00516 4.40555C5.10306 4.30764 5.22781 4.24096 5.36361 4.21395C5.49941 4.18694 5.64018 4.2008 5.7681 4.25379C5.89602 4.30677 6.00536 4.39651 6.08229 4.51163C6.15921 4.62676 6.20027 4.76212 6.20027 4.90058C6.20027 5.08625 6.12651 5.26432 5.99522 5.39561C5.86393 5.5269 5.68586 5.60066 5.50019 5.60066Z" fill="#1D1D1D"/>
</svg>
