<svg width="40" height="40" viewBox="0 0 40 40" fill="none" xmlns="http://www.w3.org/2000/svg">
<path d="M20.2192 39.9998C29.315 39.9998 36.6884 32.5223 36.6884 23.2998C36.6884 14.0748 29.315 6.59814 20.2192 6.59814C11.1233 6.59814 3.75 14.0756 3.75 23.299C3.75 32.5223 11.1242 39.9998 20.2192 39.9998Z" fill="#FFCD00"/>
<path d="M8.84089 6.58584C10.6342 6.58584 12.0876 5.11167 12.0876 3.29334C12.0876 1.47417 10.6342 0 8.84089 0C7.04755 0 5.59338 1.475 5.59338 3.29334C5.59338 5.11167 7.04755 6.58584 8.84089 6.58584Z" fill="#FFF1B8"/>
<path d="M22.2552 26.8549C21.7393 27.3124 21.0827 27.5466 20.2968 27.5466C19.2652 27.5466 18.4668 27.1683 17.9127 26.3974C17.3585 25.6391 17.0877 24.4891 17.0877 22.9474V22.4383C17.0877 20.9091 17.371 19.7716 17.9252 19.0274C18.4793 18.2824 19.2652 17.9033 20.2835 17.9033C21.0827 17.9033 21.7393 18.1649 22.2552 18.6874C22.771 19.2099 23.041 19.8899 23.0802 20.6999H26.0568C26.0052 19.0924 25.4635 17.7991 24.4068 16.8058C23.3502 15.8258 21.9977 15.3291 20.3218 15.3291C18.3502 15.3291 16.8043 15.9958 15.6577 17.2891C14.5102 18.5833 13.9435 20.3208 13.9435 22.4899V22.8166C13.9435 25.0908 14.5235 26.8674 15.6702 28.1616C16.8168 29.4549 18.376 30.0949 20.3352 30.0949C21.3198 30.1025 22.2919 29.8742 23.1702 29.4291C24.046 28.9849 24.7293 28.3833 25.2452 27.6124C25.7374 26.8743 26.0181 26.0155 26.0568 25.1291H23.0802C23.0702 25.4582 22.9917 25.7816 22.8496 26.0786C22.7076 26.3757 22.5051 26.6398 22.2552 26.8541V26.8549ZM14.6135 32.7091H25.8493V34.9833H14.6135V32.7083V32.7091Z" fill="white"/>
</svg>
