<svg width="24" height="24" viewBox="0 0 24 24" fill="none" xmlns="http://www.w3.org/2000/svg">
<path d="M19.5313 11.0252C19.1703 11.0252 18.8193 11.0685 18.4829 11.1497L16.7056 6.88428L18.2474 6.37039C18.6158 6.24758 18.8149 5.84938 18.6921 5.48099C18.5693 5.11264 18.1713 4.91338 17.8027 5.03633L15.4952 5.80747C15.1368 5.95686 14.9673 6.36847 15.1166 6.72692L15.5584 7.78719L9.39563 9.38947L8.76262 7.91272H9.74063C10.1289 7.91272 10.4438 7.59791 10.4438 7.2096C10.4438 6.82128 10.1289 6.50647 9.74063 6.50647H6.72811C6.3398 6.50647 6.02498 6.82128 6.02498 7.2096C6.02498 7.59791 6.3398 7.91272 6.72811 7.91272H7.23263L8.16881 10.0968L6.80606 11.6867C6.12563 11.2675 5.325 11.0252 4.46878 11.0252C2.0047 11.0252 0 13.0299 0 15.494C0 17.958 2.0047 19.9627 4.46873 19.9627C6.69361 19.9627 8.54372 18.3283 8.88197 16.1971H11.2468C11.4714 16.1971 11.6826 16.0897 11.8149 15.9082L16.3504 9.68811L17.1853 11.692C15.9123 12.4804 15.0624 13.8897 15.0624 15.4939C15.0624 17.958 17.067 19.9626 19.5311 19.9626C21.9952 19.9626 24 17.958 24 15.494C24 13.0299 21.9953 11.0252 19.5313 11.0252ZM4.46873 18.5565C2.78011 18.5565 1.40625 17.1826 1.40625 15.494C1.40625 13.8053 2.78011 12.4315 4.46873 12.4315C4.97508 12.4315 5.45269 12.5557 5.87386 12.7743L3.93488 15.0364C3.75614 15.2449 3.71517 15.5383 3.82992 15.7878C3.94467 16.0373 4.19414 16.1971 4.46873 16.1971H7.44881C7.13016 17.5478 5.91544 18.5565 4.46873 18.5565ZM5.99752 14.7908L8.7862 11.5373L10.1805 14.7908H5.99752ZM11.4065 14.0816L9.95592 10.6968L14.7913 9.43953L11.4065 14.0816ZM19.5313 18.5565C17.8426 18.5565 16.4688 17.1826 16.4688 15.494C16.4688 14.4754 16.9692 13.5718 17.7365 13.0148L18.8822 15.7644C19.0315 16.1229 19.4432 16.2924 19.8016 16.143C20.1601 15.9936 20.3296 15.582 20.1803 15.2236L19.034 12.4725C19.1959 12.4459 19.3619 12.4315 19.5312 12.4315C21.2199 12.4315 22.5937 13.8053 22.5937 15.494C22.5937 17.1826 21.2199 18.5565 19.5313 18.5565Z" fill="black"/>
</svg>
