<svg width="16" height="19" viewBox="0 0 16 19" fill="none" xmlns="http://www.w3.org/2000/svg">
<path d="M13 7.5C13.6771 7.5 14.263 7.7474 14.7578 8.24219C15.2526 8.73698 15.5 9.32292 15.5 10V11.2891C15.5 11.7318 15.3307 12.1224 14.9922 12.4609C14.6797 12.7734 14.3021 12.9297 13.8594 12.9297C13.4167 12.9297 13.0391 12.7734 12.7266 12.4609L10.9297 10.6641L9.13281 12.4609C8.82031 12.7734 8.42969 12.9297 7.96094 12.9297C7.51823 12.9297 7.14062 12.7734 6.82812 12.4609L5.07031 10.6641L3.27344 12.4609C2.96094 12.7734 2.58333 12.9297 2.14062 12.9297C1.69792 12.9297 1.30729 12.7734 0.96875 12.4609C0.65625 12.1224 0.5 11.7318 0.5 11.2891V10C0.5 9.32292 0.747396 8.73698 1.24219 8.24219C1.73698 7.7474 2.32292 7.5 3 7.5H7.17969V5.82031H8.82031V7.5H13ZM11.8281 13.3203C12.401 13.8932 13.0781 14.1797 13.8594 14.1797C14.4323 14.1797 14.9792 14.0104 15.5 13.6719V17.5C15.5 17.7344 15.4219 17.9297 15.2656 18.0859C15.1094 18.2422 14.9141 18.3203 14.6797 18.3203H1.32031C1.08594 18.3203 0.890625 18.2422 0.734375 18.0859C0.578125 17.9297 0.5 17.7344 0.5 17.5V13.6719C0.994792 14.0104 1.54167 14.1797 2.14062 14.1797C2.92188 14.1797 3.59896 13.8932 4.17188 13.3203L5.07031 12.4219L5.96875 13.3203C6.51562 13.8672 7.19271 14.1406 8 14.1406C8.80729 14.1406 9.48438 13.8672 10.0312 13.3203L10.9297 12.4219L11.8281 13.3203ZM8 5C7.55729 5 7.16667 4.83073 6.82812 4.49219C6.48958 4.15365 6.32031 3.76302 6.32031 3.32031C6.32031 3.03385 6.41146 2.7474 6.59375 2.46094L8 0L9.40625 2.46094C9.58854 2.7474 9.67969 3.03385 9.67969 3.32031C9.67969 3.76302 9.51042 4.15365 9.17188 4.49219C8.85938 4.83073 8.46875 5 8 5Z" fill="#999999"/>
</svg>
