<svg width="40" height="40" viewBox="0 0 40 40" fill="none" xmlns="http://www.w3.org/2000/svg">
<path d="M20 13.75C17.1005 13.75 14.75 16.492 14.75 19.875C14.75 23.2574 17.1005 26 20 26C22.8984 26 25.25 23.2585 25.25 19.875C25.25 16.492 22.8995 13.75 20 13.75ZM22.1875 22.9375C22.1875 23.1792 21.9917 23.375 21.75 23.375H18.25C18.0083 23.375 17.8125 23.1792 17.8125 22.9375V22.0625C17.8125 21.8208 18.0083 21.625 18.25 21.625H19.125V18.5931L19.0993 18.6101C19.0515 18.642 18.9979 18.6641 18.9416 18.6753C18.8852 18.6864 18.8272 18.6864 18.7709 18.6751C18.7146 18.6638 18.661 18.6416 18.6133 18.6096C18.5656 18.5776 18.5246 18.5365 18.4928 18.4887L18.0072 17.7608C17.9753 17.713 17.9531 17.6594 17.942 17.603C17.9308 17.5467 17.9309 17.4887 17.9422 17.4324C17.9534 17.376 17.9757 17.3225 18.0077 17.2748C18.0397 17.2271 18.0808 17.1861 18.1286 17.1543L18.967 16.5954C19.1825 16.4517 19.4358 16.375 19.6948 16.375H20.4375C20.6792 16.375 20.875 16.5708 20.875 16.8125V21.625H21.75C21.9917 21.625 22.1875 21.8208 22.1875 22.0625V22.9375ZM35.75 9.375H4.25C3.28367 9.375 2.5 10.1587 2.5 11.125V28.625C2.5 29.5913 3.28367 30.375 4.25 30.375H35.75C36.7163 30.375 37.5 29.5913 37.5 28.625V11.125C37.5 10.1587 36.7163 9.375 35.75 9.375ZM34.875 24.25C32.9418 24.25 31.375 25.8168 31.375 27.75H8.625C8.625 25.8168 7.0582 24.25 5.125 24.25V15.5C7.0582 15.5 8.625 13.9332 8.625 12H31.375C31.375 13.9332 32.9418 15.5 34.875 15.5V24.25Z" fill="#0AAD3B"/>
</svg>
