<?xml version="1.0" standalone="no"?>
<!DOCTYPE svg PUBLIC "-//W3C//DTD SVG 20010904//EN"
 "http://www.w3.org/TR/2001/REC-SVG-20010904/DTD/svg10.dtd">
<svg version="1.0" xmlns="http://www.w3.org/2000/svg"
 width="1241.000000pt" height="1242.000000pt" viewBox="0 0 1241.000000 1242.000000"
 preserveAspectRatio="xMidYMid meet">

<g transform="translate(0.000000,1242.000000) scale(0.100000,-0.100000)"
fill="#000000" stroke="none">
<path d="M7855 8989 c-249 -42 -387 -70 -525 -105 -136 -35 -382 -109 -470
-142 l-74 -27 -12 -76 c-6 -41 -19 -91 -29 -110 -16 -32 -142 -169 -156 -169
-3 0 -6 55 -5 123 l1 122 -28 3 c-19 2 -71 -19 -171 -71 -282 -147 -468 -278
-652 -462 -244 -243 -399 -523 -461 -832 -31 -156 -21 -504 17 -607 5 -15 24
10 90 120 226 380 431 636 791 990 408 402 797 697 1143 869 155 77 266 97
266 47 0 -24 -34 -55 -160 -142 -292 -203 -514 -375 -735 -569 -123 -108 -503
-482 -591 -582 -133 -151 -168 -192 -246 -289 -236 -293 -532 -733 -605 -899
-27 -62 -63 -201 -63 -247 0 -43 29 -76 65 -76 40 0 138 103 344 365 90 115
169 210 175 212 6 2 73 6 149 9 175 8 251 18 407 57 390 97 807 340 1126 655
106 105 203 247 190 280 -9 24 -59 39 -266 79 -107 20 -201 39 -208 41 -24 7
-3 22 86 57 129 52 217 67 387 67 l146 0 18 43 c10 23 38 93 62 156 l43 114
-22 18 c-34 27 -218 96 -318 119 -125 29 -125 28 -84 51 88 47 153 59 331 59
l169 0 10 24 c9 26 80 373 99 489 7 37 14 110 18 161 5 85 4 95 -13 103 -13 7
-83 -1 -239 -28z"/>
<path d="M5565 8555 c-565 -56 -838 -83 -950 -95 -49 -5 -124 -12 -165 -15
-101 -9 -156 -37 -188 -95 -27 -51 -27 -87 3 -395 8 -82 26 -271 40 -420 37
-389 63 -662 85 -885 11 -107 29 -294 40 -415 39 -427 84 -828 101 -905 23
-103 65 -125 219 -116 217 14 1677 154 2176 210 140 15 169 30 204 101 l22 45
-27 312 c-14 172 -30 349 -34 393 -29 280 -36 335 -40 335 -4 0 -58 -29 -121
-63 l-115 -63 3 -109 c1 -61 15 -238 31 -395 15 -157 25 -289 21 -293 -7 -8
-184 -26 -1205 -122 -269 -25 -580 -55 -689 -65 -110 -11 -201 -19 -202 -17
-2 1 -7 54 -13 117 -6 63 -17 185 -26 270 -18 186 -38 392 -65 675 -11 116
-27 275 -35 355 -8 80 -26 267 -40 415 -14 149 -32 335 -40 415 -8 80 -19 199
-25 265 -6 66 -13 134 -16 151 l-6 31 94 12 c51 6 278 29 503 51 609 59 583
56 624 84 20 14 102 74 184 134 81 60 157 117 170 125 21 15 20 16 -28 15 -27
0 -248 -20 -490 -43z"/>
<path d="M2930 3935 l0 -525 218 0 c304 0 386 21 475 119 54 60 70 104 71 196
1 92 -20 149 -73 203 -85 85 -182 112 -403 112 l-148 0 0 145 0 145 265 0 265
0 0 65 0 65 -335 0 -335 0 0 -525z m533 -58 c81 -48 109 -144 68 -233 -38 -84
-97 -104 -308 -104 l-153 0 0 186 0 186 173 -4 c168 -3 173 -4 220 -31z"/>
<path d="M6657 4454 c-4 -4 -7 -103 -7 -219 0 -243 9 -292 67 -356 65 -72 100
-84 243 -84 122 1 155 7 252 49 16 7 18 -8 20 -211 l3 -218 73 -3 72 -3 0 526
0 526 -72 -3 -73 -3 -3 -242 -2 -243 -39 -19 c-51 -27 -161 -45 -227 -38 -65
7 -108 31 -137 77 -20 32 -22 51 -27 250 l-5 215 -65 3 c-36 2 -69 0 -73 -4z"/>
<path d="M4804 4180 c-156 -51 -243 -211 -231 -425 7 -125 34 -194 106 -266
74 -73 131 -94 261 -93 81 0 103 4 150 25 118 55 181 147 201 295 22 153 -25
321 -108 394 -94 83 -252 112 -379 70z m221 -119 c78 -36 125 -119 133 -236 9
-138 -38 -254 -117 -295 -82 -41 -209 -22 -268 42 -48 51 -67 116 -67 223 1
113 22 181 74 230 57 54 170 71 245 36z"/>
<path d="M5633 4181 c-97 -33 -169 -110 -180 -190 l-6 -41 65 0 c64 0 66 1 71
29 8 38 54 91 94 107 42 18 115 18 157 0 45 -19 66 -52 66 -102 0 -35 -5 -47
-30 -68 -17 -14 -48 -30 -68 -35 -278 -72 -315 -89 -352 -165 -18 -38 -21 -59
-18 -116 3 -58 8 -75 34 -107 17 -21 56 -51 89 -68 53 -27 69 -30 155 -29 126
0 192 20 259 80 39 35 54 58 66 97 26 86 25 87 -55 87 l-70 0 0 -30 c0 -33
-46 -93 -89 -114 -74 -38 -183 -25 -226 26 -46 54 -28 141 37 174 15 8 91 30
168 48 191 46 233 80 247 196 12 100 -54 193 -158 224 -71 21 -191 20 -256 -3z"/>
<path d="M7782 4181 c-97 -33 -166 -114 -174 -201 l-3 -35 63 -3 c59 -3 62 -2
62 20 0 40 38 88 87 110 60 27 169 23 210 -8 65 -48 60 -144 -8 -176 -19 -9
-92 -25 -164 -37 -168 -28 -187 -34 -229 -81 -87 -96 -70 -266 32 -331 112
-71 286 -55 384 35 l37 34 11 -33 c6 -18 20 -41 30 -50 24 -22 105 -31 143
-16 24 9 27 16 27 56 0 43 -1 45 -29 45 -16 0 -33 6 -39 13 -6 7 -12 107 -14
257 -3 225 -5 249 -24 291 -26 55 -75 95 -140 115 -67 20 -197 17 -262 -5z
m288 -464 c0 -63 -4 -79 -29 -119 -60 -95 -240 -129 -311 -58 -29 29 -36 87
-16 125 26 48 79 72 205 94 62 11 116 22 119 25 3 4 11 6 19 6 10 0 13 -19 13
-73z"/>
<path d="M8682 4177 c-19 -6 -56 -30 -83 -55 l-49 -44 0 46 0 46 -65 0 -65 0
2 -377 3 -378 63 -3 62 -3 0 243 c0 134 5 259 10 279 26 92 89 142 179 142 64
0 94 -12 119 -50 15 -24 18 -63 22 -318 l5 -290 62 -3 61 -3 4 263 c3 278 6
294 57 352 40 46 154 66 209 37 54 -29 57 -42 62 -356 l5 -290 63 -3 62 -3 0
300 c0 279 -1 304 -21 356 -32 87 -98 125 -214 125 -81 0 -144 -22 -200 -72
l-46 -41 -37 38 c-20 21 -55 46 -77 56 -45 21 -139 24 -193 6z"/>
<path d="M4045 4153 c-47 -123 -265 -723 -265 -732 0 -8 19 -11 67 -9 l67 3
100 292 c55 161 103 289 107 285 4 -4 28 -72 54 -152 26 -80 70 -209 97 -287
l50 -143 67 0 c37 0 70 2 73 5 3 3 -57 173 -132 378 l-137 372 -71 3 c-59 2
-71 0 -77 -15z"/>
<path d="M6190 3800 l0 -60 175 0 176 0 -3 58 -3 57 -172 3 -173 2 0 -60z"/>
</g>
</svg>
