<svg id="Layer_1" enable-background="new 0 0 256 256" height="512" viewBox="0 0 256 256" width="512" xmlns="http://www.w3.org/2000/svg"><path d="m72.592 165.385v86.615h47.088l8.32-54.257 8.32 54.257h47.088v-86.615z" fill="#526faa"/><path d="m213.213 15.657h-170.427v37.448h29.806v101.308h110.816v-101.308h29.805z" fill="#f4efed"/><path d="m173.408 154.413h10v-101.308h-5c-2.761 0-5 2.239-5 5z" fill="#d6d1cf"/><path d="m203.213 15.657h10v37.448h-10z" fill="#d6d1cf"/><path d="m82.592 154.413h-10v-101.308h5c2.761 0 5 2.239 5 5z" fill="#fff"/><path d="m42.786 15.657h10v37.448h-10z" fill="#fff"/><path d="m183.408 156.413h-110.816c-1.104 0-2-.896-2-2v-99.308h-27.805c-1.104 0-2-.896-2-2v-37.448c0-1.104.896-2 2-2h170.427c1.104 0 2 .896 2 2v37.448c0 1.104-.896 2-2 2h-27.806v99.308c0 1.105-.896 2-2 2zm-108.816-4h106.815v-99.308c0-1.104.896-2 2-2h27.806v-33.448h-166.426v33.448h27.806c1.104 0 2 .896 2 2v99.308z" fill="#690589"/><path d="m80.592 75.844c-1.104 0-2-.896-2-2v-12c0-1.104.896-2 2-2s2 .896 2 2v12c0 1.104-.895 2-2 2z" fill="#690589"/><path d="m128 21.218-12.499 81.514 12.499 16.936 12.499-16.936z" fill="#526faa"/><path d="m128 121.668c-.635 0-1.232-.301-1.609-.812l-12.5-16.936c-.316-.428-.448-.964-.368-1.491l12.5-81.515c.15-.976.99-1.697 1.977-1.697s1.827.721 1.977 1.697l12.5 81.515c.081.526-.052 1.062-.368 1.491l-12.5 16.936c-.377.511-.974.812-1.609.812zm-10.396-19.455 10.396 14.087 10.396-14.086-10.396-67.801z" fill="#690589"/><path d="m173.408 165.385h10v86.615h-10z" fill="#34518c"/><path d="m72.592 165.385h10v86.615h-10z" fill="#708dc8"/><g fill="#690589"><path d="m171.457 81.425h-23.107c-1.104 0-2-.896-2-2v-26.32c0-1.104.896-2 2-2h23.107c1.104 0 2 .896 2 2v26.32c0 1.105-.895 2-2 2zm-21.107-4h19.107v-22.32h-19.107z"/><path d="m128 156.413c-1.104 0-2-.896-2-2v-34.745c0-1.104.896-2 2-2s2 .896 2 2v34.745c0 1.105-.896 2-2 2z"/><path d="m183.408 254h-47.088c-.987 0-1.827-.721-1.977-1.697l-6.343-41.365-6.343 41.365c-.15.976-.99 1.697-1.977 1.697h-47.088c-1.104 0-2-.896-2-2v-86.615c0-1.104.896-2 2-2h110.815c1.104 0 2 .896 2 2v86.615c.001 1.104-.895 2-1.999 2zm-45.371-4h43.371v-82.615h-106.816v82.615h43.371l8.06-52.56c.15-.976.99-1.697 1.977-1.697s1.827.721 1.977 1.697z"/><path d="m128 199.743c-1.104 0-2-.896-2-2v-21.927c0-1.104.896-2 2-2s2 .896 2 2v21.927c0 1.105-.896 2-2 2z"/><path d="m183.408 177.816h-110.816c-1.104 0-2-.896-2-2s.896-2 2-2h110.815c1.104 0 2 .896 2 2s-.895 2-1.999 2z"/></g><path d="m128 15.657-30.923-11.657-7.764 11.657 21.489 20.336z" fill="#f4efed"/><path d="m128 15.657 30.922-11.657 7.765 11.657-21.489 20.336z" fill="#f4efed"/><path d="m128 15.657-12.499 14.78 12.499 12.125 12.499-12.125z" fill="#526faa"/><path d="m110.802 37.993c-.51 0-1.002-.195-1.375-.547l-21.489-20.336c-.708-.669-.83-1.751-.29-2.562l7.765-11.657c.516-.775 1.498-1.09 2.37-.763l30.922 11.657c.608.229 1.067.74 1.23 1.369.164.629.011 1.298-.409 1.794l-17.198 20.335c-.355.42-.867.675-1.416.706-.037.003-.074.004-.11.004zm-18.89-22.63 18.728 17.723 14.003-16.557-26.783-10.096z" fill="#690589"/><path d="m145.198 37.993c-.037 0-.074-.001-.111-.003-.549-.031-1.061-.286-1.416-.706l-17.198-20.335c-.42-.496-.572-1.166-.409-1.794.163-.629.622-1.139 1.23-1.369l30.922-11.657c.872-.328 1.854-.012 2.37.763l7.765 11.657c.54.811.417 1.892-.29 2.562l-21.489 20.335c-.371.352-.864.547-1.374.547zm-13.841-21.464 14.003 16.557 18.728-17.723-5.948-8.931z" fill="#690589"/><path d="m128 44.562c-.502 0-1.004-.188-1.393-.564l-12.5-12.125c-.755-.732-.813-1.924-.134-2.727l12.5-14.779c.76-.898 2.294-.898 3.054 0l12.5 14.779c.679.803.621 1.995-.134 2.727l-12.5 12.125c-.389.376-.891.564-1.393.564zm-9.766-14.26 9.766 9.473 9.766-9.474-9.766-11.547z" fill="#690589"/></svg>