<svg width="20" height="23" viewBox="0 0 20 23" fill="none" xmlns="http://www.w3.org/2000/svg">
<path d="M0 4.83099V16.9437C0 18.7746 1.72839 18.7746 1.72839 18.7746H6.80776L13.76 22.6302C13.9983 22.7623 14.2751 22.5341 14.1908 22.275L13.0511 18.7746H18.2716C20 18.7746 20 16.9437 20 16.9437V4.83099C20 3 18.2716 3 18.2716 3H1.76367C0 3 0 4.83099 0 4.83099ZM4.3739 10.7817C4.58554 10.6761 4.86773 10.7465 5.00882 10.9577C5.99647 12.8239 8.00705 13.9859 10.1587 13.9859C12.3457 13.9859 14.3563 12.8239 15.3439 10.9225C15.4497 10.7113 15.7319 10.6056 15.9788 10.7465C16.1905 10.8521 16.2963 11.1338 16.1552 11.3803C14.9912 13.5634 12.6984 14.9366 10.1587 14.9366C7.61905 14.9366 5.32628 13.5986 4.16226 11.4155C4.05644 11.2042 4.16226 10.9225 4.3739 10.7817Z" fill="#F72055"/>
</svg>
