<svg width="16" height="16" viewBox="0 0 16 16" fill="none" xmlns="http://www.w3.org/2000/svg">
<path fill-rule="evenodd" clip-rule="evenodd" d="M7.99967 14.6667C11.6816 14.6667 14.6663 11.6819 14.6663 8C14.6663 4.3181 11.6816 1.33333 7.99967 1.33333C4.31778 1.33333 1.33301 4.3181 1.33301 8C1.33301 11.6819 4.31778 14.6667 7.99967 14.6667ZM7.99967 12.7619C10.6296 12.7619 12.7616 10.6299 12.7616 8C12.7616 5.37007 10.6296 3.23809 7.99967 3.23809C5.36975 3.23809 3.23777 5.37007 3.23777 8C3.23777 10.6299 5.36975 12.7619 7.99967 12.7619ZM10.8568 8C10.8568 9.57795 9.57763 10.8571 7.99967 10.8571C6.42172 10.8571 5.14253 9.57795 5.14253 8C5.14253 6.42204 6.42172 5.14285 7.99967 5.14285C9.57763 5.14285 10.8568 6.42204 10.8568 8Z" fill="#D1D1D6"/>
</svg>
