<svg width="22" height="20" viewBox="0 0 22 20" fill="none" xmlns="http://www.w3.org/2000/svg">
<path d="M16.0259 0.0976562C15.9571 0.0351562 15.8638 0 15.7666 0H2.56662C2.36413 0 2.19995 0.149251 2.19995 0.333333V19.6667C2.19995 19.8507 2.36413 20 2.56662 20H19.4333C19.6358 20 19.7999 19.8507 19.7999 19.6667V3.66667C19.7999 3.57829 19.7613 3.49349 19.6925 3.43099L16.0259 0.0976562ZM16.1333 1.13802L18.5481 3.33333H16.1333V1.13802ZM2.93328 19.3333V0.666667H15.4V3.66667C15.4 3.85075 15.5641 4 15.7666 4H19.0666V19.3333H2.93328Z" fill="#5B6274"/>
<path d="M7.69995 4.66675H11V5.33342H7.69995V4.66675Z" fill="#5B6274"/>
<path d="M7.69995 7.33325H12.1V7.99992H7.69995V7.33325Z" fill="#5B6274"/>
<path d="M7.69995 10.6667H12.1V11.3334H7.69995V10.6667Z" fill="#5B6274"/>
<path d="M7.69995 12H10.6333V12.6667H7.69995V12Z" fill="#5B6274"/>
<path d="M7.69995 14H11.3666V14.6667H7.69995V14Z" fill="#5B6274"/>
<path d="M7.69995 16.6667H10.6333V17.3334H7.69995V16.6667Z" fill="#5B6274"/>
<path d="M6.34084 4.7644L5.25802 5.74878L4.68171 5.11971L4.11846 5.54712L4.73739 6.22209L3.77417 7.09774L4.29266 7.56909L5.20861 6.73641L5.95179 7.54712L6.51504 7.11971L5.72961 6.26278L6.85933 5.23576L6.34084 4.7644Z" fill="#5B6274"/>
<path d="M5.20861 11.4029L5.95179 12.2136L6.51504 11.7862L5.72961 10.9293L6.85933 9.90226L6.34084 9.43091L5.25802 10.4153L4.68171 9.78621L4.11846 10.2136L4.73739 10.8886L3.77417 11.7642L4.29266 12.2356L5.20861 11.4029Z" fill="#5B6274"/>
<path d="M5.00645 16.1889L4.2366 15.7222L3.82947 16.2769L5.27537 17.1529L5.46121 16.8152C5.87389 16.0857 6.45719 15.4469 7.16993 14.9436L6.7628 14.3889C6.04612 14.8713 5.44778 15.4845 5.00645 16.1889Z" fill="#5B6274"/>
<path d="M14.6667 1.33325H3.66675V3.99992H14.6667V1.33325ZM13.9334 3.33325H4.40008V1.99992H13.9334V3.33325Z" fill="#5B6274"/>
</svg>
