<svg width="24" height="24" viewBox="0 0 24 24" fill="none" xmlns="http://www.w3.org/2000/svg">
<g clip-path="url(#clip0)">
<path d="M12 10C14.2091 10 16 8.20914 16 6C16 3.79086 14.2091 2 12 2C9.79086 2 8 3.79086 8 6C8 8.20914 9.79086 10 12 10Z" fill="white"/>
<path d="M15.25 12H8.75C6.131 12 4 14.131 4 16.75V19.25C4 19.664 4.336 20 4.75 20H19.25C19.664 20 20 19.664 20 19.25V16.75C20 14.131 17.869 12 15.25 12Z" fill="white"/>
<path d="M5 0H3C1.346 0 0 1.346 0 3V5C0 5.553 0.448 6 1 6C1.552 6 2 5.553 2 5V3C2 2.448 2.449 2 3 2H5C5.552 2 6 1.553 6 1C6 0.447 5.552 0 5 0Z" fill="white"/>
<path d="M5 22H3C2.449 22 2 21.552 2 21V19C2 18.447 1.552 18 1 18C0.448 18 0 18.447 0 19V21C0 22.654 1.346 24 3 24H5C5.552 24 6 23.553 6 23C6 22.447 5.552 22 5 22Z" fill="white"/>
<path d="M21 0H19C18.448 0 18 0.447 18 1C18 1.553 18.448 2 19 2H21C21.551 2 22 2.448 22 3V5C22 5.553 22.448 6 23 6C23.552 6 24 5.553 24 5V3C24 1.346 22.654 0 21 0Z" fill="white"/>
<path d="M23 18C22.448 18 22 18.447 22 19V21C22 21.552 21.551 22 21 22H19C18.448 22 18 22.447 18 23C18 23.553 18.448 24 19 24H21C22.654 24 24 22.654 24 21V19C24 18.447 23.552 18 23 18Z" fill="white"/>
</g>
<defs>
<clipPath id="clip0">
<rect width="24" height="24" fill="white"/>
</clipPath>
</defs>
</svg>
