<svg width="24" height="24" viewBox="0 0 24 24" fill="none" xmlns="http://www.w3.org/2000/svg">
<g clip-path="url(#clip0)">
<path d="M15.4948 4.83334H1.66667C0.746528 4.83443 0.00108507 5.57987 0 6.50001V17.4679C0.00108507 18.388 0.746528 19.1335 1.66667 19.1346H15.4948C16.4147 19.1335 17.1604 18.388 17.1615 17.4679V6.50001C17.1604 5.57987 16.4147 4.83443 15.4948 4.83334Z" fill="#00BDD0"/>
<path d="M18.2729 13.6733C18.2729 14.0391 18.4727 14.3757 18.7938 14.551L22.5212 16.5861C23.1876 16.9499 24.0004 16.4676 24.0004 15.7084V8.29531C24.0004 7.53608 23.1876 7.05378 22.5212 7.4176L18.7938 9.45263C18.4727 9.62792 18.2729 9.96453 18.2729 10.3303V13.6733Z" fill="#00BDD0"/>
</g>
<defs>
<clipPath id="clip0">
<rect width="24" height="24" fill="white"/>
</clipPath>
</defs>
</svg>
