<svg id="Line" height="512" viewBox="0 0 64 64" width="512" xmlns="http://www.w3.org/2000/svg"><path d="m60 21h-44a3 3 0 0 0 -3 3v28a3 3 0 0 0 3 3h13.171a1 1 0 0 1 .708.293l7.414 7.414a1 1 0 0 0 1.414 0l7.414-7.414a1 1 0 0 1 .708-.293h13.171a3 3 0 0 0 3-3v-28a3 3 0 0 0 -3-3zm-27 5a5 5 0 1 1 -5 5 5.006 5.006 0 0 1 5-5zm9 21a3 3 0 0 1 -3 3h-12a3 3 0 0 1 -3-3v-6a3 3 0 0 1 3-3h1.444a3.03 3.03 0 0 1 1.26.284 7.986 7.986 0 0 0 6.593 0 3.022 3.022 0 0 1 1.259-.284h1.444a3 3 0 0 1 3 3zm7-2a1 1 0 0 1 -2 0v-13h-2a1 1 0 0 1 0-2h3a1 1 0 0 1 1 1z" fill="#c4a2fc"/><g fill="#151a6a"><path d="m15 23a9 9 0 1 0 -9-9 9.011 9.011 0 0 0 9 9zm0-16a7 7 0 1 1 -7 7 7.008 7.008 0 0 1 7-7z"/><path d="m37 19a9 9 0 1 0 -9-9 9.011 9.011 0 0 0 9 9zm0-16a7 7 0 1 1 -7 7 7.008 7.008 0 0 1 7-7z"/><path d="m48 21h-5.632a2.96 2.96 0 0 0 -1.066.2 12.059 12.059 0 0 1 -8.6 0 2.96 2.96 0 0 0 -1.066-.2h-5.636a3 3 0 0 0 -3 3v1h-2.632a2.96 2.96 0 0 0 -1.066.2 12.059 12.059 0 0 1 -8.6 0 2.96 2.96 0 0 0 -1.07-.2h-5.632a3 3 0 0 0 -3 3v14a3 3 0 0 0 3 3h22a3 3 0 0 0 3-3v-1h19a3 3 0 0 0 3-3v-14a3 3 0 0 0 -3-3zm-22 22h-22a1 1 0 0 1 -1-1v-14a1 1 0 0 1 1-1h5.632a.974.974 0 0 1 .348.069 14.064 14.064 0 0 0 10.039 0 .964.964 0 0 1 .349-.07h5.632a1 1 0 0 1 1 1v14.001a1 1 0 0 1 -1 1zm23-5a1 1 0 0 1 -1 1h-19v-11a3 3 0 0 0 -3-3h-1v-1a1 1 0 0 1 1-1h5.632a.974.974 0 0 1 .348.069 14.064 14.064 0 0 0 10.039 0 .964.964 0 0 1 .349-.07h5.632a1 1 0 0 1 1 1z"/></g></svg>