<svg width="29" height="31" viewBox="0 0 29 31" fill="none" xmlns="http://www.w3.org/2000/svg">
<path d="M24 20.7859C23.9994 21.2983 23.7959 21.7896 23.4342 22.152C23.0724 22.5143 22.5819 22.7181 22.0703 22.7187H6.92969C6.50202 22.7191 6.08636 22.577 5.74813 22.3149C5.40989 22.0527 5.16827 21.6854 5.0613 21.2706C4.95432 20.8558 4.98805 20.4172 5.15718 20.0238C5.32632 19.6303 5.62125 19.3044 5.99558 19.0972C6.78686 18.6468 7.44499 17.9946 7.90304 17.2069C8.3611 16.4192 8.60276 15.524 8.60346 14.6124V13.5312C8.61076 11.9866 9.21902 10.5056 10.299 9.40291C11.379 8.30025 12.8457 7.66279 14.3874 7.62595C15.1602 7.6145 15.9274 7.75808 16.6439 8.04821C17.3603 8.33834 18.0116 8.76916 18.5593 9.3153C19.1379 9.88485 19.5982 10.5636 19.9136 11.3122C20.2289 12.0609 20.393 12.8648 20.3966 13.6774V14.6125C20.3973 15.5241 20.6389 16.4193 21.097 17.207C21.555 17.9947 22.2132 18.6469 23.0044 19.0973C23.3044 19.2657 23.5545 19.5107 23.7294 19.8072C23.9042 20.1038 23.9976 20.4415 24 20.7859ZM11.0341 23.375C11.2478 24.1308 11.7019 24.7961 12.3274 25.2699C12.953 25.7436 13.7158 26 14.5 26C15.2842 26 16.047 25.7436 16.6726 25.2699C17.2981 24.7961 17.7522 24.1308 17.9659 23.375H11.0341ZM14.5 5C13.7672 5.00138 13.0611 5.27546 12.5187 5.76903C11.9763 6.26259 11.6363 6.94043 11.5648 7.67093C12.4366 7.22675 13.3976 6.98665 14.3755 6.96875H14.4967C15.52 6.96819 16.5283 7.21588 17.4352 7.69062C17.3693 6.95616 17.0317 6.2729 16.4886 5.77505C15.9455 5.2772 15.2362 5.00075 14.5 5V5Z" fill="#F72055"/>
</svg>
