<svg width="196" height="190" viewBox="0 0 196 190" fill="none" xmlns="http://www.w3.org/2000/svg">
<path d="M190 95C190 147.467 147.467 190 95 190C42.5329 190 0 147.467 0 95C0 42.5329 42.5329 0 95 0C147.467 0 190 42.5329 190 95Z" fill="#42C075"/>
<path d="M91.1935 147.128L42.6853 92.5496C40.6059 90.2014 43.69 86.8806 46.188 88.7425L91.3888 122.368C92.3797 123.104 93.7333 123.048 94.6683 122.242L191.643 37.6797C194.127 35.5121 197.518 39.0135 195.257 41.4034L95.0311 147.183C93.9845 148.295 92.1982 148.267 91.1935 147.128Z" fill="white"/>
</svg>
