<svg width="250" height="41" viewBox="0 0 250 41" fill="none" xmlns="http://www.w3.org/2000/svg">
<path d="M12.0149 15.6533H18.4203C24.295 15.6533 28.6916 16.6767 31.5343 18.7613C34.3769 20.8459 35.8172 24.0675 35.8172 28.4641C35.8172 32.0648 34.5285 34.7937 31.9133 36.6888C29.2981 38.5839 25.5458 39.5314 20.6944 39.5314H0V0.682129H32.7471V8.5657H12.0149V15.6533ZM12.0149 31.1931H18.1549C21.9072 31.1931 23.8023 29.8286 23.8023 27.0997C23.8023 24.7118 21.9072 23.499 18.1549 23.499H12.0149V31.1931Z" fill="#F78D1E"/>
<path d="M79.4429 0.682129V39.5693H68.1481V18.1927L53.5939 39.5693H42.2612V0.682129H53.5939V22.2103L68.2239 0.682129H79.4429Z" fill="#F78D1E"/>
<path d="M87.439 0.682129H107.413C111.772 0.682129 115.031 1.70548 117.192 3.79007C119.352 5.87467 120.451 8.79311 120.451 12.6212C120.451 16.563 119.276 19.633 116.927 21.8313C114.577 24.0296 110.976 25.1667 106.125 25.1667H99.5296V39.6072H87.439V0.682129ZM99.5296 17.2452H102.486C104.798 17.2452 106.428 16.8283 107.375 16.0323C108.323 15.2364 108.778 14.2131 108.778 12.9244C108.778 11.7115 108.361 10.6503 107.565 9.81645C106.769 8.98261 105.215 8.52779 102.979 8.52779H99.5675V17.2452H99.5296Z" fill="#F78D1E"/>
<path d="M138.796 15.6533H145.201C151.076 15.6533 155.473 16.6767 158.315 18.7613C161.158 20.8459 162.598 24.0675 162.598 28.4641C162.598 32.0648 161.309 34.7937 158.694 36.6888C156.079 38.5839 152.327 39.5314 147.475 39.5314H126.819V0.682129H159.566V8.5657H138.834V15.6533H138.796ZM138.796 31.1931H144.936C148.688 31.1931 150.583 29.8286 150.583 27.0997C150.583 24.7118 148.688 23.499 144.936 23.499H138.796V31.1931Z" fill="#F78D1E"/>
<path d="M167.487 20.1258C167.487 13.7583 169.269 8.83111 172.794 5.30625C176.318 1.78138 181.246 0 187.575 0C194.056 0 199.022 1.74348 202.546 5.23044C206.033 8.71741 207.815 13.5688 207.815 19.8226C207.815 24.3708 207.057 28.0852 205.503 31.0037C203.987 33.9221 201.75 36.1962 198.87 37.7881C195.989 39.4178 192.389 40.2138 188.068 40.2138C183.671 40.2138 180.033 39.5315 177.19 38.1292C174.31 36.7268 171.998 34.5285 170.216 31.4964C168.397 28.4642 167.487 24.6741 167.487 20.1258ZM179.502 20.2016C179.502 24.1434 180.222 26.9482 181.7 28.6537C183.179 30.3593 185.15 31.2311 187.651 31.2311C190.228 31.2311 192.237 30.3972 193.64 28.7295C195.042 27.0619 195.762 24.0297 195.762 19.671C195.762 15.9945 195.042 13.3414 193.564 11.6358C192.086 9.93027 190.077 9.09642 187.537 9.09642C185.112 9.09642 183.179 9.96817 181.7 11.6738C180.222 13.3793 179.502 16.222 179.502 20.2016Z" fill="#F78D1E"/>
<path d="M250 39.5695H237.985V10.2336H228.586V22.2105C228.586 27.1377 228.32 30.7384 227.79 33.0504C227.259 35.3624 226.046 37.068 224.113 38.1293C222.18 39.1905 219.11 39.759 214.827 39.759C213.501 39.759 212.022 39.6074 210.317 39.3421V31.4585H212.136C213.766 31.4585 214.903 31.1174 215.585 30.3973C216.267 29.6772 216.609 28.3506 216.609 26.4555V0.720215H250V39.5695Z" fill="#F78D1E"/>
</svg>
