<svg width="22" height="22" viewBox="0 0 22 22" fill="none" xmlns="http://www.w3.org/2000/svg">
<path d="M11 5.56207L10.1897 4.44159C9.82871 3.94244 9.42597 3.52408 8.99061 3.18741L8.99056 3.18737C8.1384 2.52831 7.18965 2.20312 6.14571 2.20312C4.72255 2.20312 3.4275 2.76917 2.48039 3.79635L11 5.56207ZM11 5.56207L11.8103 4.44164M11 5.56207L11.8103 4.44164M11.8103 4.44164C12.1715 3.94226 12.5741 3.52402 13.0093 3.18732C13.8617 2.52827 14.8104 2.20312 15.8543 2.20312C17.2774 2.20312 18.5724 2.76916 19.5195 3.79641C20.4589 4.81543 21 6.23404 21 7.81461C21 9.38813 20.4269 10.8731 19.0482 12.5365L19.0482 12.5365C17.7839 14.0622 15.9465 15.6322 13.7078 17.5399L13.7077 17.5399L13.6874 17.5573C12.9357 18.198 12.0801 18.9273 11.1918 19.7041L11.1913 19.7045C11.1391 19.7503 11.0712 19.7761 11 19.7761C10.9289 19.7761 10.8611 19.7504 10.8084 19.7042L10.8077 19.7036C9.9128 18.9212 9.0515 18.1871 8.29593 17.5431L8.29274 17.5404L8.29268 17.5404M11.8103 4.44164L8.29268 17.5404M8.29268 17.5404C6.05369 15.6324 4.21625 14.0622 2.95195 12.5367C1.57323 10.873 1 9.38805 1 7.81477C1 6.23407 1.54104 4.81547 2.4803 3.79644L8.29268 17.5404Z" stroke="#828282" stroke-width="2"/>
</svg>
