<svg width="20" height="20" viewBox="0 0 20 20" fill="none" xmlns="http://www.w3.org/2000/svg">
<path d="M1.66675 8.48625C1.66675 7.5327 2.12006 6.63593 2.8879 6.07053L10.0001 0.833374L17.1123 6.07052C17.8801 6.63593 18.3334 7.53269 18.3334 8.48624V16.6667C18.3334 18.0474 17.2141 19.1667 15.8334 19.1667H13.5001C12.9478 19.1667 12.5001 18.719 12.5001 18.1667V13.4167C12.5001 13.1406 12.2762 12.9167 12.0001 12.9167H8.00008C7.72394 12.9167 7.50008 13.1406 7.50008 13.4167V18.1667C7.50008 18.719 7.05237 19.1667 6.50008 19.1667H4.16675C2.78604 19.1667 1.66675 18.0474 1.66675 16.6667V8.48625Z" stroke="#585858" stroke-width="1.5" stroke-linecap="round" stroke-linejoin="round"/>
</svg>
