<?xml version="1.0" encoding="utf-8"?>
<!-- Svg Vector Icons : http://www.onlinewebfonts.com/icon -->
<!DOCTYPE svg PUBLIC "-//W3C//DTD SVG 1.1//EN" "http://www.w3.org/Graphics/SVG/1.1/DTD/svg11.dtd">
<svg version="1.1" xmlns="http://www.w3.org/2000/svg" xmlns:xlink="http://www.w3.org/1999/xlink" x="0px" y="0px" viewBox="0 0 1000 1000" enable-background="new 0 0 1000 1000" xml:space="preserve">
<metadata> Svg Vector Icons : http://www.onlinewebfonts.com/icon </metadata>
<g><g transform="translate(0.000000,512.000000) scale(0.100000,-0.100000)"><path d="M4562.4,5003.7c-1186.9-134-1981.4-748.5-2027.3-1565.9l-9.6-178l-88.1-38.3c-172.3-74.7-532.2-243.1-834.7-390.5c-268-132.1-321.6-166.5-432.6-275.7c-143.6-143.6-247-329.3-281.4-507.3C861.9,1915.8,100-4497.3,100-4587.2c0-42.1,19.1-78.5,65.1-124.4l65.1-65.1h765.7c451.8,0,786.8,7.7,815.5,19.1c97.6,36.4,112.9,90,212.5,834.6l95.7,706.4l9.6-511.1l9.6-511.1l55.5-57.4c128.3-134,792.5-312,1504.7-402c859.5-109.1,2010.1-97.6,2814.1,26.8c649,101.4,1225.2,275.7,1309.4,394.3c26.8,38.3,30.6,114.9,32.5,582c0,294.8,3.8,528.4,7.7,516.9c5.7-9.6,51.7-340.8,105.3-735.1c53.6-394.4,105.3-731.3,114.9-750.4c11.5-19.1,42.1-51.7,68.9-72.8c49.8-38.3,70.8-40.2,834.7-40.2h784.9l67,67c65.1,65.1,67,72.7,57.4,168.4c-113,1028-788.7,6579.6-809.8,6656.2c-47.9,164.6-135.9,314-264.2,442.2c-105.3,107.2-158.9,137.8-547.5,329.3c-237.4,116.8-515,247-618.3,291l-189.5,80.4l-5.7,151.2c-30.6,786.8-729.4,1384.1-1828.2,1567.9C5414.2,5013.3,4788.3,5030.5,4562.4,5003.7z M3256.8,2957.3c19.1-9.6,197.2-199.1,396.3-423.1c199.1-222.1,411.6-442.2,474.8-488.2c470.9-354.2,1087.4-388.6,1600.4-91.9c155,90,252.7,181.9,612.6,582c180,199.1,348.4,379,377.1,402c74.6,59.4,179.9,51.7,254.6-19.1l63.2-59.4l-17.2-137.8c-26.8-225.9-11.5-367.6,70.8-710.2c128.3-528.4,107.2-777.2-86.2-980.2c-70.8-74.7-91.9-84.2-162.7-84.2c-68.9,0-93.8,11.5-147.4,65.1c-44.1,44-65.1,82.3-65.1,120.6c0,53.6,11.5,78.5,90,199.1c63.2,93.8,57.4,224-26.8,585.8l-70.8,312l-218.2-229.7c-314-331.2-541.8-478.6-897.8-585.8c-306.3-91.9-756.2-84.2-1066.3,15.3c-356.1,112.9-614.5,300.6-968.7,700.6c-132.1,147.4-245,269.9-252.7,269.9c-24.9,3.8-44-137.8-40.2-285.2c1.9-105.3,23-214.4,82.3-411.6c61.3-204.8,82.3-312,90-453.7l11.5-185.7l-59.3-57.4c-78.5-80.4-187.6-82.3-273.8-5.7c-51.7,45.9-61.3,68.9-76.6,206.8c-9.6,84.2-51.7,273.8-93.8,421.2c-95.7,323.5-116.8,553.3-68.9,769.6c36.4,176.1,179.9,480.5,250.8,536C3094,2978.3,3197.4,2989.8,3256.8,2957.3z"/></g></g>
</svg>