<?xml version="1.0" encoding="utf-8"?>
<!-- Svg Vector Icons : http://www.onlinewebfonts.com/icon -->
<!DOCTYPE svg PUBLIC "-//W3C//DTD SVG 1.1//EN" "http://www.w3.org/Graphics/SVG/1.1/DTD/svg11.dtd">
<svg version="1.1" xmlns="http://www.w3.org/2000/svg" xmlns:xlink="http://www.w3.org/1999/xlink" x="0px" y="0px" viewBox="0 0 1000 1000" enable-background="new 0 0 1000 1000" xml:space="preserve">
<metadata> Svg Vector Icons : http://www.onlinewebfonts.com/icon </metadata>
<g><g transform="translate(0.000000,511.000000) scale(0.100000,-0.100000)"><path d="M2957.7,4992.8c-15.7-53.1-253.5-3070-324.3-4135.3c-76.7-1116.4-84.5-1493.7-76.7-3439.5c5.9-2116.8-5.9-1955.6,153.3-2071.6c133.6-96.3,287-129.7,609.3-129.7c235.9,2,312.5,7.9,442.2,45.2c182.8,53.1,406.9,159.2,499.2,235.8l62.9,53.1l27.5,717.4c94.3,2350.7,165.1,3512.3,247.6,4029.2c62.9,406.8,373.4,1914.3,397,1939.9c19.7,17.7,316.4-1425,395.1-1910.4c86.5-544.4,176.9-2016.6,247.7-4039c11.8-340,25.5-646.6,31.5-682c11.8-76.6,161.2-218.2,308.6-288.9c186.7-90.4,332.2-115.9,593.6-104.2c377.4,19.7,664.3,112,794.1,259.4l55,62.9l11.8,636.8c19.7,945.4,15.7,2944.2-5.9,3506.4c-11.8,271.2-37.4,760.6-59,1090.8c-82.6,1236.3-320.4,4217.8-338.1,4237.5c-5.9,3.9-141.5-21.6-302.7-59c-967-224-1588.1-294.8-2101.1-239.8c-410.8,43.2-1230.4,194.6-1615.6,298.8C2981.2,5014.4,2963.5,5008.5,2957.7,4992.8z M3633.8,4747.1c367.5-76.6,947.4-165.1,1083-165.1c112,0,123.8-11.8,76.7-74.7c-55-66.8-51.1-163.1,9.8-228c55-60.9,60.9-59-202.4-29.5c-359.7,39.3-1140,184.8-1482,275.2c-70.7,17.7-74.7,23.6-74.7,94.3c0,41.3,5.9,116,11.8,163.1l11.8,90.4l121.9-29.5C3254.4,4827.7,3454.9,4784.4,3633.8,4747.1z M6943.6,4717.6c7.8-86.5,9.8-163.1,3.9-169c-25.5-25.5-801.9-188.7-1210.7-251.6c-167.1-27.5-400.9-55-520.8-62.9l-216.2-11.8l55,62.9c62.9,76.7,68.8,155.3,13.8,224.1l-39.3,49.1l163.1,13.8c414.7,33.4,929.6,117.9,1432.8,235.8c155.3,35.4,286.9,64.9,292.8,66.8C6925.9,4874.8,6937.7,4806,6943.6,4717.6z M4986,4403.1c5.9-53-35.4-80.6-88.4-62.9c-27.5,9.8-35.4,88.4-11.8,112C4917.2,4483.7,4980.1,4454.2,4986,4403.1z M3309.5,4357.9c959.1-216.2,1572.4-283,2089.3-228c279.1,31.4,831.4,127.8,1222.5,216.2c188.7,41.3,345.9,74.7,345.9,72.7c11.8-13.8,247.7-3085.8,314.5-4111.7c37.4-585.7,59-2659.2,37.4-3870l-13.8-862.8l-49.1-45.2c-64.9-60.9-186.7-117.9-330.2-155.3c-169-45.2-546.4-60.9-680-29.5c-139.6,33.4-310.5,119.9-399,202.4c-70.8,66.8-70.8,68.8-70.8,226c0,349.8-112,2739.8-167.1,3590.9c-49.1,746.9-114,1169.4-344,2226.9c-222.1,1027.9-202.4,957.2-267.3,957.2h-57l-92.4-412.7c-143.5-628.9-286.9-1336.5-351.8-1729.6c-96.3-589.6-155.3-1503.6-263.4-4117.6c-31.5-780.3-5.9-699.7-255.5-817.6c-192.6-90.4-340-127.8-581.8-139.6c-245.7-13.8-442.2,15.7-568,84.5c-159.2,86.5-147.4-82.5-153.3,2012.6c-7.9,1987.1,0,2321.2,84.5,3557.5c53.1,766.5,188.7,2531.5,235.9,3066.1c15.7,178.8,29.5,336.1,29.5,349.8c0,15.7,13.8,21.6,35.4,15.7C3077.5,4411,3191.5,4385.4,3309.5,4357.9z"/><path d="M4734.4,3569.8v-463.9l64.9-102.2c64.9-100.2,194.6-230,230-230c7.9,0,31.5-5.9,47.2-11.8c29.5-11.8,31.4,49.1,27.5,623l-5.9,636.8h-59h-59l-5.9-530.7l-3.9-528.7l-55,76.7l-53.1,78.6l-5.9,457.9l-5.9,456h-59h-57V3569.8z"/></g></g>
</svg>