<svg id="Layer_1" data-name="Layer 1" xmlns="http://www.w3.org/2000/svg" xmlns:xlink="http://www.w3.org/1999/xlink" viewBox="0 0 104.89 104.89"><defs><style>.cls-1{fill:url(#linear-gradient);}.cls-2{fill:url(#linear-gradient-2);}.cls-3{fill:url(#linear-gradient-3);}.cls-4{fill:url(#linear-gradient-4);}.cls-5{fill:#1e72a4;}</style><linearGradient id="linear-gradient" x1="54.91" y1="46.69" x2="67.05" y2="46.69" gradientUnits="userSpaceOnUse"><stop offset="0" stop-color="#006b94"/><stop offset="0.6" stop-color="#007eb8"/><stop offset="1" stop-color="#006fba"/></linearGradient><linearGradient id="linear-gradient-2" x1="58.03" y1="48.53" x2="63.94" y2="48.53" xlink:href="#linear-gradient"/><linearGradient id="linear-gradient-3" x1="58.07" y1="44.52" x2="63.89" y2="44.52" xlink:href="#linear-gradient"/><linearGradient id="linear-gradient-4" x1="59.81" y1="42.46" x2="62.15" y2="42.46" xlink:href="#linear-gradient"/></defs><title>1 Икон корзина</title><polygon class="cls-1" points="66.76 46.25 65 44.49 64.7 44.19 64.41 44.49 62.65 46.25 62.94 46.54 62.94 46.54 64.12 47.72 64.12 47.72 64.41 48.01 64.41 48.01 64.7 47.72 65.59 46.84 65.88 46.54 65.59 46.25 65 45.66 64.7 45.37 64.41 45.66 64.12 45.95 63.82 46.25 64.12 46.54 64.41 46.84 64.7 46.54 64.41 46.25 64.7 45.95 65.29 46.54 64.41 47.42 63.24 46.25 64.7 44.78 66.47 46.54 64.41 48.6 60.98 45.17 60.98 45.17 60.98 45.17 57.55 48.6 55.49 46.54 57.26 44.78 58.73 46.25 57.55 47.42 56.67 46.54 57.26 45.95 57.55 46.25 57.26 46.54 57.55 46.84 57.84 46.54 58.14 46.25 57.84 45.95 57.55 45.66 57.26 45.37 56.96 45.66 56.38 46.25 56.08 46.54 56.38 46.84 57.26 47.72 57.55 48.01 57.55 48.01 57.85 47.72 57.84 47.72 59.02 46.54 59.02 46.54 59.31 46.25 57.55 44.49 57.26 44.19 56.96 44.49 55.2 46.25 54.91 46.54 55.2 46.84 57.26 48.89 57.55 49.19 57.85 48.89 60.98 45.76 64.12 48.89 64.41 49.19 64.7 48.89 66.76 46.84 67.06 46.54 66.76 46.25"/><polygon class="cls-2" points="60.74 49.49 60.74 49.49 60.74 49.49 60.45 49.2 60.45 49.2 60.16 48.91 60.16 48.91 59.86 48.62 59.2 49.28 59.49 49.57 59.86 49.2 60.16 49.49 59.49 50.16 58.62 49.28 60.98 46.91 63.35 49.28 62.47 50.16 61.81 49.5 62.1 49.2 62.47 49.57 62.76 49.28 62.1 48.62 61.8 48.91 61.8 48.91 61.51 49.2 61.51 49.2 61.22 49.49 61.22 49.5 61.22 49.5 61.51 49.79 61.51 49.79 62.47 50.74 62.47 50.74 62.47 50.74 63.94 49.28 63.64 48.98 63.64 48.98 61.27 46.62 61.27 46.62 60.98 46.32 58.32 48.98 58.32 48.98 58.03 49.28 59.49 50.74 59.49 50.74 59.79 50.45 60.45 49.79 60.45 49.79 60.74 49.49"/><polygon class="cls-3" points="59.54 45.87 59.83 45.58 59.83 45.58 60.98 44.43 62.13 45.58 62.13 45.58 62.42 45.87 63.89 44.41 63.89 44.41 63.89 44.41 62.94 43.45 62.94 43.45 62.64 43.16 62.64 43.16 62.64 43.16 62.35 43.45 62.35 43.45 62.05 43.74 62.05 43.74 61.76 44.04 62.42 44.7 62.72 44.41 62.35 44.04 62.64 43.74 63.3 44.41 62.42 45.29 60.98 43.84 60.98 43.84 60.98 43.84 59.54 45.29 58.66 44.41 59.32 43.74 59.61 44.04 59.24 44.41 59.54 44.7 60.2 44.04 59.91 43.74 59.91 43.74 59.62 43.45 59.62 43.45 59.32 43.16 59.32 43.16 59.32 43.16 59.03 43.45 59.03 43.45 58.07 44.41 58.07 44.41 58.07 44.41 59.54 45.87"/><path class="cls-4" d="M61,43.63h0l1.17-1.17h0L61,41.29h0l-1.17,1.17h0Zm-.58-1.17.58-.58.58.58L61,43Z"/><path class="cls-5" d="M22.86,30.15H33.38c.3,0,.47.06.58.36a10.66,10.66,0,0,0,.49,1.09C34.94,32.76,45,55.76,45.51,56.85c.06.48.33.61.82.61,5,0,10,0,15.07,0H74.78c.46,0,.58.11.56.56a24.86,24.86,0,0,0,0,2.59c0,.57-.1.73-.7.73q-15.19,0-30.39,0c-.79,0-1.34-.11-1.51-1l-.64-1.46L31.72,35.2a2.08,2.08,0,0,1-.15-.39C31.45,34.1,31,34,30.35,34c-2.49,0-5,0-7.49,0Z"/><path class="cls-5" d="M47.32,55.58l-.12-.11a12.86,12.86,0,0,0-.75-1.93c-.15-.5-5.93-15-6.49-16.16,0-.38-.32-.67-.31-1.06H82c-.37,1-7.28,18.2-7.44,18.71a.72.72,0,0,1-.82.57c-5.32,0-10.64,0-16,0Zm28-13A10.4,10.4,0,0,0,76,41c.35-.84.35-.84-.52-.84H45.36l.3.84c.21.52,3.63,9,4,10a.93.93,0,0,0,1.06.75c6.36,0,12.72,0,19.08,0,.63,0,1.44.27,1.86-.1s.56-1.19.81-1.82c.46-1.13.91-2.26,1.37-3.38l.8-2,0-.13A10.41,10.41,0,0,0,75.32,42.57Z"/><path class="cls-5" d="M49.25,63.14A5.81,5.81,0,1,0,55.06,69,5.81,5.81,0,0,0,49.25,63.14Zm0,8.75a2.95,2.95,0,1,1,3-2.94A2.94,2.94,0,0,1,49.25,71.89Z"/><path class="cls-5" d="M69.54,63.14A5.81,5.81,0,1,0,75.35,69,5.81,5.81,0,0,0,69.54,63.14Zm0,8.75A2.95,2.95,0,1,1,72.49,69,2.94,2.94,0,0,1,69.54,71.89Z"/></svg>