<?xml version="1.0" standalone="no"?>
<!DOCTYPE svg PUBLIC "-//W3C//DTD SVG 20010904//EN"
 "http://www.w3.org/TR/2001/REC-SVG-20010904/DTD/svg10.dtd">
<svg version="1.0" xmlns="http://www.w3.org/2000/svg"
 width="1241.000000pt" height="1242.000000pt" viewBox="0 0 1241.000000 1242.000000"
 preserveAspectRatio="xMidYMid meet">

<g transform="translate(0.000000,1242.000000) scale(0.100000,-0.100000)"
fill="#000000" stroke="none">
<path d="M5947 8762 l-247 -247 250 -250 250 -250 250 250 250 250 -247 247
c-137 137 -250 248 -253 248 -3 0 -116 -111 -253 -248z m493 -247 c0 -6 -54
-64 -120 -130 l-120 -120 -122 123 -123 122 125 125 125 125 117 -117 c65 -65
118 -122 118 -128z"/>
<path d="M5220 7945 l-265 -265 310 -310 c170 -171 313 -310 317 -310 4 0 145
138 312 308 l305 307 311 -310 310 -310 312 313 313 312 -268 267 -267 268
-187 -188 -188 -187 143 -142 142 -143 62 63 63 62 -80 80 -80 80 63 62 62 63
142 -143 143 -142 -188 -187 -187 -188 -308 308 -307 307 -310 -305 c-171
-168 -312 -305 -315 -305 -3 0 -88 83 -190 185 l-185 185 143 142 142 143 62
-63 63 -62 -79 -79 -78 -78 62 -63 62 -63 141 141 142 142 -185 185 c-102 102
-187 185 -190 185 -3 0 -124 -119 -270 -265z"/>
<path d="M4102 7267 l-502 -502 565 -565 565 -565 735 735 735 735 735 -735
735 -735 565 565 565 565 -502 502 -503 503 -440 -440 -440 -440 376 -376 376
-376 316 314 317 313 -253 253 -252 252 -188 -188 -187 -187 125 -125 125
-125 60 60 60 60 -62 63 -61 63 64 65 64 64 127 -127 128 -128 -190 -190 -190
-190 -252 253 -253 252 315 315 315 315 378 -378 377 -377 -440 -440 -440
-440 -735 735 -735 735 -735 -735 -735 -735 -440 440 -440 440 377 377 378
378 315 -315 315 -315 -250 -250 -250 -250 -188 186 c-103 103 -187 190 -187
193 0 4 55 61 123 129 l122 122 63 -63 63 -63 -63 -62 -63 -62 65 -65 64 -65
125 125 125 125 -189 190 -190 190 -247 -247 c-137 -137 -248 -252 -248 -258
0 -5 140 -149 310 -320 l311 -309 377 377 377 377 -440 440 -440 440 -503
-503z"/>
<path d="M5567 6222 l-627 -627 313 -313 312 -312 263 263 c144 144 262 265
262 269 0 4 -82 90 -183 192 l-183 185 -142 -142 -142 -142 63 -63 63 -62 74
75 c41 41 77 75 80 75 8 0 120 -109 120 -117 0 -5 -62 -70 -138 -146 l-139
-138 -186 187 c-103 102 -187 187 -187 188 0 1 227 230 505 510 l505 508 493
-494 c270 -272 498 -501 505 -510 11 -13 -14 -42 -174 -203 l-186 -188 -141
142 -142 141 63 62 62 63 78 -78 78 -77 62 63 62 62 -140 140 -140 140 -188
-188 -187 -187 266 -266 267 -267 311 311 c171 171 311 314 311 317 0 9 -1250
1255 -1259 1255 -3 0 -288 -282 -634 -628z"/>
<path d="M5490 4438 c-14 -7 -33 -29 -42 -48 -16 -32 -18 -75 -18 -450 0 -228
3 -425 6 -437 7 -27 34 -37 73 -28 l29 6 4 155 c3 175 -3 162 98 195 95 31
181 82 218 128 53 66 92 158 92 219 0 129 -86 215 -253 251 -82 18 -181 22
-207 9z m233 -109 c104 -30 142 -143 81 -246 -65 -114 -114 -152 -211 -167
l-41 -6 -7 83 c-4 45 -5 136 -3 203 4 152 8 158 92 149 32 -4 73 -11 89 -16z"/>
<path d="M7410 4411 c-5 -11 -10 -67 -10 -125 0 -58 -3 -106 -6 -106 -8 0
-102 99 -132 140 -38 51 -52 60 -94 60 -30 0 -38 -4 -38 -17 0 -30 168 -230
240 -288 47 -38 50 -50 71 -246 25 -253 35 -308 55 -330 21 -23 82 -26 90 -5
3 8 -2 58 -11 110 -9 53 -20 156 -25 229 -5 72 -16 186 -24 252 -9 66 -17 164
-19 218 -3 82 -6 99 -23 112 -27 20 -61 18 -74 -4z"/>
<path d="M6926 4378 c-8 -18 -17 -47 -21 -64 -5 -26 -18 -38 -83 -74 -42 -24
-107 -61 -143 -82 -36 -21 -68 -38 -72 -38 -4 0 -7 47 -7 105 0 102 -1 107
-26 130 -31 28 -79 33 -88 9 -3 -9 -6 -56 -6 -106 0 -72 -3 -89 -14 -85 -19 8
-52 -16 -159 -115 -91 -85 -120 -102 -130 -75 -2 6 -2 68 1 137 4 117 3 127
-18 153 -23 28 -80 39 -81 15 -6 -167 -9 -592 -4 -676 6 -100 10 -116 32 -142
30 -36 59 -39 66 -7 3 12 2 56 -3 97 -11 88 -12 186 -4 217 6 20 118 113 171
141 12 7 44 31 70 54 l48 41 5 -224 c3 -123 9 -232 14 -242 13 -26 51 -39 80
-26 l24 11 -2 188 -1 187 49 58 c28 32 75 77 105 101 58 46 136 82 149 70 4
-4 7 -140 7 -303 0 -283 1 -295 20 -309 11 -8 36 -14 55 -12 l35 3 5 345 c5
331 6 347 27 394 22 47 22 49 5 75 -10 14 -23 38 -30 54 -17 40 -56 37 -76 -5z"/>
<path d="M7851 4356 c-22 -27 -30 -133 -33 -481 l-3 -350 40 0 c66 0 70 16 71
313 1 212 3 256 16 268 14 14 26 12 119 -16 214 -66 214 -66 226 -91 16 -30
16 -164 2 -319 -14 -144 -9 -170 29 -170 17 0 37 9 49 23 38 41 45 87 38 240
-5 101 -2 186 9 297 25 242 22 270 -30 270 -29 0 -33 -8 -53 -89 l-16 -66 -55
2 c-30 1 -113 17 -185 35 l-130 33 -6 42 c-3 23 -11 48 -18 57 -17 20 -55 21
-70 2z"/>
<path d="M4047 4328 c-44 -34 -60 -155 -72 -566 -6 -204 -5 -225 11 -243 9
-10 27 -19 40 -19 19 0 25 8 35 43 28 102 30 107 56 114 46 11 275 -68 344
-119 32 -24 97 -21 113 4 30 49 -45 111 -174 143 -155 39 -257 75 -279 99 -21
22 -22 30 -16 99 l7 75 47 17 c156 59 390 190 447 252 27 30 31 65 8 83 -32
28 -68 15 -184 -68 -63 -44 -158 -101 -210 -127 -111 -54 -112 -54 -86 71 21
99 20 109 -6 134 -25 23 -56 26 -81 8z"/>
<path d="M5154 4321 c-18 -11 -57 -61 -98 -127 -121 -194 -145 -210 -166 -107
-32 163 -55 213 -99 213 -18 0 -34 -8 -44 -22 -13 -21 -13 -27 4 -60 21 -42
73 -261 84 -354 8 -66 91 -407 106 -436 12 -22 47 -23 78 -2 31 22 26 58 -29
246 -41 139 -42 149 -30 193 14 50 73 142 210 326 72 97 88 124 79 135 -16 19
-58 17 -95 -5z"/>
</g>
</svg>
