<svg width="307" height="62" viewBox="0 0 307 62" fill="none" xmlns="http://www.w3.org/2000/svg">
<path d="M7.75684 11H6.4375V2.12695H1.5293V11H0.216797V1.04688H7.75684V11ZM15.9592 7.38379C15.9592 8.50944 15.7017 9.41634 15.1868 10.1045C14.6718 10.7926 13.9745 11.1367 13.095 11.1367C12.1972 11.1367 11.4908 10.8519 10.9758 10.2822V13.8438H9.71117V3.60352H10.8664L10.928 4.42383C11.4429 3.78581 12.1584 3.4668 13.0745 3.4668C13.9631 3.4668 14.6649 3.80176 15.1799 4.47168C15.6995 5.1416 15.9592 6.07357 15.9592 7.26758V7.38379ZM14.6946 7.24023C14.6946 6.40625 14.5168 5.74772 14.1614 5.26465C13.8059 4.78158 13.3183 4.54004 12.6985 4.54004C11.9329 4.54004 11.3586 4.87956 10.9758 5.55859V9.09277C11.3541 9.76725 11.9329 10.1045 12.7121 10.1045C13.3183 10.1045 13.7991 9.86523 14.1545 9.38672C14.5146 8.90365 14.6946 8.18815 14.6946 7.24023ZM22.1177 3.60352H23.3823V11H22.1177V5.60645L18.7065 11H17.4419V3.60352H18.7065V9.00391L22.1177 3.60352ZM31.2361 3.60352V11H29.9646V4.64941H27.4489L27.2986 7.41797C27.2165 8.68945 27.0023 9.59863 26.656 10.1455C26.3142 10.6924 25.7696 10.9772 25.0222 11H24.5163V9.88574L24.8786 9.8584C25.2888 9.81283 25.5827 9.57585 25.7605 9.14746C25.9382 8.71908 26.0521 7.92611 26.1023 6.76855L26.239 3.60352H31.2361ZM32.6914 7.2334C32.6914 6.50879 32.8326 5.8571 33.1152 5.27832C33.4023 4.69954 33.7988 4.25293 34.3046 3.93848C34.8151 3.62402 35.3961 3.4668 36.0478 3.4668C37.055 3.4668 37.8685 3.81543 38.4882 4.5127C39.1126 5.20996 39.4248 6.13737 39.4248 7.29492V7.38379C39.4248 8.10384 39.2858 8.75098 39.0078 9.3252C38.7343 9.89486 38.3401 10.3392 37.8252 10.6582C37.3147 10.9772 36.7268 11.1367 36.0615 11.1367C35.0589 11.1367 34.2454 10.7881 33.6211 10.0908C33.0013 9.39355 32.6914 8.4707 32.6914 7.32227V7.2334ZM33.9629 7.38379C33.9629 8.2041 34.152 8.86263 34.5302 9.35938C34.913 9.85612 35.4235 10.1045 36.0615 10.1045C36.7041 10.1045 37.2145 9.85384 37.5927 9.35254C37.971 8.84668 38.1601 8.1403 38.1601 7.2334C38.1601 6.4222 37.9664 5.76595 37.5791 5.26465C37.1963 4.75879 36.6858 4.50586 36.0478 4.50586C35.4235 4.50586 34.9199 4.75423 34.5371 5.25098C34.1543 5.74772 33.9629 6.45866 33.9629 7.38379ZM46.5197 7.78711H45.6311V11H44.3664V7.78711H43.4777L41.4064 11H39.8068L42.4523 7.17188L40.0598 3.60352H41.591L43.4982 6.66602H44.3664V3.60352H45.6311V6.66602H46.4924L48.4133 3.60352H49.9445L47.5451 7.17871L50.1906 11H48.591L46.5197 7.78711ZM54.0317 11.1367C53.0291 11.1367 52.2133 10.8086 51.5844 10.1523C50.9555 9.49154 50.6411 8.6097 50.6411 7.50684V7.27441C50.6411 6.54069 50.7801 5.88672 51.058 5.3125C51.3406 4.73372 51.7325 4.28255 52.2338 3.95898C52.7397 3.63086 53.2866 3.4668 53.8745 3.4668C54.836 3.4668 55.5834 3.78353 56.1166 4.41699C56.6498 5.05046 56.9164 5.95736 56.9164 7.1377V7.66406H51.9057C51.9239 8.39323 52.1358 8.9834 52.5414 9.43457C52.9516 9.88118 53.4711 10.1045 54.1 10.1045C54.5467 10.1045 54.9249 10.0133 55.2348 9.83105C55.5447 9.64876 55.8159 9.40723 56.0483 9.10645L56.8207 9.70801C56.201 10.6605 55.2713 11.1367 54.0317 11.1367ZM53.8745 4.50586C53.364 4.50586 52.9357 4.69271 52.5893 5.06641C52.2429 5.43555 52.0288 5.95508 51.9467 6.625H55.6518V6.5293C55.6153 5.88672 55.4422 5.38997 55.1323 5.03906C54.8224 4.68359 54.4031 4.50586 53.8745 4.50586ZM64.1891 11H62.9245V7.8418H59.527V11H58.2555V3.60352H59.527V6.80957H62.9245V3.60352H64.1891V11ZM70.7714 3.60352H72.0361V11H70.7714V5.60645L67.3603 11H66.0956V3.60352H67.3603V9.00391L70.7714 3.60352ZM76.8957 11.1367C75.8931 11.1367 75.0773 10.8086 74.4484 10.1523C73.8195 9.49154 73.505 8.6097 73.505 7.50684V7.27441C73.505 6.54069 73.644 5.88672 73.922 5.3125C74.2046 4.73372 74.5965 4.28255 75.0978 3.95898C75.6037 3.63086 76.1505 3.4668 76.7384 3.4668C77.7 3.4668 78.4474 3.78353 78.9806 4.41699C79.5138 5.05046 79.7804 5.95736 79.7804 7.1377V7.66406H74.7697C74.7879 8.39323 74.9998 8.9834 75.4054 9.43457C75.8156 9.88118 76.3351 10.1045 76.964 10.1045C77.4106 10.1045 77.7889 10.0133 78.0988 9.83105C78.4087 9.64876 78.6798 9.40723 78.9123 9.10645L79.6847 9.70801C79.0649 10.6605 78.1352 11.1367 76.8957 11.1367ZM76.7384 4.50586C76.228 4.50586 75.7996 4.69271 75.4533 5.06641C75.1069 5.43555 74.8927 5.95508 74.8107 6.625H78.5158V6.5293C78.4793 5.88672 78.3061 5.38997 77.9962 5.03906C77.6864 4.68359 77.2671 4.50586 76.7384 4.50586ZM87.2096 10.1045C87.6608 10.1045 88.055 9.96777 88.3922 9.69434C88.7295 9.4209 88.9163 9.0791 88.9528 8.66895H90.1491C90.1263 9.09277 89.9804 9.49609 89.7116 9.87891C89.4427 10.2617 89.0827 10.5671 88.6315 10.7949C88.1849 11.0228 87.7109 11.1367 87.2096 11.1367C86.2024 11.1367 85.4004 10.8018 84.8034 10.1318C84.2109 9.45736 83.9147 8.53678 83.9147 7.37012V7.1582C83.9147 6.43815 84.0468 5.79785 84.3112 5.2373C84.5755 4.67676 84.9538 4.24154 85.4459 3.93164C85.9427 3.62174 86.5283 3.4668 87.2028 3.4668C88.0322 3.4668 88.7204 3.71517 89.2672 4.21191C89.8187 4.70866 90.1126 5.35352 90.1491 6.14648H88.9528C88.9163 5.66797 88.734 5.27604 88.4059 4.9707C88.0823 4.66081 87.6813 4.50586 87.2028 4.50586C86.5602 4.50586 86.0612 4.73828 85.7057 5.20312C85.3548 5.66341 85.1793 6.33105 85.1793 7.20605V7.44531C85.1793 8.29753 85.3548 8.95378 85.7057 9.41406C86.0566 9.87435 86.5579 10.1045 87.2096 10.1045ZM90.996 7.2334C90.996 6.50879 91.1373 5.8571 91.4198 5.27832C91.7069 4.69954 92.1034 4.25293 92.6093 3.93848C93.1197 3.62402 93.7007 3.4668 94.3524 3.4668C95.3596 3.4668 96.1731 3.81543 96.7929 4.5127C97.4172 5.20996 97.7294 6.13737 97.7294 7.29492V7.38379C97.7294 8.10384 97.5904 8.75098 97.3124 9.3252C97.0389 9.89486 96.6447 10.3392 96.1298 10.6582C95.6194 10.9772 95.0315 11.1367 94.3661 11.1367C93.3635 11.1367 92.55 10.7881 91.9257 10.0908C91.3059 9.39355 90.996 8.4707 90.996 7.32227V7.2334ZM92.2675 7.38379C92.2675 8.2041 92.4566 8.86263 92.8348 9.35938C93.2177 9.85612 93.7281 10.1045 94.3661 10.1045C95.0087 10.1045 95.5191 9.85384 95.8973 9.35254C96.2756 8.84668 96.4647 8.1403 96.4647 7.2334C96.4647 6.4222 96.271 5.76595 95.8837 5.26465C95.5009 4.75879 94.9904 4.50586 94.3524 4.50586C93.7281 4.50586 93.2245 4.75423 92.8417 5.25098C92.4589 5.74772 92.2675 6.45866 92.2675 7.38379ZM103.143 5.62695C103.143 5.2806 103.011 5.00716 102.746 4.80664C102.482 4.60156 102.12 4.49902 101.659 4.49902C101.213 4.49902 100.839 4.61523 100.538 4.84766C100.242 5.08008 100.094 5.35352 100.094 5.66797H98.8361C98.8361 5.02539 99.1049 4.49902 99.6427 4.08887C100.18 3.67871 100.853 3.47363 101.659 3.47363C102.525 3.47363 103.2 3.66048 103.683 4.03418C104.166 4.40332 104.407 4.93197 104.407 5.62012C104.407 5.9528 104.307 6.25814 104.107 6.53613C103.906 6.81413 103.621 7.03516 103.252 7.19922C104.113 7.49089 104.544 8.0651 104.544 8.92188C104.544 9.60091 104.282 10.1387 103.758 10.5352C103.234 10.9316 102.534 11.1299 101.659 11.1299C100.807 11.1299 100.103 10.9225 99.547 10.5078C98.9956 10.0885 98.7198 9.52344 98.7198 8.8125H99.9777C99.9777 9.17253 100.137 9.48242 100.456 9.74219C100.78 9.9974 101.181 10.125 101.659 10.125C102.142 10.125 102.532 10.0133 102.828 9.79004C103.124 9.56673 103.273 9.27734 103.273 8.92188C103.273 8.50716 103.147 8.21094 102.897 8.0332C102.651 7.85091 102.265 7.75977 101.741 7.75977H100.477V6.69336H101.851C102.712 6.67057 103.143 6.3151 103.143 5.62695ZM105.883 9.96777L106.321 9.42773C106.813 8.78971 107.093 7.83268 107.161 6.55664L107.278 3.60352H112.042V9.96777H112.993V13.1738H111.728V11H106.567V13.1738H105.302L105.309 9.96777H105.883ZM107.38 9.96777H110.778V4.77246H108.501L108.426 6.53613C108.349 8.00814 108 9.15202 107.38 9.96777ZM118.72 11C118.647 10.8542 118.588 10.5944 118.543 10.2207C117.955 10.8314 117.253 11.1367 116.437 11.1367C115.708 11.1367 115.109 10.9316 114.639 10.5215C114.174 10.1068 113.942 9.58268 113.942 8.94922C113.942 8.17904 114.234 7.58203 114.817 7.1582C115.405 6.72982 116.23 6.51562 117.292 6.51562H118.522V5.93457C118.522 5.49251 118.39 5.1416 118.126 4.88184C117.861 4.61751 117.472 4.48535 116.957 4.48535C116.505 4.48535 116.127 4.59928 115.822 4.82715C115.517 5.05501 115.364 5.33073 115.364 5.6543H114.092C114.092 5.28516 114.222 4.92969 114.482 4.58789C114.746 4.24154 115.102 3.9681 115.548 3.76758C116 3.56706 116.494 3.4668 117.032 3.4668C117.884 3.4668 118.552 3.68099 119.035 4.10938C119.518 4.5332 119.768 5.11882 119.787 5.86621V9.27051C119.787 9.94954 119.873 10.4896 120.046 10.8906V11H118.72ZM116.622 10.0361C117.018 10.0361 117.394 9.93359 117.75 9.72852C118.105 9.52344 118.363 9.25684 118.522 8.92871V7.41113H117.531C115.981 7.41113 115.207 7.86458 115.207 8.77148C115.207 9.16797 115.339 9.47786 115.603 9.70117C115.867 9.92448 116.207 10.0361 116.622 10.0361ZM127.572 11H126.307V7.8418H122.91V11H121.639V3.60352H122.91V6.80957H126.307V3.60352H127.572V11ZM129.034 7.2334C129.034 6.50879 129.176 5.8571 129.458 5.27832C129.745 4.69954 130.142 4.25293 130.648 3.93848C131.158 3.62402 131.739 3.4668 132.391 3.4668C133.398 3.4668 134.211 3.81543 134.831 4.5127C135.455 5.20996 135.768 6.13737 135.768 7.29492V7.38379C135.768 8.10384 135.629 8.75098 135.351 9.3252C135.077 9.89486 134.683 10.3392 134.168 10.6582C133.658 10.9772 133.07 11.1367 132.404 11.1367C131.402 11.1367 130.588 10.7881 129.964 10.0908C129.344 9.39355 129.034 8.4707 129.034 7.32227V7.2334ZM130.306 7.38379C130.306 8.2041 130.495 8.86263 130.873 9.35938C131.256 9.85612 131.766 10.1045 132.404 10.1045C133.047 10.1045 133.557 9.85384 133.936 9.35254C134.314 8.84668 134.503 8.1403 134.503 7.2334C134.503 6.4222 134.309 5.76595 133.922 5.26465C133.539 4.75879 133.029 4.50586 132.391 4.50586C131.766 4.50586 131.263 4.75423 130.88 5.25098C130.497 5.74772 130.306 6.45866 130.306 7.38379ZM140.285 9.96777L140.722 9.42773C141.214 8.78971 141.495 7.83268 141.563 6.55664L141.679 3.60352H146.444V9.96777H147.394V13.1738H146.129V11H140.968V13.1738H139.704L139.711 9.96777H140.285ZM141.782 9.96777H145.179V4.77246H142.903L142.828 6.53613C142.75 8.00814 142.402 9.15202 141.782 9.96777ZM154.619 3.60352V11H153.347V4.64941H150.832L150.681 7.41797C150.599 8.68945 150.385 9.59863 150.039 10.1455C149.697 10.6924 149.152 10.9772 148.405 11H147.899V9.88574L148.262 9.8584C148.672 9.81283 148.966 9.57585 149.143 9.14746C149.321 8.71908 149.435 7.92611 149.485 6.76855L149.622 3.60352H154.619ZM162.063 3.60352V11H160.791V8.12207H158.884L157.141 11H155.773L157.633 7.93066C157.159 7.75749 156.794 7.49089 156.539 7.13086C156.288 6.76628 156.163 6.34245 156.163 5.85938C156.163 5.1849 156.416 4.64258 156.922 4.23242C157.428 3.81771 158.105 3.60807 158.952 3.60352H162.063ZM157.435 5.87305C157.435 6.23307 157.558 6.52474 157.804 6.74805C158.05 6.9668 158.376 7.07845 158.781 7.08301H160.791V4.62891H158.973C158.503 4.62891 158.13 4.74512 157.852 4.97754C157.574 5.2054 157.435 5.50391 157.435 5.87305ZM172.582 4.62891H170.1V11H168.835V4.62891H166.402V3.60352H172.582V4.62891ZM172.95 7.2334C172.95 6.50879 173.091 5.8571 173.374 5.27832C173.661 4.69954 174.057 4.25293 174.563 3.93848C175.074 3.62402 175.655 3.4668 176.306 3.4668C177.314 3.4668 178.127 3.81543 178.747 4.5127C179.371 5.20996 179.683 6.13737 179.683 7.29492V7.38379C179.683 8.10384 179.544 8.75098 179.266 9.3252C178.993 9.89486 178.599 10.3392 178.084 10.6582C177.573 10.9772 176.985 11.1367 176.32 11.1367C175.317 11.1367 174.504 10.7881 173.88 10.0908C173.26 9.39355 172.95 8.4707 172.95 7.32227V7.2334ZM174.221 7.38379C174.221 8.2041 174.411 8.86263 174.789 9.35938C175.172 9.85612 175.682 10.1045 176.32 10.1045C176.963 10.1045 177.473 9.85384 177.851 9.35254C178.23 8.84668 178.419 8.1403 178.419 7.2334C178.419 6.4222 178.225 5.76595 177.838 5.26465C177.455 4.75879 176.944 4.50586 176.306 4.50586C175.682 4.50586 175.178 4.75423 174.796 5.25098C174.413 5.74772 174.221 6.45866 174.221 7.38379ZM185.808 4.64941H182.396V11H181.125V3.60352H185.808V4.64941ZM186.197 7.2334C186.197 6.50879 186.338 5.8571 186.62 5.27832C186.907 4.69954 187.304 4.25293 187.81 3.93848C188.32 3.62402 188.901 3.4668 189.553 3.4668C190.56 3.4668 191.374 3.81543 191.993 4.5127C192.618 5.20996 192.93 6.13737 192.93 7.29492V7.38379C192.93 8.10384 192.791 8.75098 192.513 9.3252C192.239 9.89486 191.845 10.3392 191.33 10.6582C190.82 10.9772 190.232 11.1367 189.567 11.1367C188.564 11.1367 187.751 10.7881 187.126 10.0908C186.506 9.39355 186.197 8.4707 186.197 7.32227V7.2334ZM187.468 7.38379C187.468 8.2041 187.657 8.86263 188.035 9.35938C188.418 9.85612 188.929 10.1045 189.567 10.1045C190.209 10.1045 190.72 9.85384 191.098 9.35254C191.476 8.84668 191.665 8.1403 191.665 7.2334C191.665 6.4222 191.472 5.76595 191.084 5.26465C190.701 4.75879 190.191 4.50586 189.553 4.50586C188.929 4.50586 188.425 4.75423 188.042 5.25098C187.659 5.74772 187.468 6.45866 187.468 7.38379ZM194.235 12.9824L193.517 12.4902C193.945 11.8932 194.169 11.278 194.187 10.6445V9.50293H195.424V10.4941C195.424 10.9544 195.31 11.4147 195.083 11.875C194.859 12.3353 194.577 12.7044 194.235 12.9824ZM205.602 11H204.33V8.32031C203.774 8.46615 203.204 8.53906 202.621 8.53906C201.696 8.53906 200.99 8.30208 200.502 7.82812C200.019 7.35417 199.773 6.67969 199.764 5.80469V3.59668H201.028V5.8457C201.051 6.94857 201.582 7.5 202.621 7.5C203.204 7.5 203.774 7.42708 204.33 7.28125V3.60352H205.602V11ZM212.888 4.62891H210.406V11H209.142V4.62891H206.708V3.60352H212.888V4.62891ZM213.256 7.2334C213.256 6.50879 213.398 5.8571 213.68 5.27832C213.967 4.69954 214.364 4.25293 214.87 3.93848C215.38 3.62402 215.961 3.4668 216.613 3.4668C217.62 3.4668 218.433 3.81543 219.053 4.5127C219.678 5.20996 219.99 6.13737 219.99 7.29492V7.38379C219.99 8.10384 219.851 8.75098 219.573 9.3252C219.299 9.89486 218.905 10.3392 218.39 10.6582C217.88 10.9772 217.292 11.1367 216.626 11.1367C215.624 11.1367 214.81 10.7881 214.186 10.0908C213.566 9.39355 213.256 8.4707 213.256 7.32227V7.2334ZM214.528 7.38379C214.528 8.2041 214.717 8.86263 215.095 9.35938C215.478 9.85612 215.988 10.1045 216.626 10.1045C217.269 10.1045 217.779 9.85384 218.158 9.35254C218.536 8.84668 218.725 8.1403 218.725 7.2334C218.725 6.4222 218.531 5.76595 218.144 5.26465C217.761 4.75879 217.251 4.50586 216.613 4.50586C215.988 4.50586 215.485 4.75423 215.102 5.25098C214.719 5.74772 214.528 6.45866 214.528 7.38379ZM224.583 4.02734C225.512 4.02734 226.255 4.33952 226.811 4.96387C227.372 5.58366 227.652 6.40169 227.652 7.41797V7.53418C227.652 8.23145 227.518 8.85579 227.249 9.40723C226.98 9.9541 226.592 10.3802 226.087 10.6855C225.585 10.9863 225.007 11.1367 224.35 11.1367C223.357 11.1367 222.557 10.8063 221.951 10.1455C221.345 9.48014 221.042 8.58919 221.042 7.47266V6.85742C221.042 5.30339 221.329 4.06836 221.903 3.15234C222.482 2.23633 223.334 1.67806 224.46 1.47754C225.098 1.36361 225.528 1.22461 225.752 1.06055C225.975 0.896484 226.087 0.670898 226.087 0.383789H227.126C227.126 0.953451 226.996 1.39779 226.736 1.7168C226.481 2.03581 226.071 2.26139 225.506 2.39355L224.562 2.60547C223.81 2.7832 223.245 3.08398 222.867 3.50781C222.493 3.92708 222.249 4.48763 222.135 5.18945C222.805 4.41471 223.621 4.02734 224.583 4.02734ZM224.337 5.06641C223.717 5.06641 223.225 5.27604 222.86 5.69531C222.495 6.11003 222.313 6.68652 222.313 7.4248V7.53418C222.313 8.32715 222.495 8.95605 222.86 9.4209C223.229 9.88118 223.726 10.1113 224.35 10.1113C224.979 10.1113 225.476 9.87891 225.841 9.41406C226.205 8.94922 226.387 8.27018 226.387 7.37695C226.387 6.67969 226.203 6.12142 225.834 5.70215C225.469 5.27832 224.97 5.06641 224.337 5.06641ZM230.215 6.15332H232.136C232.974 6.16243 233.637 6.38118 234.125 6.80957C234.613 7.23796 234.856 7.81901 234.856 8.55273C234.856 9.29102 234.606 9.88346 234.104 10.3301C233.603 10.7767 232.929 11 232.081 11H228.95V3.60352H230.215V6.15332ZM237.495 11H236.224V3.60352H237.495V11ZM230.215 7.18555V9.96777H232.095C232.569 9.96777 232.935 9.84701 233.195 9.60547C233.455 9.35938 233.585 9.02441 233.585 8.60059C233.585 8.19043 233.457 7.85547 233.202 7.5957C232.951 7.33138 232.598 7.19466 232.143 7.18555H230.215ZM245.116 9.14746L246.838 3.60352H248.192L245.218 12.1416C244.758 13.3721 244.026 13.9873 243.024 13.9873L242.785 13.9668L242.313 13.8779V12.8525L242.655 12.8799C243.083 12.8799 243.416 12.7933 243.653 12.6201C243.894 12.4469 244.093 12.1302 244.247 11.6699L244.528 10.918L241.889 3.60352H243.27L245.116 9.14746ZM254.672 11H253.4V8.32031C252.844 8.46615 252.274 8.53906 251.691 8.53906C250.766 8.53906 250.06 8.30208 249.572 7.82812C249.089 7.35417 248.843 6.67969 248.834 5.80469V3.59668H250.098V5.8457C250.121 6.94857 250.652 7.5 251.691 7.5C252.274 7.5 252.844 7.42708 253.4 7.28125V3.60352H254.672V11ZM261.028 11C260.955 10.8542 260.896 10.5944 260.85 10.2207C260.263 10.8314 259.561 11.1367 258.745 11.1367C258.016 11.1367 257.417 10.9316 256.947 10.5215C256.482 10.1068 256.25 9.58268 256.25 8.94922C256.25 8.17904 256.542 7.58203 257.125 7.1582C257.713 6.72982 258.538 6.51562 259.599 6.51562H260.83V5.93457C260.83 5.49251 260.698 5.1416 260.433 4.88184C260.169 4.61751 259.78 4.48535 259.265 4.48535C258.813 4.48535 258.435 4.59928 258.13 4.82715C257.824 5.05501 257.672 5.33073 257.672 5.6543H256.4C256.4 5.28516 256.53 4.92969 256.79 4.58789C257.054 4.24154 257.41 3.9681 257.856 3.76758C258.307 3.56706 258.802 3.4668 259.34 3.4668C260.192 3.4668 260.86 3.68099 261.343 4.10938C261.826 4.5332 262.076 5.11882 262.095 5.86621V9.27051C262.095 9.94954 262.181 10.4896 262.354 10.8906V11H261.028ZM258.93 10.0361C259.326 10.0361 259.702 9.93359 260.057 9.72852C260.413 9.52344 260.67 9.25684 260.83 8.92871V7.41113H259.839C258.289 7.41113 257.515 7.86458 257.515 8.77148C257.515 9.16797 257.647 9.47786 257.911 9.70117C258.175 9.92448 258.515 10.0361 258.93 10.0361ZM266.804 10.1045C267.255 10.1045 267.649 9.96777 267.986 9.69434C268.324 9.4209 268.511 9.0791 268.547 8.66895H269.743C269.72 9.09277 269.575 9.49609 269.306 9.87891C269.037 10.2617 268.677 10.5671 268.226 10.7949C267.779 11.0228 267.305 11.1367 266.804 11.1367C265.797 11.1367 264.995 10.8018 264.398 10.1318C263.805 9.45736 263.509 8.53678 263.509 7.37012V7.1582C263.509 6.43815 263.641 5.79785 263.905 5.2373C264.17 4.67676 264.548 4.24154 265.04 3.93164C265.537 3.62174 266.123 3.4668 266.797 3.4668C267.626 3.4668 268.315 3.71517 268.861 4.21191C269.413 4.70866 269.707 5.35352 269.743 6.14648H268.547C268.511 5.66797 268.328 5.27604 268 4.9707C267.677 4.66081 267.276 4.50586 266.797 4.50586C266.154 4.50586 265.655 4.73828 265.3 5.20312C264.949 5.66341 264.774 6.33105 264.774 7.20605V7.44531C264.774 8.29753 264.949 8.95378 265.3 9.41406C265.651 9.87435 266.152 10.1045 266.804 10.1045ZM276.421 4.62891H273.94V11H272.675V4.62891H270.242V3.60352H276.421V4.62891ZM283.455 11H282.19V7.8418H278.793V11H277.521V3.60352H278.793V6.80957H282.19V3.60352H283.455V11ZM290.037 3.60352H291.302V11H290.037V5.60645L286.626 11H285.361V3.60352H286.626V9.00391L290.037 3.60352ZM295.396 7.84863H294.473V11H293.201V3.60352H294.473V6.73438H295.3L297.788 3.60352H299.319L296.394 7.1582L299.566 11H297.959L295.396 7.84863ZM305.198 3.60352H306.462V11H305.198V5.60645L301.786 11H300.522V3.60352H301.786V9.00391L305.198 3.60352ZM6.00684 35H4.74219V28.6494H1.33789V35H0.0664062V27.6035H6.00684V35ZM7.46215 31.2334C7.46215 30.5088 7.60342 29.8571 7.88598 29.2783C8.17309 28.6995 8.56957 28.2529 9.07543 27.9385C9.58585 27.624 10.1669 27.4668 10.8186 27.4668C11.8258 27.4668 12.6392 27.8154 13.259 28.5127C13.8834 29.21 14.1955 30.1374 14.1955 31.2949V31.3838C14.1955 32.1038 14.0565 32.751 13.7786 33.3252C13.5051 33.8949 13.1109 34.3392 12.5959 34.6582C12.0855 34.9772 11.4976 35.1367 10.8323 35.1367C9.82966 35.1367 9.01619 34.7881 8.39184 34.0908C7.77204 33.3936 7.46215 32.4707 7.46215 31.3223V31.2334ZM8.73363 31.3838C8.73363 32.2041 8.92276 32.8626 9.30102 33.3594C9.68383 33.8561 10.1942 34.1045 10.8323 34.1045C11.4748 34.1045 11.9853 33.8538 12.3635 33.3525C12.7418 32.8467 12.9309 32.1403 12.9309 31.2334C12.9309 30.4222 12.7372 29.766 12.3498 29.2646C11.967 28.7588 11.4566 28.5059 10.8186 28.5059C10.1942 28.5059 9.69066 28.7542 9.30785 29.251C8.92504 29.7477 8.73363 30.4587 8.73363 31.3838ZM21.4956 27.6035V35H20.2241V28.6494H17.7085L17.5581 31.418C17.4761 32.6895 17.2619 33.5986 16.9155 34.1455C16.5737 34.6924 16.0291 34.9772 15.2817 35H14.7759V33.8857L15.1382 33.8584C15.5483 33.8128 15.8423 33.5758 16.02 33.1475C16.1977 32.7191 16.3117 31.9261 16.3618 30.7686L16.4985 27.6035H21.4956ZM28.071 27.6035H29.3357V35H28.071V29.6064L24.6599 35H23.3952V27.6035H24.6599V33.0039L28.071 27.6035ZM36.622 28.6289H34.1406V35H32.8759V28.6289H30.4423V27.6035H36.622V28.6289ZM42.3977 27.6035H43.6623V35H42.3977V29.6064L38.9865 35H37.7219V27.6035H38.9865V33.0039L42.3977 27.6035ZM51.0375 35H49.7661V32.3203C49.2101 32.4661 48.6404 32.5391 48.0571 32.5391C47.1319 32.5391 46.4256 32.3021 45.9379 31.8281C45.4549 31.3542 45.2088 30.6797 45.1996 29.8047V27.5967H46.4643V29.8457C46.4871 30.9486 47.018 31.5 48.0571 31.5C48.6404 31.5 49.2101 31.4271 49.7661 31.2812V27.6035H51.0375V35ZM55.8971 35.1367C54.8945 35.1367 54.0788 34.8086 53.4499 34.1523C52.821 33.4915 52.5065 32.6097 52.5065 31.5068V31.2744C52.5065 30.5407 52.6455 29.8867 52.9235 29.3125C53.2061 28.7337 53.598 28.2826 54.0993 27.959C54.6052 27.6309 55.152 27.4668 55.7399 27.4668C56.7015 27.4668 57.4489 27.7835 57.9821 28.417C58.5153 29.0505 58.7819 29.9574 58.7819 31.1377V31.6641H53.7712C53.7894 32.3932 54.0013 32.9834 54.4069 33.4346C54.8171 33.8812 55.3366 34.1045 55.9655 34.1045C56.4121 34.1045 56.7904 34.0133 57.1003 33.8311C57.4102 33.6488 57.6813 33.4072 57.9137 33.1064L58.6862 33.708C58.0664 34.6605 57.1367 35.1367 55.8971 35.1367ZM55.7399 28.5059C55.2295 28.5059 54.8011 28.6927 54.4548 29.0664C54.1084 29.4355 53.8942 29.9551 53.8122 30.625H57.5173V30.5293C57.4808 29.8867 57.3076 29.39 56.9977 29.0391C56.6878 28.6836 56.2686 28.5059 55.7399 28.5059ZM62.9784 34.1045C63.4296 34.1045 63.8238 33.9678 64.1611 33.6943C64.4983 33.4209 64.6851 33.0791 64.7216 32.6689H65.9179C65.8951 33.0928 65.7493 33.4961 65.4804 33.8789C65.2115 34.2617 64.8515 34.5671 64.4003 34.7949C63.9537 35.0228 63.4797 35.1367 62.9784 35.1367C61.9713 35.1367 61.1692 34.8018 60.5722 34.1318C59.9797 33.4574 59.6835 32.5368 59.6835 31.3701V31.1582C59.6835 30.4382 59.8157 29.7979 60.08 29.2373C60.3443 28.6768 60.7226 28.2415 61.2148 27.9316C61.7115 27.6217 62.2971 27.4668 62.9716 27.4668C63.801 27.4668 64.4892 27.7152 65.0361 28.2119C65.5875 28.7087 65.8814 29.3535 65.9179 30.1465H64.7216C64.6851 29.668 64.5029 29.276 64.1747 28.9707C63.8512 28.6608 63.4501 28.5059 62.9716 28.5059C62.329 28.5059 61.83 28.7383 61.4745 29.2031C61.1236 29.6634 60.9482 30.3311 60.9482 31.2061V31.4453C60.9482 32.2975 61.1236 32.9538 61.4745 33.4141C61.8254 33.8743 62.3267 34.1045 62.9784 34.1045ZM69.4035 31.8486H68.4806V35H67.2091V27.6035H68.4806V30.7344H69.3078L71.7961 27.6035H73.3273L70.4015 31.1582L73.5734 35H71.9669L69.4035 31.8486ZM73.935 31.2334C73.935 30.5088 74.0762 29.8571 74.3588 29.2783C74.6459 28.6995 75.0424 28.2529 75.5482 27.9385C76.0587 27.624 76.6397 27.4668 77.2914 27.4668C78.2986 27.4668 79.112 27.8154 79.7318 28.5127C80.3562 29.21 80.6684 30.1374 80.6684 31.2949V31.3838C80.6684 32.1038 80.5294 32.751 80.2514 33.3252C79.9779 33.8949 79.5837 34.3392 79.0687 34.6582C78.5583 34.9772 77.9704 35.1367 77.3051 35.1367C76.3025 35.1367 75.489 34.7881 74.8646 34.0908C74.2449 33.3936 73.935 32.4707 73.935 31.3223V31.2334ZM75.2064 31.3838C75.2064 32.2041 75.3956 32.8626 75.7738 33.3594C76.1566 33.8561 76.6671 34.1045 77.3051 34.1045C77.9477 34.1045 78.4581 33.8538 78.8363 33.3525C79.2146 32.8467 79.4037 32.1403 79.4037 31.2334C79.4037 30.4222 79.21 29.766 78.8227 29.2646C78.4398 28.7588 77.9294 28.5059 77.2914 28.5059C76.6671 28.5059 76.1635 28.7542 75.7807 29.251C75.3979 29.7477 75.2064 30.4587 75.2064 31.3838ZM86.7995 27.6035H88.0641V35H86.7995V29.6064L83.3883 35H82.1237V27.6035H83.3883V33.0039L86.7995 27.6035ZM87.1413 24.9102C87.1413 25.4616 86.9521 25.9059 86.5739 26.2432C86.2002 26.5758 85.708 26.7422 85.0973 26.7422C84.4866 26.7422 83.9922 26.5736 83.6139 26.2363C83.2357 25.8991 83.0465 25.457 83.0465 24.9102H84.0788C84.0788 25.2292 84.1653 25.4798 84.3385 25.6621C84.5117 25.8398 84.7646 25.9287 85.0973 25.9287C85.4163 25.9287 85.6647 25.8398 85.8424 25.6621C86.0247 25.4844 86.1159 25.2337 86.1159 24.9102H87.1413ZM99.1368 35H97.8722V28.6494H94.4679V35H93.1964V27.6035H99.1368V35ZM105.494 35C105.421 34.8542 105.361 34.5944 105.316 34.2207C104.728 34.8314 104.026 35.1367 103.21 35.1367C102.481 35.1367 101.882 34.9316 101.412 34.5215C100.948 34.1068 100.715 33.5827 100.715 32.9492C100.715 32.179 101.007 31.582 101.59 31.1582C102.178 30.7298 103.003 30.5156 104.065 30.5156H105.295V29.9346C105.295 29.4925 105.163 29.1416 104.899 28.8818C104.634 28.6175 104.245 28.4854 103.73 28.4854C103.279 28.4854 102.9 28.5993 102.595 28.8271C102.29 29.055 102.137 29.3307 102.137 29.6543H100.866C100.866 29.2852 100.995 28.9297 101.255 28.5879C101.52 28.2415 101.875 27.9681 102.322 27.7676C102.773 27.5671 103.267 27.4668 103.805 27.4668C104.657 27.4668 105.325 27.681 105.808 28.1094C106.291 28.5332 106.542 29.1188 106.56 29.8662V33.2705C106.56 33.9495 106.647 34.4896 106.82 34.8906V35H105.494ZM103.395 34.0361C103.791 34.0361 104.167 33.9336 104.523 33.7285C104.878 33.5234 105.136 33.2568 105.295 32.9287V31.4111H104.304C102.755 31.4111 101.98 31.8646 101.98 32.7715C101.98 33.168 102.112 33.4779 102.376 33.7012C102.641 33.9245 102.98 34.0361 103.395 34.0361ZM114.55 31.3838C114.55 32.5094 114.293 33.4163 113.778 34.1045C113.263 34.7926 112.566 35.1367 111.686 35.1367C110.788 35.1367 110.082 34.8519 109.567 34.2822V37.8438H108.302V27.6035H109.458L109.519 28.4238C110.034 27.7858 110.75 27.4668 111.666 27.4668C112.554 27.4668 113.256 27.8018 113.771 28.4717C114.291 29.1416 114.55 30.0736 114.55 31.2676V31.3838ZM113.286 31.2402C113.286 30.4062 113.108 29.7477 112.753 29.2646C112.397 28.7816 111.909 28.54 111.29 28.54C110.524 28.54 109.95 28.8796 109.567 29.5586V33.0928C109.945 33.7673 110.524 34.1045 111.303 34.1045C111.909 34.1045 112.39 33.8652 112.746 33.3867C113.106 32.9036 113.286 32.1882 113.286 31.2402ZM120.873 28.6289H118.391V35H117.127V28.6289H114.693V27.6035H120.873V28.6289ZM126.649 27.6035H127.913V35H126.649V29.6064L123.237 35H121.973V27.6035H123.237V33.0039L126.649 27.6035ZM134.489 27.6035H135.753V35H134.489V29.6064L131.077 35H129.813V27.6035H131.077V33.0039L134.489 27.6035ZM141.72 24.3701L142.444 24.8623C142.02 25.4411 141.802 26.0654 141.788 26.7354V27.665H140.53V26.8721C140.53 26.4072 140.639 25.9469 140.858 25.4912C141.082 25.0355 141.369 24.6618 141.72 24.3701ZM143.873 24.3701L144.597 24.8623C144.174 25.4411 143.955 26.0654 143.941 26.7354V27.665H142.683V26.8721C142.683 26.4072 142.793 25.9469 143.012 25.4912C143.235 25.0355 143.522 24.6618 143.873 24.3701ZM148.268 30.5293H147.058V35H145.745V25.0469H147.058V29.4355H148.083L151.563 25.0469H153.196L149.396 29.873L153.477 35H151.87L148.268 30.5293ZM155.622 30.1533H157.543C158.382 30.1624 159.045 30.3812 159.533 30.8096C160.02 31.238 160.264 31.819 160.264 32.5527C160.264 33.291 160.013 33.8835 159.512 34.3301C159.011 34.7767 158.336 35 157.489 35H154.358V27.6035H155.622V30.1533ZM162.903 35H161.631V27.6035H162.903V35ZM155.622 31.1855V33.9678H157.502C157.976 33.9678 158.343 33.847 158.603 33.6055C158.863 33.3594 158.992 33.0244 158.992 32.6006C158.992 32.1904 158.865 31.8555 158.61 31.5957C158.359 31.3314 158.006 31.1947 157.55 31.1855H155.622ZM171.119 31.3838C171.119 32.5094 170.861 33.4163 170.346 34.1045C169.831 34.7926 169.134 35.1367 168.254 35.1367C167.357 35.1367 166.65 34.8519 166.135 34.2822V37.8438H164.871V27.6035H166.026L166.087 28.4238C166.602 27.7858 167.318 27.4668 168.234 27.4668C169.123 27.4668 169.824 27.8018 170.339 28.4717C170.859 29.1416 171.119 30.0736 171.119 31.2676V31.3838ZM169.854 31.2402C169.854 30.4062 169.676 29.7477 169.321 29.2646C168.965 28.7816 168.478 28.54 167.858 28.54C167.092 28.54 166.518 28.8796 166.135 29.5586V33.0928C166.514 33.7673 167.092 34.1045 167.872 34.1045C168.478 34.1045 168.959 33.8652 169.314 33.3867C169.674 32.9036 169.854 32.1882 169.854 31.2402ZM177.27 28.6494H173.859V35H172.588V27.6035H177.27V28.6494ZM179.512 30.1533H181.433C182.271 30.1624 182.934 30.3812 183.422 30.8096C183.91 31.238 184.153 31.819 184.153 32.5527C184.153 33.291 183.903 33.8835 183.401 34.3301C182.9 34.7767 182.226 35 181.378 35H178.247V27.6035H179.512V30.1533ZM186.792 35H185.521V27.6035H186.792V35ZM179.512 31.1855V33.9678H181.392C181.866 33.9678 182.232 33.847 182.492 33.6055C182.752 33.3594 182.882 33.0244 182.882 32.6006C182.882 32.1904 182.754 31.8555 182.499 31.5957C182.248 31.3314 181.895 31.1947 181.439 31.1855H179.512ZM192.827 29.627C192.827 29.2806 192.695 29.0072 192.431 28.8066C192.167 28.6016 191.804 28.499 191.344 28.499C190.897 28.499 190.524 28.6152 190.223 28.8477C189.927 29.0801 189.779 29.3535 189.779 29.668H188.521C188.521 29.0254 188.79 28.499 189.327 28.0889C189.865 27.6787 190.537 27.4736 191.344 27.4736C192.21 27.4736 192.884 27.6605 193.367 28.0342C193.85 28.4033 194.092 28.932 194.092 29.6201C194.092 29.9528 193.992 30.2581 193.791 30.5361C193.591 30.8141 193.306 31.0352 192.937 31.1992C193.798 31.4909 194.229 32.0651 194.229 32.9219C194.229 33.6009 193.967 34.1387 193.443 34.5352C192.919 34.9316 192.219 35.1299 191.344 35.1299C190.492 35.1299 189.788 34.9225 189.232 34.5078C188.68 34.0885 188.405 33.5234 188.405 32.8125H189.662C189.662 33.1725 189.822 33.4824 190.141 33.7422C190.464 33.9974 190.865 34.125 191.344 34.125C191.827 34.125 192.217 34.0133 192.513 33.79C192.809 33.5667 192.957 33.2773 192.957 32.9219C192.957 32.5072 192.832 32.2109 192.581 32.0332C192.335 31.8509 191.95 31.7598 191.426 31.7598H190.161V30.6934H191.535C192.397 30.6706 192.827 30.3151 192.827 29.627ZM198.596 34.1045C199.047 34.1045 199.442 33.9678 199.779 33.6943C200.116 33.4209 200.303 33.0791 200.339 32.6689H201.536C201.513 33.0928 201.367 33.4961 201.098 33.8789C200.829 34.2617 200.469 34.5671 200.018 34.7949C199.571 35.0228 199.097 35.1367 198.596 35.1367C197.589 35.1367 196.787 34.8018 196.19 34.1318C195.597 33.4574 195.301 32.5368 195.301 31.3701V31.1582C195.301 30.4382 195.433 29.7979 195.698 29.2373C195.962 28.6768 196.34 28.2415 196.833 27.9316C197.329 27.6217 197.915 27.4668 198.589 27.4668C199.419 27.4668 200.107 27.7152 200.654 28.2119C201.205 28.7087 201.499 29.3535 201.536 30.1465H200.339C200.303 29.668 200.121 29.276 199.792 28.9707C199.469 28.6608 199.068 28.5059 198.589 28.5059C197.947 28.5059 197.448 28.7383 197.092 29.2031C196.741 29.6634 196.566 30.3311 196.566 31.2061V31.4453C196.566 32.2975 196.741 32.9538 197.092 33.4141C197.443 33.8743 197.944 34.1045 198.596 34.1045ZM208.214 28.6289H205.732V35H204.467V28.6289H202.034V27.6035H208.214V28.6289ZM213.661 35C213.588 34.8542 213.529 34.5944 213.483 34.2207C212.895 34.8314 212.194 35.1367 211.378 35.1367C210.649 35.1367 210.049 34.9316 209.58 34.5215C209.115 34.1068 208.883 33.5827 208.883 32.9492C208.883 32.179 209.174 31.582 209.758 31.1582C210.346 30.7298 211.171 30.5156 212.232 30.5156H213.463V29.9346C213.463 29.4925 213.331 29.1416 213.066 28.8818C212.802 28.6175 212.412 28.4854 211.897 28.4854C211.446 28.4854 211.068 28.5993 210.763 28.8271C210.457 29.055 210.305 29.3307 210.305 29.6543H209.033C209.033 29.2852 209.163 28.9297 209.423 28.5879C209.687 28.2415 210.043 27.9681 210.489 27.7676C210.94 27.5671 211.435 27.4668 211.973 27.4668C212.825 27.4668 213.492 27.681 213.976 28.1094C214.459 28.5332 214.709 29.1188 214.727 29.8662V33.2705C214.727 33.9495 214.814 34.4896 214.987 34.8906V35H213.661ZM211.562 34.0361C211.959 34.0361 212.335 33.9336 212.69 33.7285C213.046 33.5234 213.303 33.2568 213.463 32.9287V31.4111H212.472C210.922 31.4111 210.147 31.8646 210.147 32.7715C210.147 33.168 210.28 33.4779 210.544 33.7012C210.808 33.9245 211.148 34.0361 211.562 34.0361ZM222.513 35H221.248V31.8418H217.851V35H216.579V27.6035H217.851V30.8096H221.248V27.6035H222.513V35ZM224.481 27.8496L223.763 27.3574C224.187 26.765 224.406 26.1406 224.419 25.4844V24.5H225.67V25.3887C225.666 25.8444 225.552 26.3001 225.329 26.7559C225.11 27.207 224.827 27.5716 224.481 27.8496ZM226.58 27.8496L225.862 27.3574C226.286 26.765 226.504 26.1406 226.518 25.4844V24.5H227.769V25.3887C227.764 25.8444 227.65 26.3001 227.427 26.7559C227.208 27.207 226.926 27.5716 226.58 27.8496ZM236.565 33.3252L239.081 27.6035H240.66V35H239.395V29.6201L237.003 35H236.128L233.687 29.5039V35H232.423V27.6035H234.063L236.565 33.3252ZM242.122 31.2334C242.122 30.5088 242.263 29.8571 242.546 29.2783C242.833 28.6995 243.23 28.2529 243.736 27.9385C244.246 27.624 244.827 27.4668 245.479 27.4668C246.486 27.4668 247.299 27.8154 247.919 28.5127C248.543 29.21 248.856 30.1374 248.856 31.2949V31.3838C248.856 32.1038 248.717 32.751 248.439 33.3252C248.165 33.8949 247.771 34.3392 247.256 34.6582C246.746 34.9772 246.158 35.1367 245.492 35.1367C244.49 35.1367 243.676 34.7881 243.052 34.0908C242.432 33.3936 242.122 32.4707 242.122 31.3223V31.2334ZM243.394 31.3838C243.394 32.2041 243.583 32.8626 243.961 33.3594C244.344 33.8561 244.854 34.1045 245.492 34.1045C246.135 34.1045 246.645 33.8538 247.024 33.3525C247.402 32.8467 247.591 32.1403 247.591 31.2334C247.591 30.4222 247.397 29.766 247.01 29.2646C246.627 28.7588 246.117 28.5059 245.479 28.5059C244.854 28.5059 244.351 28.7542 243.968 29.251C243.585 29.7477 243.394 30.4587 243.394 31.3838ZM254.98 28.6494H251.569V35H250.297V27.6035H254.98V28.6494ZM261.631 27.6035V35H260.359V28.6494H257.843L257.693 31.418C257.611 32.6895 257.397 33.5986 257.05 34.1455C256.709 34.6924 256.164 34.9772 255.417 35H254.911V33.8857L255.273 33.8584C255.683 33.8128 255.977 33.5758 256.155 33.1475C256.333 32.7191 256.447 31.9261 256.497 30.7686L256.633 27.6035H261.631ZM268.206 27.6035H269.471V35H268.206V29.6064L264.795 35H263.53V27.6035H264.795V33.0039L268.206 27.6035ZM4.74219 51.6035H6.00684V59H4.74219V53.6064L1.33105 59H0.0664062V51.6035H1.33105V57.0039L4.74219 51.6035ZM13.8401 59H12.5754V55.8418H9.17797V59H7.90648V51.6035H9.17797V54.8096H12.5754V51.6035H13.8401V59ZM21.1333 52.6289H18.6518V59H17.3872V52.6289H14.9536V51.6035H21.1333V52.6289ZM24.6462 59.1367C23.6436 59.1367 22.8279 58.8086 22.1989 58.1523C21.57 57.4915 21.2556 56.6097 21.2556 55.5068V55.2744C21.2556 54.5407 21.3946 53.8867 21.6726 53.3125C21.9551 52.7337 22.3471 52.2826 22.8484 51.959C23.3542 51.6309 23.9011 51.4668 24.489 51.4668C25.4506 51.4668 26.198 51.7835 26.7312 52.417C27.2644 53.0505 27.531 53.9574 27.531 55.1377V55.6641H22.5202C22.5385 56.3932 22.7504 56.9834 23.156 57.4346C23.5661 57.8812 24.0857 58.1045 24.7146 58.1045C25.1612 58.1045 25.5394 58.0133 25.8493 57.8311C26.1592 57.6488 26.4304 57.4072 26.6628 57.1064L27.4353 57.708C26.8155 58.6605 25.8858 59.1367 24.6462 59.1367ZM24.489 52.5059C23.9786 52.5059 23.5502 52.6927 23.2038 53.0664C22.8575 53.4355 22.6433 53.9551 22.5613 54.625H26.2663V54.5293C26.2299 53.8867 26.0567 53.39 25.7468 53.0391C25.4369 52.6836 25.0176 52.5059 24.489 52.5059ZM33.539 52.6494H30.1279V59H28.8564V51.6035H33.539V52.6494ZM40.6477 55.3838C40.6477 56.5094 40.3902 57.4163 39.8752 58.1045C39.3602 58.7926 38.663 59.1367 37.7834 59.1367C36.8856 59.1367 36.1792 58.8519 35.6643 58.2822V61.8438H34.3996V51.6035H35.5549L35.6164 52.4238C36.1314 51.7858 36.8469 51.4668 37.7629 51.4668C38.6516 51.4668 39.3534 51.8018 39.8684 52.4717C40.3879 53.1416 40.6477 54.0736 40.6477 55.2676V55.3838ZM39.383 55.2402C39.383 54.4062 39.2053 53.7477 38.8498 53.2646C38.4943 52.7816 38.0067 52.54 37.3869 52.54C36.6213 52.54 36.0471 52.8796 35.6643 53.5586V57.0928C36.0425 57.7673 36.6213 58.1045 37.4006 58.1045C38.0067 58.1045 38.4875 57.8652 38.843 57.3867C39.203 56.9036 39.383 56.1882 39.383 55.2402ZM46.8061 51.6035H48.0707V59H46.8061V53.6064L43.395 59H42.1303V51.6035H43.395V57.0039L46.8061 51.6035ZM56.1091 55.3838C56.1091 56.5094 55.8516 57.4163 55.3366 58.1045C54.8216 58.7926 54.1244 59.1367 53.2448 59.1367C52.347 59.1367 51.6406 58.8519 51.1257 58.2822V61.8438H49.861V51.6035H51.0163L51.0778 52.4238C51.5928 51.7858 52.3083 51.4668 53.2243 51.4668C54.113 51.4668 54.8148 51.8018 55.3298 52.4717C55.8493 53.1416 56.1091 54.0736 56.1091 55.2676V55.3838ZM54.8444 55.2402C54.8444 54.4062 54.6667 53.7477 54.3112 53.2646C53.9557 52.7816 53.4681 52.54 52.8483 52.54C52.0827 52.54 51.5085 52.8796 51.1257 53.5586V57.0928C51.5039 57.7673 52.0827 58.1045 52.862 58.1045C53.4681 58.1045 53.9489 57.8652 54.3044 57.3867C54.6644 56.9036 54.8444 56.1882 54.8444 55.2402ZM57.1474 55.2334C57.1474 54.5088 57.2887 53.8571 57.5712 53.2783C57.8583 52.6995 58.2548 52.2529 58.7607 51.9385C59.2711 51.624 59.8521 51.4668 60.5038 51.4668C61.511 51.4668 62.3245 51.8154 62.9443 52.5127C63.5686 53.21 63.8808 54.1374 63.8808 55.2949V55.3838C63.8808 56.1038 63.7418 56.751 63.4638 57.3252C63.1904 57.8949 62.7961 58.3392 62.2812 58.6582C61.7708 58.9772 61.1829 59.1367 60.5175 59.1367C59.5149 59.1367 58.7014 58.7881 58.0771 58.0908C57.4573 57.3936 57.1474 56.4707 57.1474 55.3223V55.2334ZM58.4189 55.3838C58.4189 56.2041 58.608 56.8626 58.9863 57.3594C59.3691 57.8561 59.8795 58.1045 60.5175 58.1045C61.1601 58.1045 61.6705 57.8538 62.0488 57.3525C62.427 56.8467 62.6161 56.1403 62.6161 55.2334C62.6161 54.4222 62.4224 53.766 62.0351 53.2646C61.6523 52.7588 61.1419 52.5059 60.5038 52.5059C59.8795 52.5059 59.3759 52.7542 58.9931 53.251C58.6103 53.7477 58.4189 54.4587 58.4189 55.3838ZM65.3429 59V51.6035H68.2277C69.2121 51.6035 69.9663 51.7767 70.4904 52.123C71.019 52.4648 71.2834 52.9684 71.2834 53.6338C71.2834 53.9756 71.1808 54.2855 70.9757 54.5635C70.7707 54.8369 70.4676 55.0465 70.0666 55.1924C70.5132 55.2972 70.8709 55.5023 71.1398 55.8076C71.4132 56.113 71.55 56.4775 71.55 56.9014C71.55 57.5804 71.2993 58.0999 70.798 58.46C70.3013 58.82 69.5972 59 68.6857 59H65.3429ZM66.6076 55.7529V57.9814H68.6994C69.228 57.9814 69.6222 57.8835 69.882 57.6875C70.1463 57.4915 70.2785 57.2158 70.2785 56.8604C70.2785 56.1221 69.7362 55.7529 68.6515 55.7529H66.6076ZM66.6076 54.7412H68.2414C69.4263 54.7412 70.0187 54.3949 70.0187 53.7021C70.0187 53.0094 69.4582 52.6517 68.3371 52.6289H66.6076V54.7412ZM77.5512 59C77.4783 58.8542 77.419 58.5944 77.3734 58.2207C76.7855 58.8314 76.0837 59.1367 75.268 59.1367C74.5388 59.1367 73.9395 58.9316 73.4701 58.5215C73.0053 58.1068 72.7729 57.5827 72.7729 56.9492C72.7729 56.179 73.0645 55.582 73.6479 55.1582C74.2357 54.7298 75.0606 54.5156 76.1225 54.5156H77.3529V53.9346C77.3529 53.4925 77.2208 53.1416 76.9564 52.8818C76.6921 52.6175 76.3025 52.4854 75.7875 52.4854C75.3363 52.4854 74.9581 52.5993 74.6527 52.8271C74.3474 53.055 74.1947 53.3307 74.1947 53.6543H72.9232C72.9232 53.2852 73.0531 52.9297 73.3129 52.5879C73.5772 52.2415 73.9327 51.9681 74.3793 51.7676C74.8305 51.5671 75.3249 51.4668 75.8627 51.4668C76.7149 51.4668 77.3826 51.681 77.8656 52.1094C78.3487 52.5332 78.5993 53.1188 78.6176 53.8662V57.2705C78.6176 57.9495 78.7042 58.4896 78.8773 58.8906V59H77.5512ZM75.4525 58.0361C75.849 58.0361 76.225 57.9336 76.5805 57.7285C76.9359 57.5234 77.1934 57.2568 77.3529 56.9287V55.4111H76.3617C74.8122 55.4111 74.0375 55.8646 74.0375 56.7715C74.0375 57.168 74.1697 57.4779 74.434 57.7012C74.6983 57.9245 75.0378 58.0361 75.4525 58.0361ZM85.7467 52.6289H83.2653V59H82.0006V52.6289H79.567V51.6035H85.7467V52.6289ZM88.118 54.1533H90.0389C90.8775 54.1624 91.5406 54.3812 92.0282 54.8096C92.5158 55.238 92.7597 55.819 92.7597 56.5527C92.7597 57.291 92.509 57.8835 92.0077 58.3301C91.5064 58.7767 90.8319 59 89.9843 59H86.8534V51.6035H88.118V54.1533ZM88.118 55.1855V57.9678H89.9979C90.4719 57.9678 90.8388 57.847 91.0985 57.6055C91.3583 57.3594 91.4882 57.0244 91.4882 56.6006C91.4882 56.1904 91.3606 55.8555 91.1054 55.5957C90.8547 55.3314 90.5015 55.1947 90.0458 55.1855H88.118ZM102.117 51.6035H103.381V59H102.117V53.6064L98.7054 59H97.4408V51.6035H98.7054V57.0039L102.117 51.6035ZM114.454 59H113.189V52.6494H109.785V59H108.514V51.6035H114.454V59ZM122.492 55.3838C122.492 56.5094 122.235 57.4163 121.72 58.1045C121.205 58.7926 120.508 59.1367 119.628 59.1367C118.73 59.1367 118.024 58.8519 117.509 58.2822V61.8438H116.244V51.6035H117.399L117.461 52.4238C117.976 51.7858 118.691 51.4668 119.607 51.4668C120.496 51.4668 121.198 51.8018 121.713 52.4717C122.232 53.1416 122.492 54.0736 122.492 55.2676V55.3838ZM121.228 55.2402C121.228 54.4062 121.05 53.7477 120.694 53.2646C120.339 52.7816 119.851 52.54 119.232 52.54C118.466 52.54 117.892 52.8796 117.509 53.5586V57.0928C117.887 57.7673 118.466 58.1045 119.245 58.1045C119.851 58.1045 120.332 57.8652 120.688 57.3867C121.048 56.9036 121.228 56.1882 121.228 55.2402ZM128.651 51.6035H129.915V59H128.651V53.6064L125.24 59H123.975V51.6035H125.24V57.0039L128.651 51.6035ZM137.749 59H136.484V55.8418H133.086V59H131.815V51.6035H133.086V54.8096H136.484V51.6035H137.749V59ZM144.331 51.6035H145.596V59H144.331V53.6064L140.92 59H139.655V51.6035H140.92V57.0039L144.331 51.6035ZM151.645 57.3252L154.16 51.6035H155.739V59H154.475V53.6201L152.082 59H151.207L148.767 53.5039V59H147.502V51.6035H149.143L151.645 57.3252ZM162.103 59C162.03 58.8542 161.971 58.5944 161.925 58.2207C161.337 58.8314 160.635 59.1367 159.82 59.1367C159.09 59.1367 158.491 58.9316 158.022 58.5215C157.557 58.1068 157.324 57.5827 157.324 56.9492C157.324 56.179 157.616 55.582 158.199 55.1582C158.787 54.7298 159.612 54.5156 160.674 54.5156H161.905V53.9346C161.905 53.4925 161.772 53.1416 161.508 52.8818C161.244 52.6175 160.854 52.4854 160.339 52.4854C159.888 52.4854 159.51 52.5993 159.204 52.8271C158.899 53.055 158.746 53.3307 158.746 53.6543H157.475C157.475 53.2852 157.605 52.9297 157.865 52.5879C158.129 52.2415 158.484 51.9681 158.931 51.7676C159.382 51.5671 159.877 51.4668 160.414 51.4668C161.267 51.4668 161.934 51.681 162.417 52.1094C162.9 52.5332 163.151 53.1188 163.169 53.8662V57.2705C163.169 57.9495 163.256 58.4896 163.429 58.8906V59H162.103ZM160.004 58.0361C160.401 58.0361 160.777 57.9336 161.132 57.7285C161.488 57.5234 161.745 57.2568 161.905 56.9287V55.4111H160.913C159.364 55.4111 158.589 55.8646 158.589 56.7715C158.589 57.168 158.721 57.4779 158.986 57.7012C159.25 57.9245 159.589 58.0361 160.004 58.0361ZM170.298 52.6289H167.817V59H166.552V52.6289H164.119V51.6035H170.298V52.6289ZM172.67 54.1533H174.591C175.429 54.1624 176.092 54.3812 176.58 54.8096C177.067 55.238 177.311 55.819 177.311 56.5527C177.311 57.291 177.061 57.8835 176.559 58.3301C176.058 58.7767 175.384 59 174.536 59H171.405V51.6035H172.67V54.1533ZM172.67 55.1855V57.9678H174.55C175.024 57.9678 175.39 57.847 175.65 57.6055C175.91 57.3594 176.04 57.0244 176.04 56.6006C176.04 56.1904 175.912 55.8555 175.657 55.5957C175.406 55.3314 175.053 55.1947 174.597 55.1855H172.67ZM188.131 55.3838C188.131 56.5094 187.874 57.4163 187.359 58.1045C186.844 58.7926 186.146 59.1367 185.267 59.1367C184.369 59.1367 183.663 58.8519 183.148 58.2822V61.8438H181.883V51.6035H183.038L183.1 52.4238C183.615 51.7858 184.33 51.4668 185.246 51.4668C186.135 51.4668 186.837 51.8018 187.352 52.4717C187.871 53.1416 188.131 54.0736 188.131 55.2676V55.3838ZM186.866 55.2402C186.866 54.4062 186.689 53.7477 186.333 53.2646C185.978 52.7816 185.49 52.54 184.87 52.54C184.105 52.54 183.531 52.8796 183.148 53.5586V57.0928C183.526 57.7673 184.105 58.1045 184.884 58.1045C185.49 58.1045 185.971 57.8652 186.326 57.3867C186.686 56.9036 186.866 56.1882 186.866 55.2402ZM192.574 59.1367C191.571 59.1367 190.755 58.8086 190.126 58.1523C189.498 57.4915 189.183 56.6097 189.183 55.5068V55.2744C189.183 54.5407 189.322 53.8867 189.6 53.3125C189.883 52.7337 190.275 52.2826 190.776 51.959C191.282 51.6309 191.829 51.4668 192.416 51.4668C193.378 51.4668 194.125 51.7835 194.659 52.417C195.192 53.0505 195.458 53.9574 195.458 55.1377V55.6641H190.448C190.466 56.3932 190.678 56.9834 191.083 57.4346C191.494 57.8812 192.013 58.1045 192.642 58.1045C193.089 58.1045 193.467 58.0133 193.777 57.8311C194.087 57.6488 194.358 57.4072 194.59 57.1064L195.363 57.708C194.743 58.6605 193.813 59.1367 192.574 59.1367ZM192.416 52.5059C191.906 52.5059 191.478 52.6927 191.131 53.0664C190.785 53.4355 190.571 53.9551 190.489 54.625H194.194V54.5293C194.157 53.8867 193.984 53.39 193.674 53.0391C193.364 52.6836 192.945 52.5059 192.416 52.5059ZM198.069 51.6035V57.9678H200.776V51.6035H202.041V57.9678H204.741V51.6035H206.012V59H196.798V51.6035H198.069ZM210.838 59.1367C209.835 59.1367 209.019 58.8086 208.391 58.1523C207.762 57.4915 207.447 56.6097 207.447 55.5068V55.2744C207.447 54.5407 207.586 53.8867 207.864 53.3125C208.147 52.7337 208.539 52.2826 209.04 51.959C209.546 51.6309 210.093 51.4668 210.681 51.4668C211.642 51.4668 212.39 51.7835 212.923 52.417C213.456 53.0505 213.723 53.9574 213.723 55.1377V55.6641H208.712C208.73 56.3932 208.942 56.9834 209.348 57.4346C209.758 57.8812 210.277 58.1045 210.906 58.1045C211.353 58.1045 211.731 58.0133 212.041 57.8311C212.351 57.6488 212.622 57.4072 212.854 57.1064L213.627 57.708C213.007 58.6605 212.077 59.1367 210.838 59.1367ZM210.681 52.5059C210.17 52.5059 209.742 52.6927 209.395 53.0664C209.049 53.4355 208.835 53.9551 208.753 54.625H212.458V54.5293C212.422 53.8867 212.248 53.39 211.938 53.0391C211.629 52.6836 211.209 52.5059 210.681 52.5059ZM220.995 59H219.731V55.8418H216.333V59H215.062V51.6035H216.333V54.8096H219.731V51.6035H220.995V59ZM227.578 51.6035H228.842V59H227.578V53.6064L224.166 59H222.902V51.6035H224.166V57.0039L227.578 51.6035ZM236.286 51.6035V59H235.014V56.1221H233.107L231.364 59H229.997L231.856 55.9307C231.382 55.7575 231.018 55.4909 230.762 55.1309C230.512 54.7663 230.386 54.3424 230.386 53.8594C230.386 53.1849 230.639 52.6426 231.145 52.2324C231.651 51.8177 232.328 51.6081 233.175 51.6035H236.286ZM231.658 53.873C231.658 54.2331 231.781 54.5247 232.027 54.748C232.273 54.9668 232.599 55.0785 233.005 55.083H235.014V52.6289H233.196C232.727 52.6289 232.353 52.7451 232.075 52.9775C231.797 53.2054 231.658 53.5039 231.658 53.873ZM240.974 55.2334C240.974 54.5088 241.115 53.8571 241.398 53.2783C241.685 52.6995 242.081 52.2529 242.587 51.9385C243.097 51.624 243.679 51.4668 244.33 51.4668C245.337 51.4668 246.151 51.8154 246.771 52.5127C247.395 53.21 247.707 54.1374 247.707 55.2949V55.3838C247.707 56.1038 247.568 56.751 247.29 57.3252C247.017 57.8949 246.623 58.3392 246.108 58.6582C245.597 58.9772 245.009 59.1367 244.344 59.1367C243.341 59.1367 242.528 58.7881 241.903 58.0908C241.284 57.3936 240.974 56.4707 240.974 55.3223V55.2334ZM242.245 55.3838C242.245 56.2041 242.434 56.8626 242.813 57.3594C243.195 57.8561 243.706 58.1045 244.344 58.1045C244.986 58.1045 245.497 57.8538 245.875 57.3525C246.253 56.8467 246.443 56.1403 246.443 55.2334C246.443 54.4222 246.249 53.766 245.861 53.2646C245.479 52.7588 244.968 52.5059 244.33 52.5059C243.706 52.5059 243.202 52.7542 242.819 53.251C242.437 53.7477 242.245 54.4587 242.245 55.3838ZM255.096 59H253.831V55.8418H250.434V59H249.163V51.6035H250.434V54.8096H253.831V51.6035H255.096V59ZM262.957 51.6035V59H261.685V52.6494H259.17L259.019 55.418C258.937 56.6895 258.723 57.5986 258.377 58.1455C258.035 58.6924 257.49 58.9772 256.743 59H256.237V57.8857L256.599 57.8584C257.009 57.8128 257.303 57.5758 257.481 57.1475C257.659 56.7191 257.773 55.9261 257.823 54.7686L257.96 51.6035H262.957ZM269.313 59C269.24 58.8542 269.181 58.5944 269.136 58.2207C268.548 58.8314 267.846 59.1367 267.03 59.1367C266.301 59.1367 265.702 58.9316 265.232 58.5215C264.767 58.1068 264.535 57.5827 264.535 56.9492C264.535 56.179 264.827 55.582 265.41 55.1582C265.998 54.7298 266.823 54.5156 267.885 54.5156H269.115V53.9346C269.115 53.4925 268.983 53.1416 268.719 52.8818C268.454 52.6175 268.065 52.4854 267.55 52.4854C267.099 52.4854 266.72 52.5993 266.415 52.8271C266.11 53.055 265.957 53.3307 265.957 53.6543H264.685C264.685 53.2852 264.815 52.9297 265.075 52.5879C265.339 52.2415 265.695 51.9681 266.141 51.7676C266.593 51.5671 267.087 51.4668 267.625 51.4668C268.477 51.4668 269.145 51.681 269.628 52.1094C270.111 52.5332 270.362 53.1188 270.38 53.8662V57.2705C270.38 57.9495 270.466 58.4896 270.64 58.8906V59H269.313ZM267.215 58.0361C267.611 58.0361 267.987 57.9336 268.343 57.7285C268.698 57.5234 268.956 57.2568 269.115 56.9287V55.4111H268.124C266.574 55.4111 265.8 55.8646 265.8 56.7715C265.8 57.168 265.932 57.4779 266.196 57.7012C266.46 57.9245 266.8 58.0361 267.215 58.0361ZM276.907 51.6035H278.172V59H276.907V53.6064L273.496 59H272.232V51.6035H273.496V57.0039L276.907 51.6035ZM277.249 48.9102C277.249 49.4616 277.06 49.9059 276.682 50.2432C276.308 50.5758 275.816 50.7422 275.205 50.7422C274.595 50.7422 274.1 50.5736 273.722 50.2363C273.344 49.8991 273.154 49.457 273.154 48.9102H274.187C274.187 49.2292 274.273 49.4798 274.446 49.6621C274.62 49.8398 274.873 49.9287 275.205 49.9287C275.524 49.9287 275.773 49.8398 275.95 49.6621C276.133 49.4844 276.224 49.2337 276.224 48.9102H277.249ZM286.005 59H284.741V55.8418H281.343V59H280.072V51.6035H281.343V54.8096H284.741V51.6035H286.005V59ZM287.83 58.3369C287.83 58.1182 287.893 57.9359 288.021 57.79C288.153 57.6442 288.349 57.5713 288.609 57.5713C288.869 57.5713 289.065 57.6442 289.197 57.79C289.334 57.9359 289.402 58.1182 289.402 58.3369C289.402 58.5465 289.334 58.722 289.197 58.8633C289.065 59.0046 288.869 59.0752 288.609 59.0752C288.349 59.0752 288.153 59.0046 288.021 58.8633C287.893 58.722 287.83 58.5465 287.83 58.3369Z" fill="#12202E"/>
</svg>
