<svg width="20" height="22" viewBox="0 0 20 22" fill="none" xmlns="http://www.w3.org/2000/svg">
<path d="M10 2C8.02219 2 6.08879 2.58649 4.4443 3.6853C2.79981 4.78412 1.51809 6.3459 0.761209 8.17317C0.00433284 10.0004 -0.193701 12.0111 0.192152 13.9509C0.578004 15.8907 1.53041 17.6725 2.92894 19.0711C4.32746 20.4696 6.10929 21.422 8.0491 21.8079C9.98891 22.1937 11.9996 21.9957 13.8268 21.2388C15.6541 20.4819 17.2159 19.2002 18.3147 17.5557C19.4135 15.9112 20 13.9778 20 12C20 9.34784 18.9464 6.8043 17.0711 4.92893C15.1957 3.05357 12.6522 2 10 2V2ZM11.1 17C11.1 17.2917 10.9841 17.5715 10.7778 17.7778C10.5715 17.9841 10.2917 18.1 10 18.1C9.70827 18.1 9.42848 17.9841 9.22219 17.7778C9.0159 17.5715 8.9 17.2917 8.9 17V10.92C8.9 10.6283 9.0159 10.3485 9.22219 10.1422C9.42848 9.93589 9.70827 9.82 10 9.82C10.2917 9.82 10.5715 9.93589 10.7778 10.1422C10.9841 10.3485 11.1 10.6283 11.1 10.92V17ZM10 8C9.73102 8 9.46808 7.92024 9.24443 7.7708C9.02078 7.62136 8.84646 7.40896 8.74353 7.16045C8.64059 6.91194 8.61366 6.63849 8.66614 6.37468C8.71861 6.11086 8.84814 5.86853 9.03834 5.67833C9.22854 5.48814 9.47087 5.35861 9.73468 5.30613C9.9985 5.25366 10.2719 5.28059 10.5205 5.38352C10.769 5.48646 10.9814 5.66077 11.1308 5.88442C11.2802 6.10808 11.36 6.37102 11.36 6.64C11.36 7.00069 11.2167 7.34662 10.9617 7.60167C10.7066 7.85671 10.3607 8 10 8Z" fill="#F72055"/>
</svg>
