<?xml version="1.0" standalone="no"?>
<!DOCTYPE svg PUBLIC "-//W3C//DTD SVG 20010904//EN"
 "http://www.w3.org/TR/2001/REC-SVG-20010904/DTD/svg10.dtd">
<svg version="1.0" xmlns="http://www.w3.org/2000/svg"
 width="1242.000000pt" height="1110.000000pt" viewBox="0 0 1242.000000 1110.000000"
 preserveAspectRatio="xMidYMid meet">

<g transform="translate(0.000000,1110.000000) scale(0.100000,-0.100000)"
fill="#000000" stroke="none">
<path d="M5820 9945 c-211 -211 -382 -386 -380 -387 3 -2 177 -174 388 -383
l382 -379 385 384 385 385 -382 382 c-211 211 -385 383 -388 383 -3 0 -178
-173 -390 -385z m585 -195 l190 -190 -193 -193 -192 -192 -192 192 -193 193
190 190 c104 104 192 190 195 190 3 0 91 -86 195 -190z"/>
<path d="M4695 8680 l-410 -410 484 -484 484 -485 476 481 476 480 475 -476
c261 -262 479 -476 485 -476 6 0 226 216 490 480 l480 480 -413 412 -412 413
-290 -290 -290 -290 217 -217 218 -218 97 97 98 98 -122 122 -123 123 98 97
97 98 215 -215 c118 -118 215 -219 215 -225 0 -5 -129 -139 -287 -297 l-288
-288 -477 477 -478 478 -478 -478 -477 -477 -293 293 -292 292 220 220 220
220 97 -98 98 -97 -123 -123 -122 -122 98 -98 97 -97 218 218 217 217 -288
288 c-158 158 -289 287 -292 287 -3 0 -190 -185 -415 -410z"/>
<path d="M2966 7633 l-779 -775 874 -874 874 -874 1137 1137 1138 1138 1138
-1138 1137 -1137 873 873 872 872 -778 778 -777 777 -680 -680 -680 -680 583
-582 582 -583 487 488 488 487 -388 387 -387 388 -292 -293 -293 -292 193
-192 192 -193 97 97 98 98 -98 98 -97 97 98 98 97 97 195 -195 195 -195 -293
-293 -292 -292 -390 390 -390 390 488 488 487 487 585 -585 585 -585 -683
-682 -682 -683 -1135 1135 -1135 1135 -1135 -1135 -1135 -1135 -682 683 -683
682 580 580 c319 319 584 580 590 580 6 0 227 -217 493 -483 l482 -482 -390
-390 -390 -390 -292 292 -293 293 195 195 195 195 97 -97 98 -98 -97 -97 -98
-98 98 -98 97 -97 192 193 193 192 -293 292 -292 293 -387 -388 -388 -387 486
-486 486 -486 582 583 583 582 -679 678 -678 678 -779 -776z"/>
<path d="M5230 6025 l-975 -975 485 -485 485 -485 412 412 413 413 -290 290
-290 290 -217 -217 -218 -218 95 -95 95 -95 120 120 120 120 100 -100 100
-100 -215 -215 c-118 -118 -219 -215 -225 -215 -6 0 -139 129 -298 288 l-287
287 785 785 785 785 780 -780 c429 -429 780 -784 780 -790 0 -13 -562 -575
-575 -575 -6 0 -107 97 -225 215 l-215 215 98 97 97 98 120 -120 120 -120 97
98 98 97 -218 217 -217 218 -290 -290 -290 -290 413 -413 412 -412 485 485
485 485 -975 975 c-536 536 -977 975 -980 975 -3 0 -444 -439 -980 -975z"/>
<path d="M5103 3251 c-86 -54 -93 -100 -92 -611 1 -534 10 -833 28 -854 10
-11 31 -16 72 -16 32 0 60 3 62 8 3 4 8 99 11 212 4 113 9 219 12 237 6 40 42
62 182 109 59 19 132 51 163 70 165 100 304 338 285 488 -9 68 -47 144 -104
207 -84 94 -260 155 -472 165 -104 5 -118 3 -147 -15z m288 -142 c63 -11 131
-30 153 -42 60 -33 97 -100 104 -186 5 -80 -14 -133 -93 -252 -83 -123 -156
-169 -296 -185 -53 -6 -57 -5 -62 17 -3 13 -9 139 -13 279 -7 273 -2 324 39
368 25 27 26 27 168 1z"/>
<path d="M8084 3219 c-17 -19 -19 -38 -19 -184 0 -90 -4 -167 -9 -172 -10 -10
-175 163 -223 235 -38 57 -63 72 -123 72 -90 0 -91 -21 -2 -130 165 -204 232
-277 295 -329 38 -31 76 -69 84 -84 8 -17 20 -93 29 -180 20 -222 53 -504 65
-563 13 -68 54 -109 109 -109 24 0 46 7 57 18 16 16 16 21 0 99 -26 128 -36
206 -52 432 -9 114 -24 272 -35 350 -25 188 -44 428 -37 473 5 30 2 40 -23 64
-36 36 -87 39 -116 8z"/>
<path d="M7350 3206 c0 -7 -11 -30 -25 -50 -14 -21 -25 -51 -25 -71 0 -64 11
-55 -331 -248 -75 -43 -139 -77 -141 -77 -3 0 -3 69 0 153 4 128 2 158 -11
184 -18 35 -69 70 -114 79 -49 10 -58 -12 -59 -150 -1 -183 1 -176 -32 -176
-30 0 -90 -38 -132 -85 -27 -30 -237 -216 -257 -229 -7 -4 -22 -2 -34 4 -20
11 -21 15 -14 199 9 211 3 244 -47 286 -42 35 -87 31 -106 -8 -12 -24 -12 -46
-1 -128 11 -86 10 -120 -6 -265 -17 -153 -18 -190 -6 -458 7 -160 16 -310 20
-333 16 -84 96 -151 128 -107 11 14 13 35 9 79 -4 33 -9 137 -12 231 -7 191 0
234 44 262 15 9 61 42 102 72 41 31 100 72 130 92 30 19 80 58 111 86 31 29
59 52 62 52 3 0 7 -154 9 -342 3 -373 5 -386 59 -414 39 -20 70 -17 102 9 l27
22 -10 140 c-6 77 -8 203 -4 280 l6 140 39 52 c111 149 314 303 398 303 28 0
30 -3 38 -47 10 -62 10 -254 0 -585 l-8 -267 28 -31 c35 -39 99 -51 137 -26
l25 16 3 528 3 527 33 71 33 70 -36 59 c-19 32 -35 64 -35 70 0 7 -8 19 -18
28 -23 21 -82 23 -82 3z"/>
<path d="M8756 3121 c-27 -50 -36 -151 -36 -386 0 -126 -7 -311 -15 -410 -8
-99 -15 -233 -15 -298 0 -171 24 -214 105 -187 74 24 84 93 85 548 0 196 4
341 10 351 17 33 39 31 158 -9 64 -21 146 -46 182 -55 36 -9 94 -25 128 -37
56 -18 66 -25 79 -56 23 -56 27 -200 9 -405 -21 -244 -21 -321 0 -341 36 -36
109 -3 146 66 23 42 23 49 24 368 0 267 4 359 22 515 28 239 28 265 1 299 -16
21 -29 26 -52 24 -43 -4 -66 -42 -79 -125 -11 -79 -38 -133 -65 -133 -10 0
-85 16 -168 36 -82 20 -197 46 -253 59 -57 12 -108 27 -114 33 -5 5 -11 35
-13 67 -4 73 -31 105 -86 105 -32 0 -41 -5 -53 -29z"/>
<path d="M2886 3089 c-70 -55 -84 -134 -101 -544 -7 -187 -17 -414 -21 -505
l-7 -165 28 -33 c21 -25 35 -32 61 -32 30 0 37 5 48 33 8 17 17 55 21 82 16
114 54 145 152 125 110 -23 336 -114 483 -196 52 -29 115 -28 137 2 19 26 16
88 -6 116 -40 51 -165 102 -371 153 -203 50 -305 93 -337 142 -15 22 -15 36
-4 131 7 59 18 112 24 118 7 6 62 31 122 54 234 93 515 254 619 354 35 35 46
53 46 76 0 45 -39 80 -89 80 -34 0 -62 -16 -210 -119 -195 -136 -265 -177
-395 -232 -111 -46 -108 -52 -72 135 14 73 26 143 26 156 0 32 -64 90 -99 90
-16 0 -40 -9 -55 -21z"/>
<path d="M4637 3096 c-62 -22 -99 -59 -151 -147 -54 -92 -171 -261 -218 -314
-51 -59 -57 -47 -113 200 -38 165 -64 215 -115 215 -29 0 -74 -30 -90 -60 -7
-13 -2 -32 20 -76 34 -66 123 -446 134 -573 6 -70 115 -518 151 -623 16 -47
18 -48 57 -48 32 0 47 7 74 34 21 21 34 44 34 59 0 14 -31 133 -70 263 -43
145 -70 256 -70 283 1 89 68 209 263 471 151 201 207 281 207 292 0 7 -61 39
-72 38 -2 -1 -20 -7 -41 -14z"/>
<path d="M3355 1295 c-56 -21 -110 -67 -143 -123 -24 -41 -27 -57 -27 -132 0
-75 3 -91 27 -132 54 -91 140 -138 253 -138 113 0 212 55 256 143 27 52 35
140 19 205 -14 61 -73 133 -134 164 -53 28 -192 35 -251 13z m179 -57 c60 -18
120 -83 135 -144 33 -139 -60 -257 -204 -256 -122 0 -208 83 -208 201 0 147
132 242 277 199z"/>
<path d="M3900 1040 l0 -270 35 0 35 0 0 207 0 206 23 -21 c13 -12 95 -105
183 -207 134 -156 163 -185 187 -185 l27 0 0 270 0 270 -30 0 -30 0 0 -206 c0
-113 -4 -204 -9 -202 -4 2 -88 94 -185 206 -155 176 -181 202 -207 202 l-29 0
0 -270z"/>
<path d="M4570 1040 l0 -270 160 0 160 0 0 35 0 35 -125 0 -125 0 0 235 0 235
-35 0 -35 0 0 -270z"/>
<path d="M5010 1040 l0 -270 35 0 35 0 0 270 0 270 -35 0 -35 0 0 -270z"/>
<path d="M5260 1040 l0 -270 30 0 30 0 0 205 c0 113 3 205 8 204 4 0 86 -92
182 -204 160 -187 178 -204 208 -205 l32 0 0 270 0 270 -35 0 -35 0 0 -205 c0
-113 -3 -205 -7 -204 -5 0 -88 92 -186 205 -141 162 -183 204 -202 204 l-25 0
0 -270z"/>
<path d="M5920 1040 l0 -270 155 0 155 0 0 35 0 35 -115 0 -115 0 0 85 0 85
105 0 105 0 0 30 0 30 -105 0 -105 0 0 85 0 85 110 0 110 0 0 35 0 35 -150 0
-150 0 0 -270z"/>
<path d="M6640 1040 l0 -273 123 5 c182 8 237 42 237 144 0 61 -30 105 -84
125 l-34 12 33 32 c44 41 54 91 29 141 -28 57 -74 75 -199 82 l-105 5 0 -273z
m214 179 c35 -28 36 -80 1 -114 -20 -21 -34 -25 -85 -25 l-60 0 0 80 0 80 59
0 c44 0 65 -5 85 -21z m52 -242 c13 -15 24 -39 24 -52 0 -13 -11 -37 -24 -52
-23 -26 -31 -28 -110 -32 l-86 -3 0 87 0 87 86 -3 c79 -4 87 -6 110 -32z"/>
<path d="M7192 1047 c-61 -144 -112 -266 -112 -270 0 -5 16 -7 36 -5 35 3 37
6 68 81 l31 78 119 -3 119 -3 33 -75 c31 -72 34 -75 68 -78 20 -2 36 0 36 5 0
4 -53 126 -117 270 -109 244 -119 263 -143 263 -24 0 -33 -18 -138 -263z m179
58 c21 -47 39 -90 39 -95 0 -6 -35 -10 -81 -10 -73 0 -80 2 -75 18 23 60 71
172 74 172 2 0 21 -38 43 -85z"/>
<path d="M7690 1275 l0 -34 156 -3 155 -3 -113 -155 c-63 -86 -140 -190 -171
-233 l-57 -77 240 0 240 0 0 35 0 35 -165 0 c-91 0 -165 3 -165 8 0 4 74 108
165 232 91 123 165 226 165 227 0 2 -101 3 -225 3 l-225 0 0 -35z"/>
<path d="M8426 1278 c-8 -18 -58 -134 -111 -258 -53 -124 -99 -231 -102 -237
-4 -9 7 -13 33 -13 l39 0 31 78 31 77 119 3 119 3 35 -81 c35 -79 35 -80 72
-80 30 0 36 3 31 15 -3 9 -56 129 -118 268 -103 230 -115 252 -139 255 -22 3
-29 -3 -40 -30z m123 -270 c1 -5 -37 -8 -83 -8 l-85 0 26 63 c14 34 32 78 40
97 l15 35 43 -90 c24 -49 44 -93 44 -97z"/>
<path d="M8850 1042 l0 -272 35 0 35 0 0 121 0 122 34 -6 c55 -9 83 -34 151
-138 65 -98 66 -99 105 -99 22 0 40 2 40 4 0 9 -134 204 -157 228 l-25 26 26
18 c84 54 71 202 -20 240 -19 8 -77 17 -129 21 l-95 6 0 -271z m201 179 c18
-14 24 -29 24 -60 0 -58 -28 -83 -99 -89 l-56 -4 0 86 0 86 54 0 c38 0 61 -6
77 -19z"/>
</g>
</svg>
