<svg width="170" height="26" viewBox="0 0 170 26" fill="none" xmlns="http://www.w3.org/2000/svg">
<path d="M23.8063 25.0641L23.7693 8.45018L15.2538 22.1996H13.1064L4.59095 8.66502V25.0641H0V0H3.96155L14.2542 16.6139L24.3617 0H28.3232L28.3602 25.0641H23.8063Z" fill="white"/>
<path d="M55.8718 19.2636H42.9135L40.3588 25.0641H35.3977L47.0602 0H51.7992L63.4987 25.0641H58.4635L55.8718 19.2636ZM54.2798 15.6114L49.3927 4.65476L44.5425 15.6114H54.2798Z" fill="white"/>
<path d="M70.4971 0H75.3102V21.1255H88.8609V25.0641H70.4971V0Z" fill="white"/>
<path d="M96.3631 0H101.176V25.0641H96.3631V0Z" fill="white"/>
<path d="M134.917 0V25.0641H130.956L116.665 8.09212V25.0641H111.889V0H115.85L130.141 16.972V0H134.917Z" fill="white"/>
<path d="M162.373 19.2636H149.415L146.86 25.0641H141.899L153.561 0H158.3L170 25.0641H164.965L162.373 19.2636ZM160.781 15.6114L155.894 4.65476L151.044 15.6114H160.781Z" fill="white"/>
</svg>
