<svg width="24" height="24" viewBox="0 0 24 24" fill="none" xmlns="http://www.w3.org/2000/svg">
<path d="M9.2024 3.99885L9.24944 3.99759L9.2952 3.9988C9.31763 4.00009 9.34011 4.00242 9.36258 4.00583L9.37865 4.00963C9.46406 4.02335 9.54894 4.05386 9.62984 4.10178L9.68171 4.13532L14.752 7.70059L19.8191 4.13867C20.2868 3.80988 20.9205 4.10541 20.9935 4.64775L21.0004 4.75224V15.3848C21.0004 15.5941 20.913 15.7922 20.7623 15.9329L20.6817 15.9983L15.1817 19.8647C14.9148 20.0523 14.5939 20.0367 14.3539 19.8878L9.24905 16.2966L4.17937 19.8614C3.71165 20.1902 3.07791 19.8946 3.00497 19.3523L2.99805 19.2478V8.61526C2.99805 8.40594 3.0854 8.20786 3.23617 8.06709L3.31673 8.0017L8.81672 4.13532C8.88073 4.09033 8.94784 4.05703 9.0162 4.03445L9.13867 4.00645L9.2024 3.99885ZM19.5004 6.19624L15.5004 9.00815V17.8071L19.5004 14.9952V6.19624ZM8.49805 6.1929L4.49805 9.00481V17.8038L8.49805 14.9919V6.1929ZM10.0004 6.1929V14.9919L14.0004 17.8038V9.00481L10.0004 6.1929Z" fill="#1E8BF1"/>
</svg>
