<svg enable-background="new 0 0 32 32" height="512" viewBox="0 0 32 32" width="512" xmlns="http://www.w3.org/2000/svg"><g id="BG"><path d="m26 32h-20c-3.314 0-6-2.686-6-6v-20c0-3.314 2.686-6 6-6h20c3.314 0 6 2.686 6 6v20c0 3.314-2.686 6-6 6z" fill="#f5e6fe"/></g><g id="bold"><path d="m8.254 12.892c.124-.071 3.103-1.728 7.746-1.728 4.644 0 7.622 1.661 7.747 1.732l.253.144v-2.876c0-.177-.094-.341-.247-.431-.12-.07-3.005-1.735-7.753-1.735s-7.633 1.661-7.753 1.732c-.153.089-.247.254-.247.431v2.876z" fill="#d9a4fc"/><path d="m23.253 13.766c-.028-.016-2.889-1.602-7.253-1.602-4.365 0-7.226 1.582-7.254 1.598l-.746.423v3.02c0 .351.156.68.426.901l6.833 5.619c.215.176.478.265.741.265s.526-.089.741-.265l6.832-5.618c.271-.222.427-.551.427-.902v-3.015zm-3.848 2.384-1.466 1.502.346 2.126c.021.126-.033.253-.137.326-.057.04-.124.061-.192.061-.055 0-.111-.014-.161-.042l-1.795-.993-1.796.993c-.113.063-.249.055-.354-.019-.104-.074-.158-.201-.137-.326l.346-2.126-1.466-1.502c-.087-.09-.117-.22-.078-.339.04-.118.143-.205.266-.224l2.012-.308.903-1.924c.109-.233.493-.233.603 0l.903 1.924 2.012.308c.124.019.227.105.266.224.042.119.012.249-.075.339z" fill="#be63f9"/></g></svg>