<svg width="40" height="40" viewBox="0 0 40 40" fill="none" xmlns="http://www.w3.org/2000/svg">
<path fill-rule="evenodd" clip-rule="evenodd" d="M20.0001 0L37.3334 10V30L20.0001 40L2.66675 30V10L20.0001 0Z" fill="white"/>
<path fill-rule="evenodd" clip-rule="evenodd" d="M20.0001 0L28.6667 5L37.3334 10V20V30L28.6667 35L20.0001 40L11.3334 35L2.66675 30V20V10L11.3334 5L20.0001 0ZM12.3334 27.0667L11.2001 27.7333V15.7333L21.2001 9.93333L22.3334 10.5333L12.5334 16.2C12.4001 16.2667 12.3334 16.4667 12.3334 16.6V27.0667ZM24.5334 18.6C24.4001 18.2667 24.4667 17.8667 24.8001 17.6667C25.0667 17.4667 25.4668 17.6 25.7334 17.9333C25.8668 18.2667 25.8001 18.6667 25.4667 18.8667C25.1334 19 24.7334 18.9333 24.5334 18.6ZM28.0001 13.8667H28.7334C29.2668 13.8667 29.6001 14.2 29.6001 15V17.6667C29.6001 18.1461 29.3307 18.3023 29.0341 18.4743C29.0008 18.4936 28.9671 18.5131 28.9334 18.5333C28.9001 18.5333 28.8834 18.55 28.8667 18.5667C28.8501 18.5833 28.8334 18.6 28.8001 18.6L28.0001 19.0667V23.4667C28.0001 23.6667 27.9334 23.8 27.8001 23.8667L15.1334 31.2C15.0667 31.2667 15.0001 31.2667 14.9334 31.2667C14.6667 31.2667 14.4667 31.0667 14.4667 30.8V29.2667L13.0667 30.0667C13.0001 30.1333 12.9334 30.1333 12.8667 30.1333C12.6001 30.1333 12.4001 29.9333 12.4001 29.6667V28.1333L11.0001 28.9333C10.9334 29 10.8667 29 10.8001 29C10.5334 29 10.3334 28.8 10.3334 28.5333V15.5333C10.3334 15.3333 10.4001 15.2 10.5334 15.1333L21.0001 9.06667C21.1334 9 21.3334 9 21.4667 9.06667C23.5334 10.1333 25.6667 11.2667 27.7334 12.4C27.8668 12.4667 28.0001 12.6 28.0001 12.8V13.8667ZM23.9334 21.3333L27.1334 19.4667V23.1333L15.3334 29.9333V17.9333L25.4001 12.1333L27.1334 13.0667V14.7333L23.3334 16.9333C22.8001 17.2 22.5334 17.4 22.5334 17.8667V20.5333C22.5334 20.7333 22.6001 20.9333 22.6667 21.0667C22.7334 21.2 22.8667 21.3333 23.0001 21.4C23.1334 21.4667 23.2667 21.4667 23.4001 21.4667C23.6001 21.4667 23.8001 21.4 23.9334 21.3333ZM28.4001 17.8L28.0001 18.0667L27.1334 18.4667L23.4667 20.6C23.4667 20.6667 23.4001 20.6667 23.3334 20.6667H23.2667V20.4667V17.8667C23.2667 17.7333 23.4001 17.6667 23.6667 17.5333L27.2668 15.4667L28.0001 15.0667L28.6001 14.6667C28.8001 14.5333 28.8001 14.8 28.8001 14.8667V17.4667C28.8001 17.5705 28.7596 17.5935 28.5842 17.6931C28.5345 17.7213 28.4738 17.7558 28.4001 17.8ZM14.4667 17.6667V28.1333L13.2667 28.8667V16.8667L23.3334 11.0667L24.4667 11.6L14.6667 17.2667C14.5334 17.3333 14.4667 17.5333 14.4667 17.6667Z" fill="#42BD75"/>
</svg>
