<svg width="40" height="40" viewBox="0 0 40 40" fill="none" xmlns="http://www.w3.org/2000/svg">
<path d="M5.50665 12.8593C6.01331 12.1658 6.82702 11.7188 7.73286 11.7188L31.868 11.7342C33.3726 11.7342 34.5548 12.9055 34.5548 14.4005V19.8253C34.4933 19.8253 34.4473 19.8099 34.3859 19.8099H32.9273C32.0676 19.8099 31.4074 20.4264 31.4074 21.0891V25.728C31.4074 26.4061 32.0676 27.0072 32.9273 27.0072H34.3859C34.4473 27.0072 34.4933 27.0072 34.5548 26.9917V32.4166C34.5548 33.8499 33.4647 35.0212 31.9601 35.0212C19.2477 35.0212 17.8506 35.0674 7.7175 35.0674C6.2129 35.0674 5 33.7574 5 32.3087V14.4467C5 13.861 5.18424 13.3062 5.50665 12.8593ZM17.1136 16.4656C12.9683 16.4656 10.8188 19.887 10.8188 23.2313C10.8188 26.5756 12.9069 29.9508 17.1136 29.9508C21.3204 29.9508 23.347 26.591 23.347 23.2313C23.347 19.8716 21.3204 16.4656 17.1136 16.4656ZM17.0829 18.7157C14.4115 18.7157 13.0604 20.9658 13.0604 23.2159C13.0604 25.466 14.4268 27.7161 17.0829 27.7161C19.739 27.7161 21.1054 25.466 21.1054 23.2159C21.1054 20.9658 19.7697 18.7157 17.0829 18.7157ZM25.3736 27.2537V29.5038H27.6152V27.2537H25.3736ZM27.8301 16.9125H25.1433L25.5885 26.329H27.3849L27.8301 16.9125ZM33.219 20.7346H34.0942C34.6162 20.7346 35 21.1816 35 21.6901V25.1578C35 25.6663 34.6008 26.1133 34.0942 26.1133H33.219C32.697 26.1133 32.3132 25.6663 32.3132 25.1578V21.6901C32.3132 21.197 32.7124 20.7346 33.219 20.7346ZM27.9376 5.07643L10.9263 10.1006C10.8188 10.1006 10.8188 10.1623 10.8188 10.2085C10.8188 10.3164 10.8802 10.3934 10.9263 10.3934H30.3019V7.07994C30.3019 6.43265 30.0409 5.86242 29.5803 5.44631C29.1044 5.01478 28.521 4.9069 27.9376 5.07643Z" fill="#F0047F"/>
</svg>
