<?xml version="1.0" standalone="no"?>
<!DOCTYPE svg PUBLIC "-//W3C//DTD SVG 20010904//EN"
 "http://www.w3.org/TR/2001/REC-SVG-20010904/DTD/svg10.dtd">
<svg version="1.0" xmlns="http://www.w3.org/2000/svg"
 width="1241.000000pt" height="1242.000000pt" viewBox="0 0 1241.000000 1242.000000"
 preserveAspectRatio="xMidYMid meet">

<g transform="translate(0.000000,1242.000000) scale(0.100000,-0.100000)"
fill="#000000" stroke="none">
<path d="M5697 8662 l-417 -417 418 -418 419 -419 416 417 c230 229 417 419
417 423 0 8 -822 832 -830 832 -3 0 -193 -188 -423 -418z m626 -624 l-208
-208 -207 207 -208 208 207 207 208 208 207 -207 208 -208 -207 -207z"/>
<path d="M4470 7295 l-445 -445 528 -527 527 -528 518 518 517 517 520 -520
520 -520 527 527 528 528 -450 450 -450 450 -315 -315 -315 -315 237 -237 238
-238 105 105 105 105 -133 133 -132 132 105 105 105 105 240 -240 240 -240
-312 -312 c-172 -172 -317 -313 -321 -313 -4 0 -241 232 -525 515 l-517 515
-517 -517 -518 -518 -317 318 -318 317 238 237 237 238 105 -105 106 -106
-133 -132 -133 -132 107 -107 107 -107 238 237 237 238 -314 314 c-173 173
-317 315 -320 315 -3 0 -205 -200 -450 -445z"/>
<path d="M6327 4683 c-4 -3 -7 -66 -7 -140 l0 -133 -34 0 c-53 0 -157 -37
-207 -74 -100 -74 -143 -180 -137 -340 3 -91 7 -109 36 -169 53 -107 143 -170
274 -191 l67 -10 3 -146 3 -145 63 -3 62 -3 0 148 0 148 74 12 c198 32 302
149 314 353 8 158 -44 281 -151 354 -57 38 -140 66 -199 66 l-38 0 0 140 0
140 -58 0 c-32 0 -62 -3 -65 -7z m-7 -664 l0 -282 -46 7 c-92 12 -172 86 -191
175 -12 57 -9 162 6 213 26 89 118 167 199 168 l32 0 0 -281z m238 265 c91
-38 134 -111 140 -239 5 -106 -7 -156 -49 -214 -34 -48 -113 -91 -166 -91
l-33 0 0 280 0 280 35 0 c20 0 52 -7 73 -16z"/>
<path d="M3290 4160 l0 -520 75 0 75 0 0 460 0 460 265 0 265 0 0 -460 0 -460
75 0 75 0 0 520 0 520 -415 0 -415 0 0 -520z"/>
<path d="M5382 4419 c-197 -33 -318 -236 -284 -478 14 -100 41 -160 97 -220
63 -68 126 -93 241 -99 189 -9 306 65 361 229 25 75 25 263 0 335 -26 74 -70
139 -118 174 -71 51 -196 76 -297 59z m178 -139 c80 -41 120 -128 120 -264 0
-96 -10 -136 -49 -197 -67 -107 -233 -120 -327 -25 -52 51 -74 120 -74 226 0
131 44 224 125 265 45 22 156 20 205 -5z"/>
<path d="M4577 4406 c-41 -15 -56 -25 -104 -70 l-33 -30 0 47 0 47 -65 0 -65
0 0 -530 0 -530 65 0 65 0 0 191 0 191 41 -36 c76 -64 195 -84 309 -50 74 22
158 106 190 189 28 75 39 231 20 313 -27 125 -112 234 -207 266 -56 19 -164
20 -216 2z m166 -120 c43 -18 81 -61 108 -121 18 -40 23 -69 23 -146 0 -89 -3
-102 -32 -162 -43 -88 -103 -127 -191 -127 -93 0 -155 40 -192 122 -19 45 -23
70 -23 158 0 88 3 113 22 155 44 97 98 135 190 135 34 0 77 -6 95 -14z"/>
<path d="M7000 4093 c0 -291 1 -309 21 -350 39 -80 115 -118 240 -116 87 1
155 25 207 75 l32 32 0 -47 0 -47 65 0 65 0 0 380 0 380 -65 0 -65 0 0 -233
c0 -250 -8 -306 -52 -362 -49 -63 -187 -87 -256 -45 -58 36 -62 58 -62 365 l0
275 -65 0 -65 0 0 -307z"/>
<path d="M7866 4029 c-75 -203 -136 -374 -136 -380 0 -6 27 -9 67 -7 l68 3 17
50 c10 28 55 160 101 294 l84 244 100 -294 101 -294 76 -3 76 -3 -11 28 c-6
15 -65 174 -130 353 -66 179 -124 337 -130 353 -11 26 -15 27 -79 27 l-67 0
-137 -371z"/>
<path d="M8540 4019 l0 -381 188 4 c169 3 192 6 238 26 64 29 109 74 129 131
43 124 -10 250 -127 301 -43 19 -76 24 -175 28 l-123 4 0 134 0 134 -65 0 -65
0 0 -381z m365 -15 c59 -27 82 -114 51 -189 -22 -52 -58 -65 -181 -65 l-105 0
0 135 0 135 101 0 c71 0 111 -5 134 -16z"/>
</g>
</svg>
