<svg id="Layer_3" enable-background="new 0 0 64 64" height="512" viewBox="0 0 64 64" width="512" xmlns="http://www.w3.org/2000/svg"><path d="m2 2h42v56h-42z" fill="#f2f2f2"/><path d="m6 6h12v4h-12z" fill="#98775a"/><path d="m6 6h9v4h-9z" fill="#cb9e78"/><path d="m6 14h12v4h-12z" fill="#98775a"/><path d="m6 14h9v4h-9z" fill="#cb9e78"/><path d="m6 22h12v4h-12z" fill="#98775a"/><path d="m6 22h9v4h-9z" fill="#cb9e78"/><path d="m6 30h12v4h-12z" fill="#98775a"/><path d="m6 30h9v4h-9z" fill="#cb9e78"/><path d="m6 38h12v4h-12z" fill="#98775a"/><path d="m6 38h9v4h-9z" fill="#cb9e78"/><path d="m6 46h12v4h-12z" fill="#98775a"/><path d="m6 46h9v4h-9z" fill="#cb9e78"/><path d="m34 26 23.293-23.293c.453-.453 1.067-.707 1.707-.707.64 0 1.254.254 1.707.707l.586.586c.453.453.707 1.067.707 1.707 0 .64-.254 1.254-.707 1.707l-23.293 23.293z" fill="#cb9e78"/><path d="m61.293 3.293-.586-.586c-.453-.453-1.067-.707-1.707-.707s-1.254.254-1.707.707l-3.293 3.293 4 4 3.293-3.293c.453-.453.707-1.067.707-1.707s-.254-1.254-.707-1.707z" fill="#98775a"/><path d="m34 26-4 8 8-4z" fill="#fcc062"/><path d="m49 48h2.172c1.811 0 3.548.719 4.828 2 1.281 1.281 2 3.017 2 4.828v7.172h-24v-7.172c0-1.811.719-3.548 2-4.828 1.281-1.281 3.017-2 4.828-2h2.172l3 4z" fill="#71b38e"/><path d="m46 52 3-4h3l-2 6z" fill="#395a47"/><path d="m46 52-3-4h-3l2 6z" fill="#395a47"/><path d="m53 39c0 3.866-3.134 7-7 7-3.866 0-7-3.134-7-7 2.561 0 5.017-1.017 6.828-2.828l.172-.172.172.172c1.811 1.811 4.267 2.828 6.828 2.828z" fill="#fdd089"/><path d="m46 46c-1.075 0-2.09-.25-3-.683v2.683l3 4 3-4v-2.683c-.91.433-1.925.683-3 .683z" fill="#fdd089"/><path d="m46 36 .172.172c1.811 1.811 4.267 2.828 6.828 2.828 0-3.866-3.134-7-7-7s-7 3.134-7 7c2.561 0 5.017-1.017 6.828-2.828z" fill="#5b6673"/><path d="m34 59h-32c-.553 0-1-.447-1-1v-56c0-.553.447-1 1-1h42c.553 0 1 .447 1 1v14h-2v-13h-40v54h31z"/><path d="m18 11h-12c-.553 0-1-.447-1-1v-4c0-.553.447-1 1-1h12c.553 0 1 .447 1 1v4c0 .553-.447 1-1 1zm-11-2h10v-2h-10z"/><path d="m21 5h20v2h-20z"/><path d="m21 9h20v2h-20z"/><path d="m18 19h-12c-.553 0-1-.447-1-1v-4c0-.553.447-1 1-1h12c.553 0 1 .447 1 1v4c0 .553-.447 1-1 1zm-11-2h10v-2h-10z"/><path d="m21 13h20v2h-20z"/><path d="m21 17h20v2h-20z"/><path d="m18 27h-12c-.553 0-1-.447-1-1v-4c0-.553.447-1 1-1h12c.553 0 1 .447 1 1v4c0 .553-.447 1-1 1zm-11-2h10v-2h-10z"/><path d="m21 21h17v2h-17z"/><path d="m21 25h13v2h-13z"/><path d="m18 35h-12c-.553 0-1-.447-1-1v-4c0-.553.447-1 1-1h12c.553 0 1 .447 1 1v4c0 .553-.447 1-1 1zm-11-2h10v-2h-10z"/><path d="m21 29h11v2h-11z"/><path d="m21 33h9v2h-9z"/><path d="m18 43h-12c-.553 0-1-.447-1-1v-4c0-.553.447-1 1-1h12c.553 0 1 .447 1 1v4c0 .553-.447 1-1 1zm-11-2h10v-2h-10z"/><path d="m21 37h15v2h-15z"/><path d="m21 41h15v2h-15z"/><path d="m18 51h-12c-.553 0-1-.447-1-1v-4c0-.553.447-1 1-1h12c.553 0 1 .447 1 1v4c0 .553-.447 1-1 1zm-11-2h10v-2h-10z"/><path d="m21 45h15v2h-15z"/><path d="m21 49h11v2h-11z"/><path d="m46 53c-.314 0-.611-.148-.8-.4l-3-4c-.13-.173-.2-.383-.2-.6v-3h2v2.667l2 2.666 2-2.666v-2.667h2v3c0 .217-.07.427-.2.6l-3 4c-.189.252-.486.4-.8.4z"/><path d="m58 63h-24c-.553 0-1-.447-1-1v-7.172c0-2.061.836-4.078 2.293-5.535s3.475-2.293 5.535-2.293h2.172v2h-2.172c-1.534 0-3.036.622-4.121 1.707s-1.707 2.587-1.707 4.121v6.172h22v-6.172c0-1.534-.622-3.036-1.707-4.121s-2.587-1.707-4.121-1.707h-2.172v-2h2.172c2.061 0 4.078.836 5.535 2.293s2.293 3.475 2.293 5.535v7.172c0 .553-.447 1-1 1z"/><path d="m42 55c-.13 0-.26-.025-.383-.076-.268-.111-.475-.333-.565-.607l-2-6 1.896-.633 1.636 4.906 2.969-1.484.895 1.789-4 2c-.141.07-.295.105-.448.105z"/><path d="m45 52h2v10h-2z"/><path d="m50 55c-.153 0-.307-.035-.447-.105l-4-2 .895-1.789 2.969 1.484 1.636-4.906 1.896.633-2 6c-.091.274-.298.496-.565.607-.124.051-.254.076-.384.076z"/><path d="m46 47c-4.411 0-8-3.589-8-8 0-.553.447-1 1-1 2.312 0 4.486-.9 6.121-2.535l.172-.172c.391-.391 1.023-.391 1.414 0l.172.172c1.635 1.635 3.809 2.535 6.121 2.535.553 0 1 .447 1 1 0 4.411-3.589 8-8 8zm-5.926-7.053c.456 2.86 2.94 5.053 5.926 5.053s5.47-2.193 5.926-5.053c-2.2-.219-4.255-1.108-5.926-2.567-1.671 1.459-3.726 2.349-5.926 2.567z"/><path d="m37 57h2v5h-2z"/><path d="m53 57h2v5h-2z"/><path d="m54 39h-2c0-3.309-2.691-6-6-6s-6 2.691-6 6h-2c0-4.411 3.589-8 8-8s8 3.589 8 8z"/><path d="m38 31c-.256 0-.512-.098-.707-.293l-4-4c-.391-.391-.391-1.023 0-1.414l23.293-23.293c1.289-1.289 3.539-1.289 4.828 0l.586.586c.645.644 1 1.502 1 2.414s-.355 1.77-1 2.414l-23.293 23.293c-.195.195-.451.293-.707.293zm-2.586-5 2.586 2.586 22.586-22.586c.267-.268.414-.622.414-1s-.147-.732-.414-1l-.586-.586c-.535-.533-1.465-.533-2 0z"/><path d="m30 35c-.259 0-.515-.101-.707-.293-.305-.305-.38-.77-.188-1.154l4-8 1.789.895-2.658 5.316 5.316-2.658.895 1.789-8 4c-.142.071-.295.105-.447.105z"/><path d="m55 5.172h2v5.657h-2z" transform="matrix(.707 -.707 .707 .707 10.745 41.941)"/><path d="m43 24h2v8.291h-2z"/></svg>