<svg height="512" viewBox="0 0 64 64" width="512" xmlns="http://www.w3.org/2000/svg"><path d="m17 48.333c0 6.333-7 12.667-7 12.667s-7-6.334-7-12.667a7.172 7.172 0 0 1 7-7.333 7.172 7.172 0 0 1 7 7.333z" fill="#e64a19"/><circle cx="10" cy="48" fill="#ffd54f" r="4"/><path d="m61 13h-14v-10h14l-3 5z" fill="#e64a19"/><path d="m46 3h2v17h-2z" fill="#36474f"/><path d="m15 61h28a16 16 0 0 0 0-32h-19a5 5 0 0 1 0-10h20v-8h-20a13 13 0 0 0 0 26h19a8 8 0 0 1 0 16h-23z" fill="#253238"/><g fill="#f5f5f5"><path d="m42 14h2v2h-2z"/><path d="m18.794 17.925a8.037 8.037 0 0 1 3.17-1.664l-.507-1.934a10.031 10.031 0 0 0 -3.964 2.08z"/><path d="m33.874 14h4.063v2h-4.063z"/><path d="m30.535 32h4.063v2h-4.063z"/><path d="m26.471 34v-2h-2.471a8.217 8.217 0 0 1 -1.409-.123l-.348 1.969a10.146 10.146 0 0 0 1.757.154z"/><path d="m38.661 32h4.063v2h-4.063z"/><path d="m18.124 32.092 1.176-1.617a8.072 8.072 0 0 1 -2.354-2.7l-1.763.946a10.1 10.1 0 0 0 2.941 3.371z"/><path d="m14.831 20a9.941 9.941 0 0 0 -.831 4c0 .135 0 .269.008.4l2-.082c-.008-.104-.008-.211-.008-.318a7.952 7.952 0 0 1 .664-3.2z"/><path d="m25.748 14h4.063v2h-4.063z"/><path d="m40.358 56v2h2.642a13.1 13.1 0 0 0 1.534-.09l-.234-1.986a11.078 11.078 0 0 1 -1.3.076z"/><path d="m32.232 56h4.063v2h-4.063z"/><path d="m24.106 56h4.063v2h-4.063z"/><path d="m52.212 38.987a10.883 10.883 0 0 1 1.475 3.4l1.943-.473a12.886 12.886 0 0 0 -1.744-4.019z"/><path d="m47.853 54.875.883 1.8a13 13 0 0 0 3.547-2.575l-1.429-1.4a10.984 10.984 0 0 1 -3.001 2.175z"/><path d="m50.908 34.682a12.892 12.892 0 0 0 -3.874-2.043l-.62 1.9a10.958 10.958 0 0 1 3.276 1.729z"/><path d="m54.781 50.505a12.9 12.9 0 0 0 1.157-4.228l-1.99-.193a10.917 10.917 0 0 1 -.979 3.573z"/><path d="m20 56h-1.875l-1.25 2h3.125z"/></g></svg>