<svg width="24" height="24" viewBox="0 0 24 24" fill="none" xmlns="http://www.w3.org/2000/svg">
<path d="M20.4999 13.3121C18.57 13.3121 16.9999 14.8821 16.9999 16.8122C16.9999 18.7422 18.5699 20.3122 20.4999 20.3122C22.43 20.3122 24 18.7421 24 16.8122C24 14.8822 22.43 13.3121 20.4999 13.3121ZM20.4999 18.3122C19.6729 18.3122 18.9999 17.6392 18.9999 16.8122C18.9999 15.9851 19.6729 15.3122 20.4999 15.3122C21.327 15.3122 21.9999 15.9851 21.9999 16.8122C21.9999 17.6392 21.327 18.3122 20.4999 18.3122Z" fill="black"/>
<path d="M8.78798 15.6452C8.71799 15.4451 8.52899 15.3122 8.31698 15.3122H5.49998C6.327 15.3122 6.99998 15.9851 6.99998 16.8122C6.99998 17.6392 6.327 18.3122 5.49998 18.3122C4.67297 18.3122 3.99999 17.6392 3.99999 16.8122C3.99999 15.9851 4.67297 15.3122 5.49998 15.3122H2.68402C2.472 15.3122 2.283 15.4451 2.21302 15.6452C2.06902 16.0492 2.00002 16.4302 2.00002 16.8122C2.00002 18.7421 3.57 20.3122 5.50003 20.3122C7.43001 20.3122 9.00004 18.7422 9.00004 16.8122C9 16.4301 8.93099 16.0491 8.78798 15.6452Z" fill="black"/>
<path d="M10.5 8.31213H3.50002C2.673 8.31213 2.00002 8.98511 2.00002 9.81212C2.00002 10.6391 2.673 11.3121 3.50002 11.3121H10.5C11.327 11.3121 12 10.6391 12 9.81212C12 8.98516 11.327 8.31213 10.5 8.31213Z" fill="black"/>
<path d="M15.6929 9.35009C15.4389 9.24509 15.146 9.36411 15.0389 9.61911L12.539 15.6191C12.433 15.8741 12.553 16.1671 12.808 16.2731C12.871 16.3001 12.936 16.3121 13 16.3121C13.196 16.3121 13.381 16.1961 13.462 16.0041L15.962 10.0041C16.0679 9.74909 15.9479 9.45613 15.6929 9.35009Z" fill="black"/>
<path d="M10.263 12.4901C10.168 12.3771 10.028 12.3121 9.87997 12.3121H3.50001C2.919 12.3121 2.367 12.1061 1.90303 11.7161C1.70001 11.5461 1.39903 11.5631 1.21701 11.7561C1.122 11.8561 1.03303 11.9591 0.950014 12.0601C0.336984 12.8141 0 13.7911 0 14.8121C0 15.6391 0.672983 16.3121 1.5 16.3121H9.5C9.76002 16.3121 9.977 16.1131 9.998 15.8541C9.99899 15.8381 10.134 14.2621 10.373 12.8981C10.398 12.7531 10.358 12.6031 10.263 12.4901Z" fill="black"/>
<path d="M16.9451 4.12413C16.4431 4.22412 16.1431 4.74115 16.3051 5.22611L16.3071 5.23113C16.4221 5.57815 16.7471 5.81214 17.1131 5.81214H18.0001L18.5001 3.81213L16.9451 4.12413Z" fill="black"/>
<path d="M18.862 3.46716C18.743 3.34318 18.569 3.28815 18.402 3.32218L16.846 3.63319C16.466 3.70918 16.137 3.94519 15.943 4.28021C15.749 4.61522 15.708 5.01722 15.832 5.38922C16.016 5.94122 16.531 6.31223 17.113 6.31223H18C18.229 6.31223 18.429 6.15623 18.485 5.93325L18.985 3.93324C19.027 3.76716 18.98 3.59119 18.862 3.46716ZM17.61 5.31216H17.113C16.962 5.31216 16.828 5.21517 16.779 5.06714C16.735 4.93716 16.778 4.83216 16.808 4.78116C16.837 4.73016 16.907 4.64016 17.042 4.61316L17.823 4.45716L17.61 5.31216Z" fill="black"/>
<path d="M20.4999 11.3121C19.4189 11.3121 18.9869 10.1871 18.9589 10.1151L16.3168 3.9501C16.0129 3.2391 15.2498 2.8611 14.4958 3.0471C14.0738 3.1521 13.7119 3.43208 13.5028 3.81308C13.2938 4.19408 13.2518 4.65008 13.3898 5.06309L13.8888 6.56108L15.2568 5.74006C15.4948 5.59808 15.8008 5.67505 15.9428 5.91106C16.0848 6.14806 16.0078 6.45504 15.7718 6.59708L14.2138 7.53209L15.0259 9.96907C15.0448 10.0251 15.0729 10.0771 15.1089 10.1231L16.0049 11.2441C16.4389 11.7861 16.4499 12.5401 16.0329 13.0791C15.7499 13.4441 15.5219 13.8221 15.3539 14.2021C15.1489 14.6671 15.1919 15.2001 15.4709 15.6271C15.7499 16.0551 16.2209 16.3111 16.7299 16.3111H17.4999C17.7759 16.3111 17.9999 16.087 17.9999 15.811C17.9999 15.7081 17.9619 15.6181 17.9079 15.539L20.0909 14.084C20.1779 14.214 20.3169 14.307 20.486 14.312C21.494 14.343 23.266 14.312 23.782 13.811C23.923 13.674 24 13.496 24 13.312C23.9999 12.2821 22.0279 11.3121 20.4999 11.3121Z" fill="black"/>
<path d="M15.428 5.05409C15.286 4.81807 14.98 4.74007 14.742 4.88309L12.242 6.38308C12.006 6.52507 11.929 6.8321 12.071 7.0691C12.165 7.22608 12.33 7.31209 12.5 7.31209C12.588 7.31209 12.677 7.28908 12.757 7.2401L15.2568 5.74006C15.4928 5.59808 15.57 5.2901 15.428 5.05409Z" fill="black"/>
<path d="M12.9999 15.3122H9.49993C9.22393 15.3122 8.99991 15.5362 8.99991 15.8122C8.99991 16.0882 9.224 16.3121 9.5 16.3121H13C13.276 16.3121 13.5 16.0882 13.5 15.8122C13.5 15.5361 13.2759 15.3122 12.9999 15.3122Z" fill="black"/>
</svg>
