<svg height="512" viewBox="0 0 60 60" width="512" xmlns="http://www.w3.org/2000/svg"><g id="Page-1" fill="none" fill-rule="evenodd"><g id="032---Shorts-and-Vest" fill="rgb(0,0,0)" fill-rule="nonzero"><path id="Shape" d="m16.53 43c0-.5522847-.4477153-1-1-1h-11.64c-1.04543367-.0055024-1.89001448-.8545518-1.89-1.9v-17.617l.542-.43c4.516-4.323 4.824-11.168 5.071-16.669.025-.539.049-1.068.075-1.582.0478883-1.00576168.87510758-1.79781754 1.882-1.802h2.083c-.058.591-.1 1.186-.1 1.785 0 7 4.012 12.7 8.944 12.7s8.944-5.7 8.944-12.7c0-.6-.039-1.194-.1-1.785h2.089c.341961.00339225.6772008.09538511.973.267l.055.037c.5052032.33742507.8217011.89333471.854 1.5.026.508.049 1.03.073 1.563.219 4.874.491 10.94 3.781 15.243.5423891.750233 1.1982379 1.4114798 1.944 1.96.084.063.156.114.217.169.4082346.3714207 1.0401917.3418816 1.412-.066.1661196-.1844415.256478-.4248019.253-.673h.008c0-15.411-4.421-19.682-7.747-21.553l-.006.012c-.5594878-.29807075-1.1830747-.45559765-1.817-.459h-3.27c-.6110649-.00637335-1.1775705.31898461-1.48.85-.494.833-2.086 2.77-6.18 2.77s-5.686-1.937-6.169-2.752c-.3014016-.53970316-.872855-.87238027-1.491-.868h-3.27c-.74116647-.00023042-1.46672893.21292524-2.09.614v-.007c-2.049 1.276-7.48 4.664-7.48 21.393v18.1c-.00000707 2.1500113 1.73999575 3.8944872 3.89 3.9h11.64c.2652165 0 .5195704-.1053568.7071068-.2928932s.2928932-.4418903.2928932-.7071068zm22.428-23.35c-.066-.082-.132-.164-.2-.257-2.908-3.805-3.153-9.284-3.371-14.118 0-.1-.01-.2-.014-.307 1.655 2.346 3.313 6.626 3.585 14.682zm-18.458-14.03c2.5512372.15252096 5.0528037-.75161616 6.917-2.5.009.221.027.441.027.663 0 5.9-3.115 10.7-6.944 10.7s-6.944-4.8-6.944-10.7c0-.221.018-.441.026-.661 1.8654627 1.74678529 4.3669024 2.6500227 6.918 2.498zm-14.87-.638c0 .106-.01.206-.015.312-.225 5-.484 10.619-3.574 14.366.269-8.12 1.932-12.36 3.589-14.678z"/><path id="Shape" d="m5 35c-.55228475 0-1 .4477153-1 1v3c0 .5522847.44771525 1 1 1h5c.5522847 0 1-.4477153 1-1s-.4477153-1-1-1h-4v-2c0-.5522847-.44771525-1-1-1z"/><path id="Shape" d="m32 17h-4c-.5522847 0-1 .4477153-1 1s.4477153 1 1 1h4c.5522847 0 1-.4477153 1-1s-.4477153-1-1-1z"/><path id="Shape" d="m54 31.83v-4.321c.0155635-1.3683251-1.0797063-2.4908871-2.448-2.509h-27.1c-1.3698633.0159249-2.4675536 1.1391325-2.452 2.509v4.321l-5.965 21.837c-.0231087.0861013-.0348749.1748516-.035.264 0 .5.341 2.945 6.629 3.149 1.7434325 1.8325697 4.1518388 2.8851885 6.681 2.92h2.316c3.0022903-.0021606 5.530454-2.2453158 5.89-5.226l.484-4.036.485 4.037c.3591162 2.9803541 2.8870886 5.2232911 5.889 5.225h2.316c2.5291612-.0348115 4.9375675-1.0874303 6.681-2.92 6.288-.2 6.629-2.65 6.629-3.149-.0001251-.0891484-.0118913-.1778987-.035-.264zm-30-4.321c-.0154282-.2637825.1843934-.4908119.448-.509h2.552v1c0 .5522847.4477153 1 1 1s1-.4477153 1-1v-1h3v1c0 .5522847.4477153 1 1 1s1-.4477153 1-1v-1h3v1c0 .5522847.4477153 1 1 1s1-.4477153 1-1v-1h3v1c0 .5522847.4477153 1 1 1s1-.4477153 1-1v-1h3v1c0 .5522847.4477153 1 1 1s1-.4477153 1-1v-1h2.552c.2636066.0181881.4634282.2452175.448.509v3.459l-14 .032-14-.032zm11.53 27.028c-.2382378 1.975556-1.9141311 3.4621386-3.904 3.463h-2.316c-2.1212454-.0493825-4.1249162-.9846707-5.525-2.579l-.032-.034c-.7926093-.8465291-1.4848571-1.781718-2.063-2.787-.2828495-.4678287-.888963-.621807-1.3608032-.3457012-.4718401.2761057-.6345019.8799468-.3651968 1.3557012.275.47.565.91.862 1.333-1.988-.274-2.61-.825-2.78-1.043l1.965-7.2c1.846 3.414 4.854 7.3 9 7.3h6.585zm1.477-12.311-1.173 9.774h-6.824c-3.921 0-6.776-5-8.2-8.207l2.957-10.826 14.233.033 14.235-.033 2.957 10.826c-1.426 3.207-4.281 8.207-8.202 8.207h-6.825l-1.172-9.774c-.0598364-.5030509-.4864029-.8818856-.993-.8818856s-.9331636.3788347-.993.8818856zm18.168 12.713c.3-.423.586-.863.861-1.333.2468352-.4734802.0781415-1.0573552-.3831771-1.3262349-.4613185-.2688798-1.0524963-.1278964-1.3428229.3202349-.5773906 1.0061837-1.268965 1.9423762-2.061 2.79-.013.012-.023.023-.035.036-1.4008964 1.5920189-3.4039363 2.5253688-5.524 2.574h-2.316c-1.9886812-.002944-3.6624116-1.48956-3.9-3.464l-.069-.536h6.585c4.145 0 7.153-3.882 9-7.3l1.964 7.2c-.17.214-.792.765-2.779 1.039z"/></g></g></svg>