<?xml version="1.0"?>
<svg xmlns="http://www.w3.org/2000/svg" id="OutLine" viewBox="0 0 512 512" width="512" height="512"><path d="M74.782,232a8,8,0,0,1-7.889-9.383A192.259,192.259,0,0,1,222.618,66.893a8,8,0,1,1,2.764,15.759A176.214,176.214,0,0,0,82.653,225.382,8,8,0,0,1,74.782,232Z"/><path d="M287.991,445.229a8,8,0,0,1-1.373-15.881,176.214,176.214,0,0,0,142.729-142.73,8,8,0,1,1,15.76,2.764A192.259,192.259,0,0,1,289.382,445.107,8.048,8.048,0,0,1,287.991,445.229Z"/><circle cx="72" cy="256" r="8"/><circle cx="256" cy="72" r="8"/><circle cx="440" cy="256" r="8"/><circle cx="256" cy="440" r="8"/><path d="M256,496A240,240,0,0,1,86.294,86.3a240,240,0,1,1,339.412,339.41A238.433,238.433,0,0,1,256,496Zm0-464A224,224,0,0,0,97.608,414.392,224,224,0,0,0,414.392,97.608,222.533,222.533,0,0,0,256,32Z"/><path d="M184,240c0,48.523,35.888,88,80,88,24.423,0,47.192-12.031,62.467-33.01a8,8,0,1,0-12.934-9.418C301.3,302.367,283.249,312,264,312c-35.29,0-64-32.3-64-72s28.71-72,64-72c19.249,0,37.3,9.633,49.533,26.428a8,8,0,1,0,12.934-9.418C311.192,164.031,288.423,152,264,152,219.888,152,184,191.477,184,240Z"/><path d="M328,352a8,8,0,0,0-8-8H192a8,8,0,0,0,0,16H320A8,8,0,0,0,328,352Z"/></svg>
