<svg width="150" height="150" viewBox="0 0 150 150" fill="none" xmlns="http://www.w3.org/2000/svg">
<path fill-rule="evenodd" clip-rule="evenodd" d="M114.775 22.7252C136.742 44.6923 136.742 80.3078 114.775 102.275L75.0001 142.049L35.2252 102.275C13.2583 80.3078 13.2583 44.6923 35.2252 22.7252C57.1924 0.758252 92.8077 0.758252 114.775 22.7252ZM108.69 28.808C127.362 47.4797 127.362 77.7533 108.69 96.4252C90.018 115.097 59.7449 115.097 41.0731 96.4252C22.4011 77.7533 22.4011 47.4797 41.0731 28.808C59.7449 10.1361 90.018 10.1361 108.69 28.808Z" fill="white"/>
<path d="M94.2215 75.3625H60.1353C57.5843 75.3625 55.4042 73.5244 54.973 71.0102L50.2079 43.2196H45.6747C45.142 43.2196 44.6309 43.0079 44.254 42.6314C43.8776 42.2545 43.6658 41.7435 43.6658 41.2107C43.6658 40.678 43.8776 40.1669 44.254 39.79C44.6309 39.4135 45.142 39.2018 45.6747 39.2018H50.2074C51.1488 39.2014 52.0601 39.5313 52.7823 40.1343C53.5049 40.7374 53.9928 41.5751 54.1607 42.5009L55.3872 49.2464H97.5088C98.0971 49.2464 98.6781 49.3759 99.2116 49.6251C99.7446 49.8744 100.217 50.2382 100.593 50.6897C100.971 51.1417 101.244 51.6709 101.394 52.2398C101.544 52.8092 101.567 53.4042 101.462 53.9829L98.1747 72.0636C98.0064 72.9894 97.519 73.827 96.7963 74.4299C96.0737 75.0332 95.1624 75.363 94.2215 75.3625Z" fill="white"/>
<path d="M89.8688 91.4325C93.1974 91.4325 95.8959 88.7344 95.8959 85.4059C95.8959 82.0773 93.1974 79.3788 89.8688 79.3788C86.5403 79.3788 83.8423 82.0773 83.8423 85.4059C83.8423 88.7344 86.5403 91.4325 89.8688 91.4325Z" fill="white"/>
<path d="M65.763 91.4325C69.0915 91.4325 71.79 88.7344 71.79 85.4059C71.79 82.0773 69.0915 79.3788 65.763 79.3788C62.4344 79.3788 59.7364 82.0773 59.7364 85.4059C59.7364 88.7344 62.4344 91.4325 65.763 91.4325Z" fill="white"/>
</svg>
