<svg width="22" height="18" viewBox="0 0 22 18" fill="none" xmlns="http://www.w3.org/2000/svg">
<path fill-rule="evenodd" clip-rule="evenodd" d="M20 4C21.1046 4 22 4.89543 22 6V8H18C16.3431 8 15 9.34315 15 11C15 12.6569 16.3431 14 18 14H22V16C22 17.1046 21.1046 18 20 18H2C0.89543 18 0 17.1046 0 16V2.5C0 1.39543 0.89543 0.5 2 0.5H16C17.1046 0.5 18 1.39543 18 2.5H3.25C2.83579 2.5 2.5 2.83579 2.5 3.25C2.5 3.66421 2.83579 4 3.25 4H20ZM18 9.5C17.1716 9.5 16.5 10.1716 16.5 11C16.5 11.8284 17.1716 12.5 18 12.5H22V9.5H18Z" fill="white"/>
</svg>
