<svg width="19" height="18" viewBox="0 0 19 18" fill="none" xmlns="http://www.w3.org/2000/svg">
<path d="M1.99264 0C0.888067 0 0 0.895431 0 2V14.4047C0 15.8756 0.749127 17.0723 1.66992 17.0723H17.3301C18.2509 17.0723 19 15.8756 19 14.4047C19 14.0665 19 7.4659 19 1.99896C19 0.894395 18.1102 0 17.0056 0C13.3529 0 5.64154 0 1.99264 0ZM5.34375 12.33H4.15625C3.84884 12.33 3.59961 11.9319 3.59961 11.4408C3.59961 10.9497 3.84884 10.5516 4.15625 10.5516H5.34375C5.65116 10.5516 5.90039 10.9497 5.90039 11.4408C5.90039 11.9319 5.65116 12.33 5.34375 12.33ZM5.34375 8.53613H4.15625C3.84884 8.53613 3.59961 8.13802 3.59961 7.64695C3.59961 7.15589 3.84884 6.75777 4.15625 6.75777H5.34375C5.65116 6.75777 5.90039 7.15589 5.90039 7.64695C5.90039 8.13802 5.65116 8.53613 5.34375 8.53613ZM5.34375 4.7423H4.15625C3.84884 4.7423 3.59961 4.34418 3.59961 3.85312C3.59961 3.36205 3.84884 2.96394 4.15625 2.96394H5.34375C5.65116 2.96394 5.90039 3.36205 5.90039 3.85312C5.90039 4.34418 5.65116 4.7423 5.34375 4.7423ZM10.0938 12.33H8.90625C8.59884 12.33 8.34961 11.9319 8.34961 11.4408C8.34961 10.9497 8.59884 10.5516 8.90625 10.5516H10.0938C10.4012 10.5516 10.6504 10.9497 10.6504 11.4408C10.6504 11.9319 10.4012 12.33 10.0938 12.33ZM10.0938 8.53613H8.90625C8.59884 8.53613 8.34961 8.13802 8.34961 7.64695C8.34961 7.15589 8.59884 6.75777 8.90625 6.75777H10.0938C10.4012 6.75777 10.6504 7.15589 10.6504 7.64695C10.6504 8.13802 10.4012 8.53613 10.0938 8.53613ZM10.0938 4.7423H8.90625C8.59884 4.7423 8.34961 4.34418 8.34961 3.85312C8.34961 3.36205 8.59884 2.96394 8.90625 2.96394H10.0938C10.4012 2.96394 10.6504 3.36205 10.6504 3.85312C10.6504 4.34418 10.4012 4.7423 10.0938 4.7423ZM14.8438 12.33H13.6562C13.3488 12.33 13.0996 11.9319 13.0996 11.4408C13.0996 10.9497 13.3488 10.5516 13.6562 10.5516H14.8438C15.1512 10.5516 15.4004 10.9497 15.4004 11.4408C15.4004 11.9319 15.1512 12.33 14.8438 12.33ZM14.8438 8.53613H13.6562C13.3488 8.53613 13.0996 8.13802 13.0996 7.64695C13.0996 7.15589 13.3488 6.75777 13.6562 6.75777H14.8438C15.1512 6.75777 15.4004 7.15589 15.4004 7.64695C15.4004 8.13802 15.1512 8.53613 14.8438 8.53613ZM14.8438 4.7423H13.6562C13.3488 4.7423 13.0996 4.34418 13.0996 3.85312C13.0996 3.36205 13.3488 2.96394 13.6562 2.96394H14.8438C15.1512 2.96394 15.4004 3.36205 15.4004 3.85312C15.4004 4.34418 15.1512 4.7423 14.8438 4.7423Z" fill="#ED5168"/>
</svg>
