<svg width="26" height="28" viewBox="0 0 26 28" fill="none" xmlns="http://www.w3.org/2000/svg">
<g clip-path="url(#clip0)">
<path d="M15.7039 16.5469H10.2961V26.2632H15.7039V16.5469Z" fill="#FF5F00"/>
<path d="M10.6395 21.4051C10.6395 19.4309 11.5665 17.6799 12.9914 16.5469C11.9442 15.7229 10.6223 15.2251 9.18026 15.2251C5.76395 15.2251 3 17.9889 3 21.4051C3 24.8213 5.76395 27.5851 9.18026 27.5851C10.6223 27.5851 11.9442 27.0873 12.9914 26.2633C11.5665 25.1474 10.6395 23.3793 10.6395 21.4051Z" fill="#EB001B"/>
<path d="M23 21.4051C23 24.8213 20.236 27.5851 16.8197 27.5851C15.3776 27.5851 14.0558 27.0873 13.0085 26.2633C14.4506 25.1303 15.3605 23.3793 15.3605 21.4051C15.3605 19.4309 14.4334 17.6799 13.0085 16.5469C14.0558 15.7229 15.3776 15.2251 16.8197 15.2251C20.236 15.2251 23 18.0061 23 21.4051Z" fill="#F79E1B"/>
</g>
<g clip-path="url(#clip1)">
<path d="M11.3334 8.8581H9.30823L10.5749 1.01709H12.6L11.3334 8.8581Z" fill="#00579F"/>
<path d="M18.6748 1.20882C18.2754 1.05017 17.6418 0.875 16.8584 0.875C14.8585 0.875 13.4501 1.94266 13.4415 3.46909C13.4249 4.59528 14.4498 5.2208 15.2164 5.59631C15.9999 5.98002 16.2663 6.23047 16.2663 6.5725C16.2583 7.09779 15.6331 7.33993 15.0501 7.33993C14.2415 7.33993 13.8083 7.21509 13.1499 6.92284L12.8832 6.79756L12.5999 8.5577C13.0748 8.77433 13.9499 8.96658 14.8585 8.975C16.9834 8.975 18.3668 7.92387 18.3832 6.29721C18.3913 5.40462 17.8501 4.72067 16.6833 4.16179C15.975 3.80302 15.5412 3.56111 15.5412 3.19402C15.5495 2.86031 15.9081 2.5185 16.7077 2.5185C17.3661 2.50176 17.8498 2.66019 18.2162 2.81873L18.3994 2.902L18.6748 1.20882Z" fill="#00579F"/>
<path d="M21.3663 6.08031C21.5331 5.62986 22.1748 3.88646 22.1748 3.88646C22.1664 3.9032 22.3413 3.42769 22.4413 3.13577L22.5828 3.8114C22.5828 3.8114 22.9663 5.68828 23.0496 6.08031C22.7331 6.08031 21.7663 6.08031 21.3663 6.08031ZM23.8661 1.01709H22.2997C21.8166 1.01709 21.4496 1.15878 21.2412 1.66766L18.233 8.85799H20.358C20.358 8.85799 20.7078 7.89023 20.783 7.6818C21.0161 7.6818 23.0833 7.6818 23.3832 7.6818C23.4413 7.95708 23.6248 8.85799 23.6248 8.85799H25.4999L23.8661 1.01709Z" fill="#00579F"/>
<path d="M7.61656 1.01709L5.63324 6.36391L5.41652 5.27952C5.04984 4.02826 3.89988 2.6688 2.61658 1.99284L4.43322 8.84979H6.57479L9.75801 1.01709H7.61656Z" fill="#00579F"/>
<path d="M3.79164 1.01709H0.533334L0.5 1.17552C3.04169 1.8262 4.72499 3.39465 5.41659 5.27985L4.70827 1.6762C4.59166 1.17541 4.23329 1.03361 3.79164 1.01709Z" fill="#FAA61A"/>
</g>
<defs>
<clipPath id="clip0">
<rect width="20" height="12.36" fill="white" transform="translate(3 15.2251)"/>
</clipPath>
<clipPath id="clip1">
<rect width="25" height="8.1" fill="white" transform="translate(0.5 0.875)"/>
</clipPath>
</defs>
</svg>
