<svg height="512pt" viewBox="-19 0 512 512.00101" width="512pt" xmlns="http://www.w3.org/2000/svg"><path d="m216.746094 41.003906c4.199218 0 7.605468-3.402344 7.605468-7.601562 0-4.199219-3.40625-7.605469-7.605468-7.605469h-50.207032c-4.199218 0-7.601562 3.40625-7.601562 7.605469 0 4.199218 3.402344 7.601562 7.601562 7.601562zm0 0"/><path d="m216.746094 460.050781h-50.207032c-4.199218 0-7.601562 3.40625-7.601562 7.605469s3.402344 7.601562 7.601562 7.601562h50.207032c4.199218 0 7.605468-3.402343 7.605468-7.601562s-3.40625-7.605469-7.605468-7.605469zm0 0"/><path d="m468.621094 162.851562-20.855469-20.855468c-7.253906-7.25-19.066406-7.253906-26.339844 0l-59.609375 59.613281v-43.726563c11.960938-.742187 21.464844-10.703124 21.464844-22.851562v-62.152344c0-12.144531-9.503906-22.109375-21.464844-22.851562v-9.898438c0-22.128906-18.003906-40.128906-40.128906-40.128906h-214.128906c-4.199219 0-7.605469 3.40625-7.605469 7.605469s3.40625 7.601562 7.605469 7.601562h214.128906c13.738281 0 24.917969 11.179688 24.917969 24.921875v9.851563h-309.925781v-9.851563c0-13.742187 11.179687-24.921875 24.921874-24.921875h15.542969c4.199219 0 7.605469-3.402343 7.605469-7.601562s-3.40625-7.605469-7.605469-7.605469h-15.542969c-22.128906 0-40.128906 18-40.128906 40.128906v9.898438c-11.964844.742187-21.472656 10.703125-21.472656 22.851562v31.507813c0 12.144531 9.503906 22.105469 21.464844 22.851562v2.066407c-11.960938.742187-21.464844 10.703124-21.464844 22.847656v31.507812c0 12.144532 9.503906 22.105469 21.464844 22.851563l.007812 265.359375c0 22.128906 18 40.128906 40.128906 40.128906h260.085938c22.125 0 40.128906-18 40.128906-40.128906v-175.886719l61.078125-61.078125c2.96875-2.96875 2.96875-7.785156 0-10.753906s-7.785156-2.96875-10.753906 0l-119.070313 119.066406c-14.4375 14.449219-32.984374 23.957031-52.980468 27.308594 3.355468-19.996094 12.863281-38.546875 27.308594-52.992188l164.777343-164.777344c1.335938-1.332031 3.503907-1.335937 4.835938-.007812l20.855469 20.859375c1.328124 1.328125 1.324218 3.496094 0 4.828125l-24.230469 24.21875c-2.972657 2.96875-2.972657 7.785156-.003907 10.753906s7.785157 2.96875 10.753907 0l24.238281-24.226562c7.25-7.265625 7.246094-19.078125-.003906-26.332032zm-100.546875-89.972656v62.15625c0 3.75-2.699219 6.882813-6.257813 7.554688v-77.269532c3.558594.675782 6.257813 3.808594 6.257813 7.558594zm-352.867188 31.507813v-31.507813c0-3.75 2.703125-6.882812 6.257813-7.558594v46.625c-3.554688-.675781-6.257813-3.808593-6.257813-7.558593zm0 79.273437v-31.507812c0-3.75 2.703125-6.882813 6.257813-7.558594v46.621094c-3.554688-.671875-6.257813-3.804688-6.257813-7.554688zm306.480469 313.132813h-260.085938c-13.742187 0-24.921874-11.179688-24.921874-24.921875v-29.210938h309.929687v29.210938c0 13.742187-11.179687 24.921875-24.921875 24.921875zm-61.589844-193.464844h-187.972656c-4.199219 0-7.605469 3.40625-7.605469 7.605469 0 4.199218 3.40625 7.601562 7.605469 7.601562h174.292969c-7.414063 9.808594-13.148438 20.746094-17.03125 32.351563h-157.261719c-4.199219 0-7.605469 3.40625-7.605469 7.605469 0 4.199218 3.40625 7.605468 7.605469 7.605468h153.332031c-.769531 4.140625-1.335937 8.335938-1.636719 12.578125-.160156 2.199219.648438 4.355469 2.207032 5.917969 1.429687 1.429688 3.367187 2.226562 5.375 2.226562.179687 0 .359375-.007812.542968-.019531 27.128907-1.933593 52.660157-13.59375 71.882813-32.828125l42.78125-42.78125v116.261719h-309.929687v-362.265625h309.929687v151.628906l-38.9375 38.9375h-235.546875c-4.199219 0-7.605469 3.40625-7.605469 7.605469s3.40625 7.605469 7.605469 7.605469h220.335938zm0 0"/><path d="m72.117188 128.273438h239.046874c4.199219 0 7.605469-3.402344 7.605469-7.601563s-3.40625-7.605469-7.605469-7.605469h-239.046874c-4.199219 0-7.601563 3.40625-7.601563 7.605469s3.402344 7.601563 7.601563 7.601563zm0 0"/><path d="m72.117188 175.839844h239.046874c4.199219 0 7.605469-3.40625 7.605469-7.605469s-3.40625-7.601563-7.605469-7.601563h-239.046874c-4.199219 0-7.601563 3.402344-7.601563 7.601563s3.402344 7.605469 7.601563 7.605469zm0 0"/><path d="m311.167969 208.195312h-166.582031c-4.199219 0-7.605469 3.40625-7.605469 7.605469s3.40625 7.601563 7.605469 7.601563h166.578124c4.199219 0 7.605469-3.402344 7.605469-7.601563s-3.402343-7.605469-7.601562-7.605469zm0 0"/><path d="m72.117188 223.402344h42.050781c4.199219 0 7.605469-3.402344 7.605469-7.601563s-3.40625-7.605469-7.605469-7.605469h-42.050781c-4.199219 0-7.601563 3.40625-7.601563 7.605469s3.402344 7.601563 7.601563 7.601563zm0 0"/></svg>