<svg width="27" height="25" viewBox="0 0 27 25" fill="none" xmlns="http://www.w3.org/2000/svg">
<path d="M24.0723 3.23916C23.4614 2.60854 22.7361 2.10829 21.9378 1.76698C21.1396 1.42567 20.2839 1.25 19.4199 1.25C18.5558 1.25 17.7001 1.42567 16.9019 1.76698C16.1036 2.10829 15.3783 2.60854 14.7674 3.23916L13.4997 4.54732L12.2319 3.23916C10.998 1.96595 9.3245 1.25066 7.57951 1.25066C5.83452 1.25066 4.16099 1.96595 2.92709 3.23916C1.6932 4.51238 1 6.23923 1 8.03983C1 9.84044 1.6932 11.5673 2.92709 12.8405L4.19485 14.1487L13.4997 23.75L22.8045 14.1487L24.0723 12.8405C24.6834 12.2102 25.1682 11.4618 25.499 10.6381C25.8298 9.81435 26 8.93146 26 8.03983C26 7.14821 25.8298 6.26532 25.499 5.4416C25.1682 4.61789 24.6834 3.86949 24.0723 3.23916V3.23916Z" stroke="#FF8E04" stroke-width="2" stroke-linecap="round" stroke-linejoin="round"/>
</svg>
